<?xml version="1.0" encoding="UTF-8"?> <svg xmlns="http://www.w3.org/2000/svg" width="35" height="35" viewBox="0 0 35 35" fill="none"><circle cx="17.5" cy="17.5" r="17" stroke="white"></circle><path fill-rule="evenodd" clip-rule="evenodd" d="M16.8818 9.03611C16.8135 9.06616 15.2371 10.5759 13.3788 12.3912L10 15.6915V15.9479V16.2043L13.442 19.5597C16.7339 22.7686 16.894 22.9151 17.1112 22.9151C17.3887 22.9151 17.694 22.6858 17.7505 22.435C17.7735 22.333 17.7522 22.1771 17.6991 22.058C17.6454 21.9374 16.5195 20.7951 14.9311 19.2496C13.4584 17.8169 12.2535 16.624 12.2535 16.5988C12.2535 16.5331 16.8309 16.5454 17.5341 16.613C19.4374 16.7959 20.8869 17.9539 21.5167 19.7947C21.6608 20.216 21.6621 20.244 21.6947 23.935L21.7276 27.6511L21.9305 27.8279C22.2623 28.117 22.6901 28.0335 22.8923 27.6402C22.9916 27.4471 23.0009 27.1567 22.9999 24.248C22.9987 20.155 22.9597 19.7877 22.4032 18.6212C21.6703 17.0854 20.3399 15.9933 18.6194 15.5154C18.1417 15.3827 18.0199 15.377 15.1464 15.3558L12.1685 15.3338L14.907 12.6565C16.4131 11.184 17.6788 9.9149 17.7197 9.83644C17.8198 9.64407 17.7513 9.33167 17.5731 9.16844C17.4097 9.01872 17.0693 8.95358 16.8818 9.03611Z" fill="white"></path></svg> 