<?xml version="1.0" encoding="UTF-8"?> <svg xmlns="http://www.w3.org/2000/svg" width="92" height="29" viewBox="0 0 92 29" fill="none"> <path d="M11.2931 3.24042C12.6702 3.21325 13.9884 3.46692 15.2478 4.00145C16.5071 4.53599 17.5852 5.25625 18.4821 6.16223C19.3791 7.06822 20.0903 8.14181 20.6157 9.38302C21.1412 10.6242 21.3949 11.9152 21.3768 13.2561C21.3949 14.606 21.1412 15.9016 20.6157 17.1428C20.0903 18.384 19.3791 19.4576 18.4821 20.3636C17.5852 21.2696 16.5071 21.9898 15.2478 22.5244C13.9884 23.0498 12.6702 23.299 11.2931 23.2718C9.90697 23.299 8.58423 23.0498 7.3249 22.5244C6.07464 21.9898 5.00105 21.2696 4.10412 20.3636C3.21625 19.4576 2.51411 18.384 1.9977 17.1428C1.48129 15.9016 1.23214 14.606 1.25026 13.2561C1.23214 11.9152 1.48129 10.6242 1.9977 9.38302C2.51411 8.14181 3.21625 7.06822 4.10412 6.16223C5.00105 5.25625 6.07464 4.53599 7.3249 4.00145C8.58423 3.46692 9.90697 3.21325 11.2931 3.24042ZM7.55593 19.9287C8.67029 20.5448 9.91603 20.8528 11.2931 20.8528C12.6702 20.8528 13.916 20.5402 15.0303 19.9151C16.1537 19.2809 17.0416 18.384 17.6939 17.2243C18.3462 16.0647 18.6724 14.7419 18.6724 13.2561C18.6724 12.1417 18.4821 11.1089 18.1016 10.1576C17.7302 9.20635 17.2138 8.40455 16.5524 7.75224C15.9001 7.09993 15.1209 6.58805 14.2149 6.21659C13.3089 5.84514 12.335 5.65941 11.2931 5.65941C9.16406 5.65941 7.40191 6.36608 6.00669 7.77942C4.62053 9.19276 3.92745 11.0274 3.92745 13.2833C3.92745 14.7691 4.25361 16.0918 4.90592 17.2515C5.55823 18.4112 6.44157 19.3036 7.55593 19.9287ZM31.1614 5.65941C30.0471 5.65941 29.1365 5.90856 28.4299 6.40685C27.7232 6.90514 27.3699 7.56651 27.3699 8.39096C27.3699 9.31507 27.7957 10.058 28.6473 10.6197C29.4989 11.1723 30.7718 11.6163 32.466 11.9515C34.7763 12.4045 36.4614 13.0704 37.5214 13.9492C38.5905 14.828 39.125 16.0194 39.125 17.5233C39.125 19.1994 38.432 20.5765 37.0458 21.6546C35.6687 22.7327 33.9111 23.2718 31.773 23.2718C29.9247 23.2718 28.2351 22.8097 26.704 21.8856C25.1547 20.9525 24.0494 19.4304 23.3881 17.3195L25.7527 15.8518C26.1423 17.4644 26.8535 18.7011 27.8863 19.5618C28.9282 20.4225 30.2328 20.8528 31.8001 20.8528C33.2135 20.8528 34.346 20.5584 35.1976 19.9695C36.0492 19.3806 36.475 18.5924 36.475 17.6048C36.475 16.7079 36.1036 16.0013 35.3607 15.4848C34.6268 14.9594 33.3675 14.5517 31.5827 14.2618C27.0709 13.4826 24.815 11.5438 24.815 8.44532C24.815 6.98668 25.4265 5.75454 26.6496 4.74889C27.8727 3.74325 29.4491 3.24042 31.3789 3.24042C33.0096 3.24042 34.4411 3.64812 35.6732 4.46351C36.9144 5.2789 37.7932 6.41138 38.3097 7.86096L35.9179 9.21994C35.6008 8.05122 35.039 7.16788 34.2327 6.56993C33.4264 5.96292 32.4026 5.65941 31.1614 5.65941ZM40.4568 23L48.6107 3.51222H52.1713L60.3251 23H57.4849L55.4872 18.0397H45.2948L43.2563 23H40.4568ZM46.2189 15.7023H54.5359L50.391 5.55069L46.2189 15.7023Z" fill="black"></path> <path d="M63.0757 4.93262V3.63262H61.7757V4.93262H63.0757ZM65.0421 4.93262L66.1383 4.23379L65.755 3.63262H65.0421V4.93262ZM75.7816 21.7788L74.6854 22.4776L75.0686 23.0788H75.7816V21.7788ZM77.5967 21.7788V23.0788H78.8967V21.7788H77.5967ZM77.5967 4.93262V3.63262H76.2967V4.93262H77.5967ZM79.7143 4.93262L80.8372 4.27758L80.461 3.63262H79.7143V4.93262ZM90 22.6301H91.3L91.1364 21.9987L90 22.6301ZM64.3757 23.0259V4.93262H61.7757V23.0259H64.3757ZM63.0757 6.23262H65.0421V3.63262H63.0757V6.23262ZM63.9459 5.63144L74.6854 22.4776L76.8778 21.08L66.1383 4.23379L63.9459 5.63144ZM75.7816 23.0788H77.5967V20.4788H75.7816V23.0788ZM78.8967 21.7788V4.93262H76.2967V21.7788H78.8967ZM77.5967 6.23262H79.7143V3.63262H77.5967V6.23262ZM79.7143 4.93262C78.5914 5.58765 78.5915 5.58771 78.5915 5.58783C78.5916 5.58796 78.5917 5.58814 78.5918 5.58839C78.5921 5.58889 78.5926 5.58963 78.5931 5.59062C78.5943 5.59259 78.596 5.59555 78.5983 5.59948C78.6029 5.60733 78.6097 5.61905 78.6188 5.63452C78.6368 5.66546 78.6636 5.7114 78.6986 5.77138C78.7685 5.89134 78.8713 6.06746 79.0023 6.29211C79.2643 6.74141 79.6395 7.3848 80.092 8.16112C80.9971 9.71378 82.2118 11.7981 83.4501 13.9249C85.9333 18.19 88.4939 22.5958 88.8636 23.2614L91.1364 21.9987C90.7499 21.303 88.1676 16.8601 85.697 12.6167C84.4584 10.4894 83.2435 8.4046 82.3382 6.85169C81.8856 6.07523 81.5103 5.43173 81.2483 4.98232C81.1172 4.75762 81.0145 4.58145 80.9445 4.46144C80.9095 4.40144 80.8827 4.35548 80.8646 4.32452C80.8556 4.30904 80.8487 4.29731 80.8442 4.28945C80.8419 4.28551 80.8401 4.28255 80.839 4.28057C80.8384 4.27958 80.838 4.27883 80.8377 4.27833C80.8375 4.27809 80.8374 4.2779 80.8374 4.27777C80.8373 4.27765 80.8372 4.27758 79.7143 4.93262ZM88.7 22.6301V23.0839H91.3V22.6301H88.7Z" fill="black"></path> </svg> 