<?xml version="1.0" encoding="UTF-8"?> <svg xmlns="http://www.w3.org/2000/svg" width="1780" height="67" viewBox="0 0 1780 67" fill="none"> <rect width="286" height="67" rx="33.5" fill="#F8F8F8"></rect> <circle cx="30" cy="33" r="22" fill="#F8F8F8"></circle> <path fill-rule="evenodd" clip-rule="evenodd" d="M19.8938 26.9191C19.9133 27.0812 19.9524 27.3291 19.9807 27.47C20.0091 27.6109 20.1042 28.1643 20.1922 28.6997C20.2801 29.2352 20.375 29.7886 20.4029 29.9295C20.4309 30.0704 20.4686 30.2894 20.4867 30.4162C20.5049 30.5431 20.5417 30.7621 20.5685 30.903C20.5953 31.0439 20.6552 31.3898 20.7014 31.6716C20.8238 32.417 20.9351 33.0663 20.9957 33.3881C21.0249 33.5431 21.1212 34.108 21.2097 34.6435C21.2982 35.1789 21.3949 35.7438 21.4246 35.8988C21.4543 36.0538 21.5033 36.3305 21.5335 36.5137C21.5879 36.8437 21.7077 37.5589 21.7996 38.1021C21.8258 38.2571 21.8722 38.5338 21.9028 38.717C21.9334 38.9002 21.9823 39.1769 22.0115 39.3319C22.0407 39.4869 22.1395 40.0516 22.2312 40.5869C22.3228 41.1222 22.4106 41.5801 22.4263 41.6043C22.4602 41.6568 23.1194 41.604 23.6464 41.5067C24.7586 41.3014 25.7163 40.8119 26.5434 40.0259C27.3936 39.2181 27.9373 38.349 28.5481 36.8212C29.7795 33.7415 30.0958 32.9576 30.2125 32.6964C30.2376 32.64 30.2835 32.5273 30.3144 32.4459C30.3453 32.3645 30.3821 32.3089 30.3962 32.3224C30.4103 32.336 30.4457 32.5179 30.4749 32.7267C30.5041 32.9355 30.5632 33.3599 30.6062 33.6699C30.6492 33.9799 30.7098 34.4065 30.7407 34.6179C30.7716 34.8292 30.8313 35.2443 30.8733 35.5402C30.9153 35.8361 30.989 36.3433 31.0371 36.6674C31.1545 37.4582 31.199 37.7608 31.3042 38.4864C31.3533 38.8246 31.4275 39.3319 31.4691 39.6137C31.5107 39.8955 31.5823 40.3941 31.6283 40.7216C31.7611 41.6668 31.7291 41.6146 32.1666 41.5979C33.665 41.5407 35.2827 40.8151 36.3504 39.7212C36.9216 39.136 37.4549 38.3117 37.6795 37.6666C37.7286 37.5257 37.8006 37.3412 37.8396 37.2567C37.8786 37.1721 38.1185 36.6188 38.3727 36.0269C38.627 35.4351 38.8565 34.9048 38.8829 34.8484C38.9092 34.7921 39.102 34.3424 39.3112 33.8493C39.5204 33.3561 39.7129 32.9065 39.7391 32.8501C39.7653 32.7937 39.9943 32.2634 40.2481 31.6716C40.5018 31.0798 40.731 30.5495 40.7573 30.4931C40.7837 30.4367 40.9764 29.9871 41.1856 29.4939C41.3948 29.0007 41.5872 28.5511 41.6132 28.4948C41.9049 27.8629 42.3963 26.6728 42.3743 26.6517C42.3223 26.6019 41.8861 26.6237 41.3822 26.7013C40.2436 26.8766 39.3002 27.3214 38.4733 28.073C37.4707 28.9842 36.8394 30.0416 36.3098 31.6972C36.0688 32.4505 35.835 33.1602 35.643 33.7212C35.5755 33.9184 35.4601 34.2643 35.3865 34.4898C35.2504 34.9064 34.8009 36.2709 34.6785 36.6387L34.6113 36.8406L34.5784 36.69C34.5602 36.6071 34.5086 36.2281 34.4636 35.8476C34.4186 35.4672 34.3587 34.9829 34.3303 34.7716C34.2136 33.8999 34.1174 33.1742 34.0416 32.5939C33.9974 32.2557 33.9223 31.7023 33.8748 31.3642C33.8273 31.026 33.7673 30.5879 33.7414 30.3906C33.7156 30.1933 33.6554 29.7437 33.6076 29.3914C33.5598 29.0392 33.4996 28.5896 33.4737 28.3923C33.3165 27.1958 33.2527 26.7453 33.2323 26.6886C33.2011 26.6017 32.8039 26.6067 32.2435 26.7011C31.089 26.8954 30.207 27.3359 29.3748 28.1335C28.5999 28.8761 28.0852 29.6826 27.5581 30.9799C27.3921 31.3885 27.2362 31.769 27.2117 31.8253C27.1872 31.8817 27.1303 32.02 27.0852 32.1328C27.0402 32.2455 26.9413 32.4876 26.8655 32.6708C26.6838 33.1095 25.9463 34.9416 25.5303 35.9876C25.3484 36.4451 25.1861 36.8197 25.1697 36.8202C25.1533 36.8207 25.1104 36.2389 25.0744 35.5274C24.8545 31.1756 24.7976 30.5891 24.5255 29.8653C24.1582 28.8878 23.3968 27.9718 22.4892 27.4151C21.8741 27.038 21.2768 26.8215 20.5135 26.6992C19.8163 26.5876 19.8525 26.5747 19.8938 26.9191Z" fill="black"></path> <path d="M93.4165 26.774L95.7025 37.43L98.1145 26.774H100.365L97.1605 39.5H94.2085L91.8865 28.88L89.5645 39.5H86.5765L83.2645 26.774H85.6405L88.1065 37.43L90.4285 26.774H93.4165ZM101.998 26.774H110.836V28.646H104.086V32.264H110.062V34.154H104.086V37.646H110.836V39.5H101.998V26.774ZM113.072 26.774H118.13C118.61 26.774 119.096 26.816 119.588 26.9C120.08 26.984 120.524 27.146 120.92 27.386C121.316 27.614 121.634 27.938 121.874 28.358C122.126 28.766 122.252 29.3 122.252 29.96C122.252 30.572 122.126 31.118 121.874 31.598C121.622 32.078 121.208 32.456 120.632 32.732C121.448 32.924 122.024 33.284 122.36 33.812C122.708 34.328 122.882 34.964 122.882 35.72C122.882 36.476 122.72 37.106 122.396 37.61C122.084 38.114 121.682 38.504 121.19 38.78C120.698 39.056 120.146 39.248 119.534 39.356C118.934 39.452 118.34 39.5 117.752 39.5H113.072V26.774ZM115.16 28.646V32.138H117.536C117.836 32.138 118.148 32.12 118.472 32.084C118.796 32.036 119.084 31.952 119.336 31.832C119.6 31.7 119.816 31.514 119.984 31.274C120.152 31.034 120.236 30.71 120.236 30.302C120.236 29.93 120.17 29.636 120.038 29.42C119.906 29.192 119.732 29.024 119.516 28.916C119.3 28.796 119.048 28.724 118.76 28.7C118.484 28.664 118.196 28.646 117.896 28.646H115.16ZM117.716 37.646C118.052 37.646 118.4 37.628 118.76 37.592C119.12 37.556 119.45 37.472 119.75 37.34C120.05 37.208 120.296 37.016 120.488 36.764C120.692 36.5 120.794 36.146 120.794 35.702C120.794 35.342 120.716 35.048 120.56 34.82C120.416 34.58 120.224 34.4 119.984 34.28C119.744 34.148 119.474 34.058 119.174 34.01C118.886 33.962 118.592 33.938 118.292 33.938C118.028 33.938 117.764 33.938 117.5 33.938L115.952 33.956C115.688 33.956 115.424 33.956 115.16 33.956V37.646H117.716ZM125.149 39.5V26.774H133.879V28.646H127.237V32.678H132.925V34.532H127.237V39.5H125.149ZM135.924 26.774H137.994V37.646H144.618V39.5H135.924V26.774ZM152.153 39.626C151.157 39.626 150.275 39.464 149.507 39.14C148.751 38.804 148.115 38.348 147.599 37.772C147.083 37.196 146.687 36.512 146.411 35.72C146.147 34.928 146.015 34.064 146.015 33.128C146.015 32.18 146.153 31.31 146.429 30.518C146.705 29.714 147.101 29.024 147.617 28.448C148.145 27.872 148.787 27.422 149.543 27.098C150.311 26.774 151.187 26.612 152.171 26.612C153.155 26.612 154.025 26.774 154.781 27.098C155.549 27.41 156.191 27.854 156.707 28.43C157.235 29.006 157.631 29.696 157.895 30.5C158.171 31.292 158.309 32.162 158.309 33.11C158.309 34.046 158.171 34.916 157.895 35.72C157.631 36.512 157.235 37.196 156.707 37.772C156.191 38.348 155.549 38.804 154.781 39.14C154.013 39.464 153.137 39.626 152.153 39.626ZM152.171 28.484C151.487 28.484 150.893 28.61 150.389 28.862C149.897 29.114 149.483 29.45 149.147 29.87C148.811 30.29 148.559 30.782 148.391 31.346C148.235 31.91 148.157 32.498 148.157 33.11C148.157 33.722 148.235 34.31 148.391 34.874C148.559 35.426 148.805 35.918 149.129 36.35C149.465 36.782 149.885 37.124 150.389 37.376C150.893 37.628 151.487 37.754 152.171 37.754C152.843 37.754 153.431 37.634 153.935 37.394C154.439 37.142 154.853 36.806 155.177 36.386C155.513 35.966 155.759 35.48 155.915 34.928C156.083 34.364 156.167 33.764 156.167 33.128C156.167 32.504 156.083 31.916 155.915 31.364C155.759 30.8 155.513 30.308 155.177 29.888C154.853 29.456 154.439 29.114 153.935 28.862C153.443 28.61 152.855 28.484 152.171 28.484ZM169.301 26.774L171.587 37.43L173.999 26.774H176.249L173.045 39.5H170.093L167.771 28.88L165.449 39.5H162.461L159.149 26.774H161.525L163.991 37.43L166.313 26.774H169.301ZM181.663 26.774H190.501V28.646H183.751V32.264H189.727V34.154H183.751V37.646H190.501V39.5H181.663V26.774ZM199.864 26.774H202.312L198.226 33.11L202.438 39.5H199.972L196.93 34.766L193.816 39.5H191.44L195.67 33.128L191.566 26.774H194.05L196.966 31.508L199.864 26.774ZM204.075 26.774H208.737C209.469 26.774 210.123 26.858 210.699 27.026C211.287 27.182 211.785 27.434 212.193 27.782C212.613 28.13 212.931 28.58 213.147 29.132C213.375 29.672 213.489 30.326 213.489 31.094C213.489 31.802 213.369 32.432 213.129 32.984C212.901 33.536 212.571 33.998 212.139 34.37C211.719 34.742 211.215 35.024 210.627 35.216C210.039 35.408 209.385 35.504 208.665 35.504H206.163V39.5H204.075V26.774ZM208.557 33.668C209.361 33.668 210.027 33.47 210.555 33.074C211.095 32.666 211.377 32.036 211.401 31.184C211.401 30.284 211.167 29.636 210.699 29.24C210.243 28.844 209.571 28.646 208.683 28.646H206.163V33.668H208.557ZM215.764 26.774H224.602V28.646H217.852V32.264H223.828V34.154H217.852V37.646H224.602V39.5H215.764V26.774ZM228.944 34.838V39.5H226.856V26.774H231.806C232.466 26.774 233.084 26.84 233.66 26.972C234.236 27.104 234.734 27.326 235.154 27.638C235.586 27.95 235.922 28.364 236.162 28.88C236.414 29.396 236.54 30.032 236.54 30.788C236.54 31.304 236.462 31.778 236.306 32.21C236.162 32.63 235.964 33.002 235.712 33.326C235.46 33.638 235.166 33.902 234.83 34.118C234.494 34.322 234.134 34.472 233.75 34.568L236.504 39.5H234.182C233.762 38.72 233.336 37.946 232.904 37.178C232.484 36.398 232.058 35.618 231.626 34.838H228.944ZM231.518 33.02C231.926 33.02 232.31 32.984 232.67 32.912C233.03 32.84 233.342 32.72 233.606 32.552C233.87 32.384 234.074 32.156 234.218 31.868C234.374 31.568 234.452 31.19 234.452 30.734C234.452 30.326 234.386 29.99 234.254 29.726C234.134 29.462 233.954 29.252 233.714 29.096C233.474 28.928 233.186 28.814 232.85 28.754C232.514 28.682 232.142 28.646 231.734 28.646H228.944V33.02H231.518ZM241.597 39.5V28.646H237.565V26.774H247.735V28.646H243.685V39.5H241.597Z" fill="black"></path> <rect x="301" width="235" height="67" rx="33.5" fill="#F8F8F8"></rect> <circle cx="331" cy="33" r="22" fill="#F8F8F8"></circle> <path fill-rule="evenodd" clip-rule="evenodd" d="M330.039 18.0257C327.866 18.169 325.659 18.8077 323.802 19.8301C321.15 21.2906 318.927 23.5965 317.575 26.2883C315.409 30.6026 315.481 35.8377 317.764 40.0862C320.167 44.5573 324.644 47.5136 329.689 47.9597C330.627 48.0426 332.334 47.9926 333.228 47.8562C335.452 47.5167 337.358 46.7864 339.245 45.5507C342.556 43.3829 344.911 39.9396 345.695 36.1186C345.936 34.9457 346.001 34.2842 346 33.0154C345.999 30.5486 345.508 28.4344 344.443 26.3098C342.375 22.1856 338.552 19.237 334.064 18.3057C332.867 18.0574 331.257 17.9454 330.039 18.0257ZM322.993 28.2585V28.4642H323.199H323.405V28.2585V28.0527H323.199H322.993V28.2585ZM324.691 28.8213V29.3328L324.446 29.3484C324.224 29.3627 324.202 29.3758 324.202 29.4927C324.202 29.6094 324.224 29.6227 324.444 29.6368L324.686 29.6524L324.701 30.9317C324.715 32.1305 324.723 32.22 324.822 32.3529C325.017 32.6127 325.185 32.7008 325.527 32.7218C325.941 32.7472 326.131 32.6774 326.131 32.499C326.131 32.3826 326.116 32.371 326.015 32.4077C325.951 32.4308 325.764 32.4497 325.599 32.4497C325.325 32.4497 325.286 32.4351 325.149 32.2818L324.999 32.1138V30.8804V29.647H325.565H326.131V29.4927V29.3384H325.565H324.999V28.8241V28.3099H324.845H324.691V28.8213ZM320.446 29.3587C319.999 29.4988 319.753 29.8076 319.753 30.2286C319.753 30.6377 320.045 30.8768 320.833 31.1126C321.32 31.2582 321.636 31.4153 321.706 31.5466C321.735 31.6012 321.759 31.743 321.759 31.8617C321.759 32.0419 321.729 32.1057 321.579 32.2477C321.255 32.5525 320.696 32.5517 320.093 32.2456C319.762 32.0778 319.733 32.0716 319.67 32.1548C319.633 32.2039 319.601 32.2601 319.601 32.2798C319.6 32.2995 319.774 32.402 319.988 32.5077C320.321 32.6722 320.439 32.7032 320.81 32.7227C321.202 32.7432 321.27 32.7321 321.527 32.6066C322.207 32.2741 322.262 31.4606 321.629 31.101C321.517 31.0372 321.228 30.9244 320.988 30.8504C320.216 30.6129 320.062 30.4956 320.062 30.1459C320.062 29.9353 320.205 29.7369 320.421 29.6472C320.672 29.5435 321.272 29.6037 321.593 29.7647C321.851 29.8942 321.863 29.8956 321.913 29.8022C321.941 29.7489 321.965 29.6833 321.965 29.6567C321.965 29.5442 321.126 29.2822 320.792 29.2904C320.716 29.2923 320.56 29.323 320.446 29.3587ZM327.759 29.3707C327.397 29.4816 326.951 29.9337 326.802 30.3399C326.662 30.7214 326.65 31.2793 326.773 31.651C327.143 32.7642 328.553 33.1181 329.474 32.3289C329.643 32.1835 329.649 32.1696 329.566 32.0854C329.484 32.0008 329.47 32.0034 329.297 32.1353C328.987 32.3713 328.704 32.4731 328.353 32.4743C327.663 32.4767 327.112 32.0229 327.024 31.3785L326.991 31.1384H328.393H329.795L329.76 30.8223C329.631 29.6878 328.767 29.0609 327.759 29.3707ZM323.045 31.0098V32.6812H323.199H323.353V31.0098V29.3384H323.199H323.045V31.0098ZM327.919 29.5923C327.44 29.7465 327.005 30.303 327.005 30.7603V30.8812H328.214H329.422V30.7334C329.422 30.5419 329.299 30.1948 329.163 30.0038C328.927 29.6732 328.306 29.4676 327.919 29.5923ZM335.748 32.4755C335.748 32.6763 335.752 32.6812 335.928 32.6812C336.104 32.6812 336.108 32.6763 336.108 32.4755C336.108 32.2746 336.104 32.2697 335.928 32.2697C335.752 32.2697 335.748 32.2746 335.748 32.4755ZM325.545 33.5882C325.37 33.6422 325.219 33.7425 325.044 33.9223L324.793 34.1794V33.8931C324.793 33.6093 324.792 33.6068 324.639 33.6068H324.485V35.2525V36.8982H324.636H324.786L324.803 35.7497L324.819 34.6012L324.975 34.3497C325.07 34.1953 325.226 34.0389 325.379 33.9448C325.589 33.8148 325.679 33.7914 325.969 33.7914C326.409 33.7915 326.699 33.9432 326.894 34.2748C327.03 34.5052 327.031 34.5149 327.047 35.7025L327.063 36.8982H327.219H327.375L327.357 35.7025C327.339 34.5162 327.338 34.5046 327.197 34.2163C326.905 33.6217 326.249 33.3722 325.545 33.5882ZM328.996 33.5762C328.58 33.6896 328.291 34.0403 328.291 34.4297C328.291 34.8864 328.531 35.0846 329.41 35.3533C330.083 35.5589 330.297 35.7261 330.297 36.048C330.297 36.7278 329.306 36.9205 328.483 36.4009C328.29 36.2794 328.278 36.278 328.211 36.3675C328.107 36.5044 328.115 36.5217 328.355 36.6598C328.935 36.9944 329.617 37.0623 330.073 36.8307C330.399 36.6648 330.565 36.4164 330.592 36.0542C330.628 35.5598 330.404 35.3575 329.509 35.0754C329.204 34.9791 328.874 34.8395 328.776 34.7652C328.623 34.6481 328.599 34.6007 328.599 34.4083C328.599 33.982 328.914 33.7784 329.501 33.8255C329.688 33.8404 329.943 33.9066 330.111 33.9832L330.399 34.1152L330.457 34.0065C330.528 33.8736 330.453 33.8072 330.068 33.6649C329.703 33.5297 329.291 33.4956 328.996 33.5762ZM332.746 33.5848C332.569 33.6417 332.401 33.7576 332.168 33.9852L331.839 34.3055V33.9562V33.6068H331.685H331.531V35.7959V37.985L331.672 37.9687L331.814 37.9524L331.839 37.0885L331.865 36.2245L332.057 36.4542C332.339 36.7919 332.744 36.9757 333.202 36.9739C333.652 36.9722 333.981 36.8332 334.318 36.5019C334.641 36.1851 334.782 35.8478 334.81 35.3296C334.849 34.6145 334.549 34.044 333.967 33.7254C333.579 33.5131 333.132 33.4616 332.746 33.5848ZM340.445 33.596C339.727 33.8529 339.306 34.5443 339.359 35.3798C339.419 36.3132 340.087 36.975 340.968 36.9733C341.432 36.9724 341.797 36.8457 342.098 36.5804C342.33 36.376 342.333 36.3693 342.23 36.2967C342.133 36.2291 342.108 36.2352 341.957 36.3624C341.682 36.595 341.414 36.6901 341.031 36.6913C340.473 36.6931 340.092 36.4827 339.851 36.04C339.775 35.9006 339.697 35.6896 339.678 35.571L339.644 35.3554H341.046H342.449L342.418 35.0197C342.36 34.4058 342.052 33.91 341.586 33.6821C341.217 33.5017 340.798 33.47 340.445 33.596ZM338.388 33.6802C338.095 33.8167 337.761 34.1304 337.633 34.3903C337.551 34.5573 337.551 34.5554 337.549 34.0825L337.548 33.6068H337.394H337.24V35.2525V36.8982H337.394H337.548V36.0333C337.548 35.0658 337.601 34.7904 337.856 34.4391C338.067 34.1483 338.353 33.9709 338.726 33.9C339.02 33.8442 339.04 33.8316 339.04 33.6979C339.04 33.5675 339.023 33.5555 338.847 33.5559C338.741 33.5562 338.534 33.6121 338.388 33.6802ZM323.045 35.2525V36.8982H323.199H323.353V35.2525V33.6068H323.199H323.045V35.2525ZM335.8 35.2525V36.8982H335.928H336.057V35.2525V33.6068H335.928H335.8V35.2525ZM340.588 33.8207C340.261 33.8962 339.848 34.3185 339.738 34.6886C339.693 34.8393 339.657 34.9931 339.657 35.0304C339.657 35.0846 339.904 35.0982 340.894 35.0982H342.13L342.096 34.9054C341.949 34.0874 341.337 33.6473 340.588 33.8207ZM332.63 33.9177C332.35 34.0561 332.074 34.3381 331.934 34.6275C331.847 34.8056 331.821 34.9545 331.821 35.2525C331.821 35.7079 331.935 35.9999 332.231 36.2956C332.484 36.548 332.732 36.6571 333.115 36.6829C333.676 36.7208 334.095 36.4904 334.347 36.0044C334.465 35.7778 334.484 35.6765 334.486 35.2782C334.488 34.914 334.465 34.766 334.381 34.5834C334.247 34.2949 333.989 34.0318 333.718 33.9088C333.427 33.7766 332.907 33.7809 332.63 33.9177Z" fill="black"></path> <path d="M390.136 28.466C389.86 28.466 389.578 28.49 389.29 28.538C389.002 28.586 388.738 28.676 388.498 28.808C388.258 28.928 388.06 29.102 387.904 29.33C387.748 29.546 387.67 29.822 387.67 30.158C387.67 30.662 387.838 31.046 388.174 31.31C388.51 31.562 388.912 31.754 389.38 31.886C389.716 31.982 390.052 32.072 390.388 32.156C390.736 32.24 391.054 32.312 391.342 32.372C391.846 32.48 392.32 32.612 392.764 32.768C393.22 32.924 393.616 33.134 393.952 33.398C394.288 33.65 394.552 33.974 394.744 34.37C394.948 34.754 395.05 35.234 395.05 35.81C395.05 36.494 394.924 37.076 394.672 37.556C394.432 38.036 394.102 38.432 393.682 38.744C393.262 39.056 392.77 39.284 392.206 39.428C391.642 39.572 391.036 39.644 390.388 39.644C389.728 39.644 389.098 39.578 388.498 39.446C387.91 39.302 387.382 39.08 386.914 38.78C386.446 38.468 386.056 38.072 385.744 37.592C385.432 37.112 385.234 36.536 385.15 35.864H387.31C387.406 36.224 387.562 36.524 387.778 36.764C387.994 37.004 388.24 37.196 388.516 37.34C388.804 37.484 389.11 37.586 389.434 37.646C389.758 37.706 390.076 37.736 390.388 37.736C390.724 37.736 391.048 37.712 391.36 37.664C391.672 37.604 391.942 37.508 392.17 37.376C392.398 37.244 392.584 37.07 392.728 36.854C392.872 36.638 392.944 36.356 392.944 36.008C392.944 35.528 392.818 35.18 392.566 34.964C392.314 34.736 391.978 34.568 391.558 34.46C390.982 34.292 390.388 34.148 389.776 34.028C389.176 33.896 388.606 33.728 388.066 33.524C387.706 33.392 387.376 33.236 387.076 33.056C386.776 32.876 386.512 32.66 386.284 32.408C386.056 32.156 385.876 31.862 385.744 31.526C385.624 31.178 385.564 30.776 385.564 30.32C385.564 29.624 385.696 29.042 385.96 28.574C386.224 28.094 386.566 27.71 386.986 27.422C387.418 27.134 387.904 26.93 388.444 26.81C388.984 26.678 389.536 26.612 390.1 26.612C390.7 26.612 391.27 26.684 391.81 26.828C392.35 26.96 392.83 27.17 393.25 27.458C393.67 27.746 394.006 28.118 394.258 28.574C394.522 29.03 394.678 29.582 394.726 30.23H392.674C392.626 29.906 392.524 29.636 392.368 29.42C392.224 29.204 392.038 29.03 391.81 28.898C391.594 28.754 391.342 28.652 391.054 28.592C390.766 28.52 390.46 28.478 390.136 28.466ZM399.573 39.5H397.485V26.774H399.573V39.5ZM405.248 39.5V28.646H401.216V26.774H411.386V28.646H407.336V39.5H405.248ZM413.024 26.774H421.862V28.646H415.112V32.264H421.088V34.154H415.112V37.646H421.862V39.5H413.024V26.774ZM431.055 39.5H428.967V26.774H431.055V39.5ZM434.012 39.5V26.774H436.262L442.598 36.332V26.774H444.668V39.5H442.436L436.064 29.978V39.5H434.012ZM452.064 28.466C451.788 28.466 451.506 28.49 451.218 28.538C450.93 28.586 450.666 28.676 450.426 28.808C450.186 28.928 449.988 29.102 449.832 29.33C449.676 29.546 449.598 29.822 449.598 30.158C449.598 30.662 449.766 31.046 450.102 31.31C450.438 31.562 450.84 31.754 451.308 31.886C451.644 31.982 451.98 32.072 452.316 32.156C452.664 32.24 452.982 32.312 453.27 32.372C453.774 32.48 454.248 32.612 454.692 32.768C455.148 32.924 455.544 33.134 455.88 33.398C456.216 33.65 456.48 33.974 456.672 34.37C456.876 34.754 456.978 35.234 456.978 35.81C456.978 36.494 456.852 37.076 456.6 37.556C456.36 38.036 456.03 38.432 455.61 38.744C455.19 39.056 454.698 39.284 454.134 39.428C453.57 39.572 452.964 39.644 452.316 39.644C451.656 39.644 451.026 39.578 450.426 39.446C449.838 39.302 449.31 39.08 448.842 38.78C448.374 38.468 447.984 38.072 447.672 37.592C447.36 37.112 447.162 36.536 447.078 35.864H449.238C449.334 36.224 449.49 36.524 449.706 36.764C449.922 37.004 450.168 37.196 450.444 37.34C450.732 37.484 451.038 37.586 451.362 37.646C451.686 37.706 452.004 37.736 452.316 37.736C452.652 37.736 452.976 37.712 453.288 37.664C453.6 37.604 453.87 37.508 454.098 37.376C454.326 37.244 454.512 37.07 454.656 36.854C454.8 36.638 454.872 36.356 454.872 36.008C454.872 35.528 454.746 35.18 454.494 34.964C454.242 34.736 453.906 34.568 453.486 34.46C452.91 34.292 452.316 34.148 451.704 34.028C451.104 33.896 450.534 33.728 449.994 33.524C449.634 33.392 449.304 33.236 449.004 33.056C448.704 32.876 448.44 32.66 448.212 32.408C447.984 32.156 447.804 31.862 447.672 31.526C447.552 31.178 447.492 30.776 447.492 30.32C447.492 29.624 447.624 29.042 447.888 28.574C448.152 28.094 448.494 27.71 448.914 27.422C449.346 27.134 449.832 26.93 450.372 26.81C450.912 26.678 451.464 26.612 452.028 26.612C452.628 26.612 453.198 26.684 453.738 26.828C454.278 26.96 454.758 27.17 455.178 27.458C455.598 27.746 455.934 28.118 456.186 28.574C456.45 29.03 456.606 29.582 456.654 30.23H454.602C454.554 29.906 454.452 29.636 454.296 29.42C454.152 29.204 453.966 29.03 453.738 28.898C453.522 28.754 453.27 28.652 452.982 28.592C452.694 28.52 452.388 28.478 452.064 28.466ZM459.413 26.774H464.075C464.807 26.774 465.461 26.858 466.037 27.026C466.625 27.182 467.123 27.434 467.531 27.782C467.951 28.13 468.269 28.58 468.485 29.132C468.713 29.672 468.827 30.326 468.827 31.094C468.827 31.802 468.707 32.432 468.467 32.984C468.239 33.536 467.909 33.998 467.477 34.37C467.057 34.742 466.553 35.024 465.965 35.216C465.377 35.408 464.723 35.504 464.003 35.504H461.501V39.5H459.413V26.774ZM463.895 33.668C464.699 33.668 465.365 33.47 465.893 33.074C466.433 32.666 466.715 32.036 466.739 31.184C466.739 30.284 466.505 29.636 466.037 29.24C465.581 28.844 464.909 28.646 464.021 28.646H461.501V33.668H463.895ZM473.19 39.5H471.102V26.774H473.19V39.5ZM478.235 34.838V39.5H476.147V26.774H481.097C481.757 26.774 482.375 26.84 482.951 26.972C483.527 27.104 484.025 27.326 484.445 27.638C484.877 27.95 485.213 28.364 485.453 28.88C485.705 29.396 485.831 30.032 485.831 30.788C485.831 31.304 485.753 31.778 485.597 32.21C485.453 32.63 485.255 33.002 485.003 33.326C484.751 33.638 484.457 33.902 484.121 34.118C483.785 34.322 483.425 34.472 483.041 34.568L485.795 39.5H483.473C483.053 38.72 482.627 37.946 482.195 37.178C481.775 36.398 481.349 35.618 480.917 34.838H478.235ZM480.809 33.02C481.217 33.02 481.601 32.984 481.961 32.912C482.321 32.84 482.633 32.72 482.897 32.552C483.161 32.384 483.365 32.156 483.509 31.868C483.665 31.568 483.743 31.19 483.743 30.734C483.743 30.326 483.677 29.99 483.545 29.726C483.425 29.462 483.245 29.252 483.005 29.096C482.765 28.928 482.477 28.814 482.141 28.754C481.805 28.682 481.433 28.646 481.025 28.646H478.235V33.02H480.809ZM488.17 26.774H497.008V28.646H490.258V32.264H496.234V34.154H490.258V37.646H497.008V39.5H488.17V26.774Z" fill="black"></path> <rect x="551" width="314" height="67" rx="33.5" fill="#F8F8F8"></rect> <circle cx="581" cy="33" r="22" fill="#F8F8F8"></circle> <g clip-path="url(#clip0_2123_8812)"> <path d="M581 47.25C588.87 47.25 595.25 40.8701 595.25 33C595.25 25.1299 588.87 18.75 581 18.75C573.13 18.75 566.75 25.1299 566.75 33C566.75 40.8701 573.13 47.25 581 47.25Z" stroke="black" stroke-miterlimit="10"></path> <path d="M576.814 32.5547C576.883 32.5547 576.929 32.5547 576.974 32.5781C577.02 32.6016 577.089 32.625 577.135 32.6484L577.25 32.3438C577.112 32.2734 576.974 32.25 576.814 32.25C576.676 32.25 576.561 32.2734 576.446 32.3438C576.332 32.4141 576.263 32.4844 576.217 32.6016C576.171 32.7187 576.125 32.8359 576.125 33C576.125 33.2344 576.171 33.4219 576.286 33.5625C576.401 33.6797 576.561 33.75 576.768 33.75C576.929 33.75 577.043 33.7266 577.158 33.6797V33.3516C577.089 33.375 577.043 33.3984 576.974 33.4219C576.906 33.4453 576.86 33.4453 576.791 33.4453C576.584 33.4453 576.469 33.3047 576.469 33.0234C576.469 32.8828 576.492 32.7891 576.538 32.7187C576.653 32.6016 576.722 32.5547 576.814 32.5547Z" fill="black"></path> <path d="M578.872 33.4113C578.794 33.4113 578.715 33.4113 578.637 33.3871C578.558 33.3629 578.453 33.3387 578.375 33.2903V33.6532C578.453 33.6774 578.532 33.7016 578.61 33.7258C578.689 33.75 578.767 33.75 578.872 33.75C579.003 33.75 579.108 33.7258 579.212 33.7016C579.317 33.6532 579.369 33.6048 579.422 33.5323C579.474 33.4597 579.5 33.3871 579.5 33.2903C579.5 33.1935 579.474 33.0968 579.422 33.0484C579.369 32.9758 579.265 32.9274 579.134 32.8548C578.977 32.7823 578.898 32.7581 578.872 32.7339C578.846 32.7097 578.82 32.6855 578.82 32.6613C578.82 32.6371 578.82 32.6129 578.846 32.5887C578.872 32.5645 578.924 32.5645 578.977 32.5645C579.081 32.5645 579.212 32.5887 579.369 32.6613L579.5 32.3468C579.317 32.2742 579.16 32.25 578.977 32.25C578.794 32.25 578.637 32.2984 578.532 32.371C578.427 32.4435 578.375 32.5645 578.375 32.6855C578.375 32.7581 578.375 32.8306 578.401 32.879C578.427 32.9274 578.453 32.9758 578.506 33.0242C578.558 33.0726 578.637 33.121 578.741 33.1452C578.846 33.1935 578.924 33.2177 578.951 33.2419C578.977 33.2661 579.003 33.2661 579.003 33.2903C579.003 33.3145 579.029 33.3145 579.029 33.3387C579.029 33.3629 579.003 33.3871 578.977 33.4113C578.977 33.4113 578.924 33.4113 578.872 33.4113Z" fill="black"></path> <path d="M580.747 33.4113C580.669 33.4113 580.59 33.4113 580.512 33.3871C580.433 33.3629 580.328 33.3387 580.25 33.2903V33.6532C580.328 33.6774 580.407 33.7016 580.485 33.7258C580.564 33.75 580.642 33.75 580.747 33.75C580.878 33.75 580.983 33.7258 581.087 33.7016C581.192 33.6532 581.244 33.6048 581.297 33.5323C581.349 33.4597 581.375 33.3871 581.375 33.2903C581.375 33.1935 581.349 33.0968 581.297 33.0484C581.244 32.9758 581.14 32.9274 581.009 32.8548C580.852 32.7823 580.773 32.7581 580.747 32.7339C580.721 32.7097 580.695 32.6855 580.695 32.6613C580.695 32.6371 580.695 32.6129 580.721 32.5887C580.747 32.5645 580.799 32.5645 580.852 32.5645C580.956 32.5645 581.087 32.5887 581.244 32.6613L581.375 32.3468C581.192 32.2742 581.035 32.25 580.852 32.25C580.669 32.25 580.512 32.2984 580.407 32.371C580.302 32.4435 580.25 32.5645 580.25 32.6855C580.25 32.7581 580.25 32.8306 580.276 32.879C580.302 32.9274 580.328 32.9758 580.381 33.0242C580.433 33.0726 580.512 33.121 580.616 33.1452C580.721 33.1935 580.799 33.2177 580.826 33.2419C580.852 33.2661 580.878 33.2661 580.878 33.2903C580.878 33.3145 580.904 33.3145 580.904 33.3387C580.904 33.3629 580.878 33.3871 580.852 33.4113C580.878 33.4113 580.826 33.4113 580.747 33.4113Z" fill="black"></path> <path d="M583.25 32.9758C583.25 32.7339 583.185 32.5645 583.077 32.4435C582.969 32.3226 582.796 32.25 582.579 32.25H582.125V33.75H582.558C582.774 33.75 582.947 33.6774 583.077 33.5565C583.185 33.4113 583.25 33.2177 583.25 32.9758ZM582.796 33.3145C582.752 33.3871 582.666 33.4113 582.558 33.4113H582.471V32.5645H582.579C582.687 32.5645 582.752 32.5887 582.796 32.6613C582.839 32.7339 582.861 32.8306 582.861 32.9758C582.882 33.121 582.861 33.2419 582.796 33.3145Z" fill="black"></path> <path d="M585.367 33.4597L585.44 33.75H585.875L585.391 32.25H584.859L584.375 33.75H584.81L584.883 33.4597H585.367ZM585.077 32.6613C585.101 32.5887 585.101 32.5161 585.101 32.4919C585.101 32.5403 585.125 32.5887 585.149 32.6855C585.173 32.7823 585.198 32.8548 585.198 32.9032L585.27 33.1452H584.956C585.028 32.9032 585.077 32.7339 585.077 32.6613Z" fill="black"></path> <path d="M582.978 30.9111L581.396 29.4137L579.838 30.9111H578.948L582.236 27.75H578.799L575.486 30.9111H574.25V31.125H587.75V30.9111H582.978Z" fill="black"></path> <path d="M574.25 34.7394H578.997L580.53 36.2234L582.088 34.7394H582.929L579.665 37.875H583.126L584.832 36.2234L586.39 34.7394H587.75V34.5H574.25V34.7394Z" fill="black"></path> <path d="M571.25 31.8668V32.2826L570.273 32.5027C570.246 32.5027 570.167 32.5272 570.062 32.5516C569.956 32.5761 569.877 32.5761 569.85 32.5761C569.903 32.5761 569.956 32.6005 570.062 32.625C570.167 32.6495 570.22 32.6495 570.273 32.6739L571.224 32.9185V33.3342L569.375 33.75V33.4076L570.379 33.212C570.563 33.1875 570.722 33.163 570.854 33.1386C570.801 33.1386 570.722 33.1141 570.643 33.1141C570.537 33.0897 570.458 33.0897 570.405 33.0652L569.375 32.7962V32.4538L570.405 32.2337C570.458 32.2337 570.511 32.2092 570.616 32.1848C570.722 32.1603 570.801 32.1603 570.854 32.1603C570.801 32.1603 570.695 32.1359 570.616 32.1114C570.511 32.087 570.431 32.087 570.379 32.0625L569.375 31.8424V31.5L571.25 31.8668Z" fill="black"></path> <path d="M571.625 30.0804L571.381 31.125L569.75 30.6696L569.994 29.625L570.286 29.7054L570.14 30.3482L570.505 30.4554L570.651 29.8393L570.943 29.9196L570.797 30.5357L571.211 30.6429L571.357 30L571.625 30.0804Z" fill="black"></path> <path d="M570.125 28.2596L570.342 27.8201C570.438 27.6223 570.535 27.4904 570.655 27.4245C570.752 27.3585 570.872 27.3585 571.017 27.4245C571.113 27.4684 571.161 27.5124 571.209 27.5783C571.258 27.6442 571.258 27.7102 571.234 27.7761C571.306 27.6882 571.378 27.6442 571.45 27.6442C571.523 27.6223 571.619 27.6442 571.716 27.6882C571.86 27.7541 571.932 27.842 571.981 27.9519C572.029 28.0618 571.981 28.2157 571.908 28.3695L571.643 28.875L570.125 28.2596ZM570.872 28.2157L570.968 28.0398C571.017 27.9519 571.017 27.908 571.017 27.842C571.017 27.7981 570.968 27.7541 570.92 27.7321C570.872 27.7102 570.8 27.7102 570.776 27.7321C570.727 27.7541 570.679 27.8201 570.655 27.908L570.583 28.0618L570.872 28.2157ZM571.113 28.3255L571.499 28.5014L571.595 28.3036C571.643 28.2157 571.643 28.1497 571.643 28.1058C571.619 28.0618 571.595 28.0179 571.523 27.9739C571.402 27.9299 571.282 27.9739 571.209 28.1277L571.113 28.3255Z" fill="black"></path> <path d="M572.943 26.25C573.057 26.35 573.125 26.45 573.125 26.6C573.125 26.75 573.08 26.9 572.966 27.05C572.875 27.2 572.761 27.3 572.625 27.375L572.375 27.175C572.466 27.1 572.557 27.05 572.625 27C572.693 26.95 572.739 26.9 572.761 26.85C572.807 26.775 572.83 26.725 572.83 26.675C572.83 26.625 572.807 26.575 572.761 26.55C572.739 26.525 572.716 26.5 572.693 26.5C572.67 26.5 572.625 26.5 572.602 26.525C572.58 26.55 572.489 26.575 572.398 26.625C572.307 26.675 572.216 26.725 572.17 26.725C572.102 26.75 572.057 26.75 571.989 26.725C571.92 26.725 571.875 26.675 571.807 26.625C571.693 26.525 571.625 26.425 571.625 26.275C571.625 26.15 571.67 26 571.761 25.85C571.807 25.775 571.875 25.725 571.92 25.65C571.966 25.575 572.057 25.55 572.125 25.5L572.261 25.775C572.193 25.825 572.125 25.875 572.08 25.925C572.034 25.975 571.989 26 571.966 26.05C571.92 26.1 571.92 26.15 571.92 26.2C571.92 26.25 571.943 26.3 571.989 26.325C572.011 26.35 572.034 26.35 572.057 26.35C572.08 26.35 572.102 26.35 572.148 26.325C572.193 26.3 572.261 26.275 572.352 26.2C572.489 26.125 572.602 26.075 572.693 26.075C572.784 26.15 572.852 26.175 572.943 26.25Z" fill="black"></path> <path d="M573.996 25.875L572.75 24.6292L573.004 24.375L574.25 25.6208L573.996 25.875Z" fill="black"></path> <path d="M575.375 24.903L575.044 25.125L574.107 23.9901L573.693 24.2615L573.5 24.0148L574.658 23.25L574.851 23.4967L574.437 23.7681L575.375 24.903Z" fill="black"></path> <path d="M576.875 23.6016L576.057 24L575.375 22.5234L576.193 22.125L576.307 22.3828L575.784 22.6406L575.943 22.9688L576.42 22.7344L576.534 22.9922L576.057 23.2266L576.239 23.6016L576.761 23.3438L576.875 23.6016Z" fill="black"></path> <path d="M580.619 22.2349C580.642 22.5194 580.596 22.7781 580.482 22.9333C580.367 23.0885 580.184 23.2178 579.955 23.2436C579.703 23.2695 579.52 23.2178 579.383 23.0626C579.245 22.9074 579.154 22.7005 579.131 22.3901C579.108 22.0797 579.154 21.8469 579.268 21.6917C579.383 21.5365 579.566 21.4331 579.795 21.3814C580.047 21.3555 580.23 21.4072 580.367 21.5624C580.505 21.7176 580.596 21.9245 580.619 22.2349ZM579.474 22.3642C579.497 22.5712 579.543 22.7005 579.612 22.8039C579.68 22.9074 579.795 22.9333 579.932 22.9333C580.207 22.9074 580.322 22.6746 580.276 22.2866C580.23 21.8728 580.093 21.6917 579.818 21.7176C579.68 21.7435 579.589 21.7952 579.52 21.8987C579.451 22.0021 579.451 22.1573 579.474 22.3642Z" fill="black"></path> <path d="M581.717 23.25L581.375 23.2232L581.546 21.375L582.5 21.4821L582.476 21.8036L581.864 21.7232L581.815 22.2054L582.378 22.2589L582.353 22.5804L581.791 22.5268L581.717 23.25Z" fill="black"></path> <path d="M585.075 24L584.75 23.8539L585.35 22.5877L584.925 22.3929L585.05 22.125L586.25 22.6607L586.125 22.9286L585.7 22.7338L585.075 24Z" fill="black"></path> <path d="M587.065 25.5L586.754 25.275L587.22 24.675L586.651 24.275L586.185 24.875L585.875 24.65L586.935 23.25L587.246 23.475L586.832 24.025L587.401 24.425L587.815 23.875L588.125 24.1L587.065 25.5Z" fill="black"></path> <path d="M588.391 26.625L587.75 25.8849L588.984 24.75L589.625 25.4901L589.411 25.6875L589.008 25.2187L588.747 25.4655L589.127 25.8849L588.913 26.0822L588.533 25.6628L588.225 25.9589L588.628 26.4276L588.391 26.625Z" fill="black"></path> <path d="M590.986 29.5294C590.714 29.6372 590.491 29.6642 590.293 29.5563C590.095 29.4485 589.922 29.2598 589.823 28.9632L589.625 28.4779L591.209 27.75L591.407 28.2892C591.506 28.5588 591.531 28.8284 591.457 29.0441C591.383 29.2598 591.234 29.4215 590.986 29.5294ZM590.813 29.1519C591.16 28.9902 591.259 28.7475 591.135 28.424L591.061 28.2353L590.021 28.6936L590.071 28.8554C590.244 29.2059 590.467 29.3137 590.813 29.1519Z" fill="black"></path> <path d="M590.597 31.1591L590.967 30.9773L590.868 30.4091L590.449 30.3636L590.375 30L592.176 30.2727L592.25 30.6818L590.671 31.5L590.597 31.1591ZM591.263 30.8409C591.609 30.6818 591.806 30.5909 591.855 30.5682C591.905 30.5455 591.929 30.5227 591.954 30.5227C591.855 30.5227 591.584 30.5 591.189 30.4318L591.263 30.8409Z" fill="black"></path> <path d="M591.473 32.9877L592.223 33.3566V33.75L591.098 33.1598L590.375 33.1352V32.7664L591.098 32.791L592.25 32.25V32.6434L591.473 32.9877Z" fill="black"></path> <path d="M573.848 42.0872L574.063 41.6424L573.527 41.1715L573.098 41.4331L572.75 41.1453L574.625 40.125L575 40.4651L574.196 42.375L573.848 42.0872ZM574.223 41.3023C574.411 40.9099 574.518 40.6744 574.545 40.6221C574.571 40.5698 574.598 40.5174 574.598 40.4913C574.491 40.5698 574.25 40.7006 573.821 40.9622L574.223 41.3023Z" fill="black"></path> <path d="M576.412 43.875L576.015 43.675L576.213 42.675C576.213 42.65 576.238 42.575 576.263 42.45C576.288 42.35 576.313 42.275 576.337 42.225C576.313 42.275 576.263 42.325 576.213 42.4C576.139 42.475 576.114 42.55 576.065 42.575L575.396 43.35L575 43.15L575.396 41.25L575.743 41.425L575.495 42.45C575.446 42.65 575.396 42.8 575.347 42.925C575.371 42.875 575.421 42.825 575.471 42.75C575.52 42.675 575.594 42.6 575.619 42.55L576.337 41.725L576.659 41.9L576.436 42.975C576.436 43.025 576.412 43.1 576.387 43.2C576.362 43.3 576.337 43.375 576.313 43.45C576.337 43.4 576.387 43.325 576.461 43.25C576.511 43.175 576.56 43.1 576.61 43.05L577.278 42.25L577.625 42.425L576.412 43.875Z" fill="black"></path> <path d="M579.452 44.5166L579.4 44.0015L578.687 43.866L578.449 44.3268L578 44.2455L579.056 42.375L579.558 42.4834L579.875 44.625L579.452 44.5166ZM579.373 43.6491C579.32 43.1883 579.294 42.9443 579.294 42.863C579.294 42.7816 579.294 42.7545 579.294 42.7274C579.241 42.8358 579.109 43.1069 578.871 43.5407L579.373 43.6491Z" fill="black"></path> <path d="M581.054 43.9095L581.077 44.625H580.696L580.625 42.7747L581.149 42.75C581.387 42.75 581.577 42.7747 581.696 42.8734C581.815 42.972 581.887 43.0954 581.887 43.2928C581.887 43.3914 581.863 43.4901 581.815 43.5888C581.768 43.6875 581.673 43.7368 581.577 43.7862C581.863 44.1809 582.054 44.4523 582.125 44.5757L581.696 44.6003L581.244 43.9095H581.054ZM581.03 43.5888H581.149C581.268 43.5888 581.363 43.5641 581.411 43.5148C581.458 43.4655 581.482 43.4161 581.482 43.3174C581.482 43.2187 581.458 43.1694 581.387 43.1447C581.315 43.1201 581.244 43.0954 581.125 43.0954H581.006L581.03 43.5888Z" fill="black"></path> <path d="M584.704 42.9851C584.783 43.2662 584.757 43.5004 584.651 43.6878C584.545 43.8752 584.28 44.0158 583.935 44.1095L583.405 44.25L582.875 42.5635L583.485 42.423C583.803 42.3527 584.068 42.3527 584.28 42.4698C584.465 42.5401 584.624 42.704 584.704 42.9851ZM584.28 43.0788C584.174 42.704 583.935 42.5869 583.564 42.6572L583.352 42.704L583.697 43.805L583.882 43.7581C584.28 43.6878 584.412 43.4536 584.28 43.0788Z" fill="black"></path> <path d="M586.625 42.9569L585.662 43.5L584.75 41.7931L585.713 41.25L585.865 41.5345L585.257 41.8707L585.459 42.2586L586.017 41.9483L586.169 42.2328L585.611 42.5431L585.84 42.9828L586.448 42.6466L586.625 42.9569Z" fill="black"></path> <path d="M588.198 40.4809C588.415 40.7244 588.523 40.995 588.496 41.2385C588.469 41.5091 588.334 41.7526 588.063 41.9691L587.603 42.375L586.25 40.8326L586.737 40.4267C586.981 40.2103 587.224 40.102 587.495 40.1291C587.738 40.1291 587.982 40.2373 588.198 40.4809ZM587.846 40.7785C587.549 40.4538 587.278 40.3997 586.981 40.6703L586.818 40.8326L587.684 41.8338L587.819 41.7256C588.144 41.4279 588.144 41.1303 587.846 40.7785Z" fill="black"></path> </g> <path d="M641.151 28.484C640.479 28.484 639.897 28.61 639.405 28.862C638.925 29.114 638.529 29.45 638.217 29.87C637.905 30.29 637.671 30.782 637.515 31.346C637.371 31.898 637.299 32.48 637.299 33.092C637.299 33.716 637.377 34.31 637.533 34.874C637.689 35.438 637.923 35.936 638.235 36.368C638.559 36.788 638.967 37.124 639.459 37.376C639.951 37.628 640.533 37.754 641.205 37.754C642.033 37.754 642.723 37.574 643.275 37.214C643.839 36.854 644.193 36.368 644.337 35.756H646.425C646.329 36.368 646.125 36.914 645.813 37.394C645.513 37.874 645.135 38.282 644.679 38.618C644.223 38.942 643.695 39.194 643.095 39.374C642.495 39.542 641.853 39.626 641.169 39.626C640.173 39.626 639.297 39.464 638.541 39.14C637.797 38.816 637.173 38.366 636.669 37.79C636.165 37.214 635.787 36.53 635.535 35.738C635.283 34.946 635.157 34.076 635.157 33.128C635.157 32.204 635.283 31.346 635.535 30.554C635.799 29.75 636.183 29.06 636.687 28.484C637.191 27.896 637.815 27.44 638.559 27.116C639.315 26.78 640.191 26.612 641.187 26.612C642.591 26.612 643.749 26.942 644.661 27.602C645.573 28.262 646.125 29.234 646.317 30.518H644.265C644.109 29.894 643.761 29.402 643.221 29.042C642.681 28.67 641.991 28.484 641.151 28.484ZM653.154 28.466C652.878 28.466 652.596 28.49 652.308 28.538C652.02 28.586 651.756 28.676 651.516 28.808C651.276 28.928 651.078 29.102 650.922 29.33C650.766 29.546 650.688 29.822 650.688 30.158C650.688 30.662 650.856 31.046 651.192 31.31C651.528 31.562 651.93 31.754 652.398 31.886C652.734 31.982 653.07 32.072 653.406 32.156C653.754 32.24 654.072 32.312 654.36 32.372C654.864 32.48 655.338 32.612 655.782 32.768C656.238 32.924 656.634 33.134 656.97 33.398C657.306 33.65 657.57 33.974 657.762 34.37C657.966 34.754 658.068 35.234 658.068 35.81C658.068 36.494 657.942 37.076 657.69 37.556C657.45 38.036 657.12 38.432 656.7 38.744C656.28 39.056 655.788 39.284 655.224 39.428C654.66 39.572 654.054 39.644 653.406 39.644C652.746 39.644 652.116 39.578 651.516 39.446C650.928 39.302 650.4 39.08 649.932 38.78C649.464 38.468 649.074 38.072 648.762 37.592C648.45 37.112 648.252 36.536 648.168 35.864H650.328C650.424 36.224 650.58 36.524 650.796 36.764C651.012 37.004 651.258 37.196 651.534 37.34C651.822 37.484 652.128 37.586 652.452 37.646C652.776 37.706 653.094 37.736 653.406 37.736C653.742 37.736 654.066 37.712 654.378 37.664C654.69 37.604 654.96 37.508 655.188 37.376C655.416 37.244 655.602 37.07 655.746 36.854C655.89 36.638 655.962 36.356 655.962 36.008C655.962 35.528 655.836 35.18 655.584 34.964C655.332 34.736 654.996 34.568 654.576 34.46C654 34.292 653.406 34.148 652.794 34.028C652.194 33.896 651.624 33.728 651.084 33.524C650.724 33.392 650.394 33.236 650.094 33.056C649.794 32.876 649.53 32.66 649.302 32.408C649.074 32.156 648.894 31.862 648.762 31.526C648.642 31.178 648.582 30.776 648.582 30.32C648.582 29.624 648.714 29.042 648.978 28.574C649.242 28.094 649.584 27.71 650.004 27.422C650.436 27.134 650.922 26.93 651.462 26.81C652.002 26.678 652.554 26.612 653.118 26.612C653.718 26.612 654.288 26.684 654.828 26.828C655.368 26.96 655.848 27.17 656.268 27.458C656.688 27.746 657.024 28.118 657.276 28.574C657.54 29.03 657.696 29.582 657.744 30.23H655.692C655.644 29.906 655.542 29.636 655.386 29.42C655.242 29.204 655.056 29.03 654.828 28.898C654.612 28.754 654.36 28.652 654.072 28.592C653.784 28.52 653.478 28.478 653.154 28.466ZM665.09 28.466C664.814 28.466 664.532 28.49 664.244 28.538C663.956 28.586 663.692 28.676 663.452 28.808C663.212 28.928 663.014 29.102 662.858 29.33C662.702 29.546 662.624 29.822 662.624 30.158C662.624 30.662 662.792 31.046 663.128 31.31C663.464 31.562 663.866 31.754 664.334 31.886C664.67 31.982 665.006 32.072 665.342 32.156C665.69 32.24 666.008 32.312 666.296 32.372C666.8 32.48 667.274 32.612 667.718 32.768C668.174 32.924 668.57 33.134 668.906 33.398C669.242 33.65 669.506 33.974 669.698 34.37C669.902 34.754 670.004 35.234 670.004 35.81C670.004 36.494 669.878 37.076 669.626 37.556C669.386 38.036 669.056 38.432 668.636 38.744C668.216 39.056 667.724 39.284 667.16 39.428C666.596 39.572 665.99 39.644 665.342 39.644C664.682 39.644 664.052 39.578 663.452 39.446C662.864 39.302 662.336 39.08 661.868 38.78C661.4 38.468 661.01 38.072 660.698 37.592C660.386 37.112 660.188 36.536 660.104 35.864H662.264C662.36 36.224 662.516 36.524 662.732 36.764C662.948 37.004 663.194 37.196 663.47 37.34C663.758 37.484 664.064 37.586 664.388 37.646C664.712 37.706 665.03 37.736 665.342 37.736C665.678 37.736 666.002 37.712 666.314 37.664C666.626 37.604 666.896 37.508 667.124 37.376C667.352 37.244 667.538 37.07 667.682 36.854C667.826 36.638 667.898 36.356 667.898 36.008C667.898 35.528 667.772 35.18 667.52 34.964C667.268 34.736 666.932 34.568 666.512 34.46C665.936 34.292 665.342 34.148 664.73 34.028C664.13 33.896 663.56 33.728 663.02 33.524C662.66 33.392 662.33 33.236 662.03 33.056C661.73 32.876 661.466 32.66 661.238 32.408C661.01 32.156 660.83 31.862 660.698 31.526C660.578 31.178 660.518 30.776 660.518 30.32C660.518 29.624 660.65 29.042 660.914 28.574C661.178 28.094 661.52 27.71 661.94 27.422C662.372 27.134 662.858 26.93 663.398 26.81C663.938 26.678 664.49 26.612 665.054 26.612C665.654 26.612 666.224 26.684 666.764 26.828C667.304 26.96 667.784 27.17 668.204 27.458C668.624 27.746 668.96 28.118 669.212 28.574C669.476 29.03 669.632 29.582 669.68 30.23H667.628C667.58 29.906 667.478 29.636 667.322 29.42C667.178 29.204 666.992 29.03 666.764 28.898C666.548 28.754 666.296 28.652 666.008 28.592C665.72 28.52 665.414 28.478 665.09 28.466ZM677.29 26.774H681.898C682.906 26.774 683.794 26.924 684.562 27.224C685.342 27.512 685.99 27.932 686.506 28.484C687.034 29.024 687.43 29.69 687.694 30.482C687.958 31.274 688.09 32.162 688.09 33.146C688.09 34.142 687.958 35.03 687.694 35.81C687.43 36.59 687.04 37.256 686.524 37.808C686.02 38.36 685.384 38.78 684.616 39.068C683.86 39.356 682.978 39.5 681.97 39.5H677.29V26.774ZM679.378 28.646V37.646H681.916C682.612 37.646 683.212 37.538 683.716 37.322C684.22 37.106 684.634 36.806 684.958 36.422C685.294 36.026 685.54 35.552 685.696 35C685.864 34.448 685.948 33.83 685.948 33.146C685.948 31.73 685.6 30.626 684.904 29.834C684.22 29.042 683.218 28.646 681.898 28.646H679.378ZM690.351 26.774H699.189V28.646H692.439V32.264H698.415V34.154H692.439V37.646H699.189V39.5H690.351V26.774ZM705.889 28.466C705.613 28.466 705.331 28.49 705.043 28.538C704.755 28.586 704.491 28.676 704.251 28.808C704.011 28.928 703.813 29.102 703.657 29.33C703.501 29.546 703.423 29.822 703.423 30.158C703.423 30.662 703.591 31.046 703.927 31.31C704.263 31.562 704.665 31.754 705.133 31.886C705.469 31.982 705.805 32.072 706.141 32.156C706.489 32.24 706.807 32.312 707.095 32.372C707.599 32.48 708.073 32.612 708.517 32.768C708.973 32.924 709.369 33.134 709.705 33.398C710.041 33.65 710.305 33.974 710.497 34.37C710.701 34.754 710.803 35.234 710.803 35.81C710.803 36.494 710.677 37.076 710.425 37.556C710.185 38.036 709.855 38.432 709.435 38.744C709.015 39.056 708.523 39.284 707.959 39.428C707.395 39.572 706.789 39.644 706.141 39.644C705.481 39.644 704.851 39.578 704.251 39.446C703.663 39.302 703.135 39.08 702.667 38.78C702.199 38.468 701.809 38.072 701.497 37.592C701.185 37.112 700.987 36.536 700.903 35.864H703.063C703.159 36.224 703.315 36.524 703.531 36.764C703.747 37.004 703.993 37.196 704.269 37.34C704.557 37.484 704.863 37.586 705.187 37.646C705.511 37.706 705.829 37.736 706.141 37.736C706.477 37.736 706.801 37.712 707.113 37.664C707.425 37.604 707.695 37.508 707.923 37.376C708.151 37.244 708.337 37.07 708.481 36.854C708.625 36.638 708.697 36.356 708.697 36.008C708.697 35.528 708.571 35.18 708.319 34.964C708.067 34.736 707.731 34.568 707.311 34.46C706.735 34.292 706.141 34.148 705.529 34.028C704.929 33.896 704.359 33.728 703.819 33.524C703.459 33.392 703.129 33.236 702.829 33.056C702.529 32.876 702.265 32.66 702.037 32.408C701.809 32.156 701.629 31.862 701.497 31.526C701.377 31.178 701.317 30.776 701.317 30.32C701.317 29.624 701.449 29.042 701.713 28.574C701.977 28.094 702.319 27.71 702.739 27.422C703.171 27.134 703.657 26.93 704.197 26.81C704.737 26.678 705.289 26.612 705.853 26.612C706.453 26.612 707.023 26.684 707.563 26.828C708.103 26.96 708.583 27.17 709.003 27.458C709.423 27.746 709.759 28.118 710.011 28.574C710.275 29.03 710.431 29.582 710.479 30.23H708.427C708.379 29.906 708.277 29.636 708.121 29.42C707.977 29.204 707.791 29.03 707.563 28.898C707.347 28.754 707.095 28.652 706.807 28.592C706.519 28.52 706.213 28.478 705.889 28.466ZM715.326 39.5H713.238V26.774H715.326V39.5ZM723.521 28.484C722.849 28.496 722.273 28.628 721.793 28.88C721.313 29.132 720.917 29.468 720.605 29.888C720.305 30.308 720.083 30.8 719.939 31.364C719.795 31.916 719.723 32.504 719.723 33.128C719.723 33.752 719.795 34.346 719.939 34.91C720.095 35.462 720.329 35.954 720.641 36.386C720.965 36.806 721.373 37.142 721.865 37.394C722.357 37.634 722.939 37.754 723.611 37.754C724.703 37.754 725.549 37.472 726.149 36.908C726.761 36.332 727.079 35.588 727.103 34.676H723.377V32.912H729.101C729.101 33.368 729.089 33.83 729.065 34.298C729.053 34.754 728.987 35.234 728.867 35.738C728.723 36.278 728.513 36.788 728.237 37.268C727.961 37.736 727.607 38.144 727.175 38.492C726.743 38.84 726.227 39.116 725.627 39.32C725.039 39.524 724.361 39.626 723.593 39.626C722.597 39.626 721.721 39.47 720.965 39.158C720.221 38.834 719.597 38.384 719.093 37.808C718.589 37.232 718.211 36.548 717.959 35.756C717.707 34.964 717.581 34.1 717.581 33.164C717.581 32.216 717.707 31.34 717.959 30.536C718.211 29.732 718.583 29.042 719.075 28.466C719.579 27.878 720.203 27.422 720.947 27.098C721.703 26.774 722.579 26.612 723.575 26.612C724.271 26.612 724.913 26.702 725.501 26.882C726.101 27.05 726.629 27.302 727.085 27.638C727.541 27.962 727.919 28.37 728.219 28.862C728.519 29.342 728.717 29.894 728.813 30.518H726.707C726.551 29.882 726.185 29.384 725.609 29.024C725.045 28.664 724.349 28.484 723.521 28.484ZM731.343 39.5V26.774H733.593L739.929 36.332V26.774H741.999V39.5H739.767L733.395 29.978V39.5H731.343ZM758.35 39.5L757.414 36.926H751.636L750.682 39.5H748.414L753.238 26.774H755.83L760.636 39.5H758.35ZM756.766 35.054L754.534 28.826L752.284 35.054H756.766ZM770.503 26.774L772.789 37.43L775.201 26.774H777.451L774.247 39.5H771.295L768.973 28.88L766.651 39.5H763.663L760.351 26.774H762.727L765.193 37.43L767.515 26.774H770.503ZM787.09 39.5L786.154 36.926H780.376L779.422 39.5H777.154L781.978 26.774H784.57L789.376 39.5H787.09ZM785.506 35.054L783.274 28.826L781.024 35.054H785.506ZM793.039 34.838V39.5H790.951V26.774H795.901C796.561 26.774 797.179 26.84 797.755 26.972C798.331 27.104 798.829 27.326 799.249 27.638C799.681 27.95 800.017 28.364 800.257 28.88C800.509 29.396 800.635 30.032 800.635 30.788C800.635 31.304 800.557 31.778 800.401 32.21C800.257 32.63 800.059 33.002 799.807 33.326C799.555 33.638 799.261 33.902 798.925 34.118C798.589 34.322 798.229 34.472 797.845 34.568L800.599 39.5H798.277C797.857 38.72 797.431 37.946 796.999 37.178C796.579 36.398 796.153 35.618 795.721 34.838H793.039ZM795.613 33.02C796.021 33.02 796.405 32.984 796.765 32.912C797.125 32.84 797.437 32.72 797.701 32.552C797.965 32.384 798.169 32.156 798.313 31.868C798.469 31.568 798.547 31.19 798.547 30.734C798.547 30.326 798.481 29.99 798.349 29.726C798.229 29.462 798.049 29.252 797.809 29.096C797.569 28.928 797.281 28.814 796.945 28.754C796.609 28.682 796.237 28.646 795.829 28.646H793.039V33.02H795.613ZM802.974 26.774H807.582C808.59 26.774 809.478 26.924 810.246 27.224C811.026 27.512 811.674 27.932 812.19 28.484C812.718 29.024 813.114 29.69 813.378 30.482C813.642 31.274 813.774 32.162 813.774 33.146C813.774 34.142 813.642 35.03 813.378 35.81C813.114 36.59 812.724 37.256 812.208 37.808C811.704 38.36 811.068 38.78 810.3 39.068C809.544 39.356 808.662 39.5 807.654 39.5H802.974V26.774ZM805.062 28.646V37.646H807.6C808.296 37.646 808.896 37.538 809.4 37.322C809.904 37.106 810.318 36.806 810.642 36.422C810.978 36.026 811.224 35.552 811.38 35C811.548 34.448 811.632 33.83 811.632 33.146C811.632 31.73 811.284 30.626 810.588 29.834C809.904 29.042 808.902 28.646 807.582 28.646H805.062ZM820.744 28.466C820.468 28.466 820.186 28.49 819.898 28.538C819.61 28.586 819.346 28.676 819.106 28.808C818.866 28.928 818.668 29.102 818.512 29.33C818.356 29.546 818.278 29.822 818.278 30.158C818.278 30.662 818.446 31.046 818.782 31.31C819.118 31.562 819.52 31.754 819.988 31.886C820.324 31.982 820.66 32.072 820.996 32.156C821.344 32.24 821.662 32.312 821.95 32.372C822.454 32.48 822.928 32.612 823.372 32.768C823.828 32.924 824.224 33.134 824.56 33.398C824.896 33.65 825.16 33.974 825.352 34.37C825.556 34.754 825.658 35.234 825.658 35.81C825.658 36.494 825.532 37.076 825.28 37.556C825.04 38.036 824.71 38.432 824.29 38.744C823.87 39.056 823.378 39.284 822.814 39.428C822.25 39.572 821.644 39.644 820.996 39.644C820.336 39.644 819.706 39.578 819.106 39.446C818.518 39.302 817.99 39.08 817.522 38.78C817.054 38.468 816.664 38.072 816.352 37.592C816.04 37.112 815.842 36.536 815.758 35.864H817.918C818.014 36.224 818.17 36.524 818.386 36.764C818.602 37.004 818.848 37.196 819.124 37.34C819.412 37.484 819.718 37.586 820.042 37.646C820.366 37.706 820.684 37.736 820.996 37.736C821.332 37.736 821.656 37.712 821.968 37.664C822.28 37.604 822.55 37.508 822.778 37.376C823.006 37.244 823.192 37.07 823.336 36.854C823.48 36.638 823.552 36.356 823.552 36.008C823.552 35.528 823.426 35.18 823.174 34.964C822.922 34.736 822.586 34.568 822.166 34.46C821.59 34.292 820.996 34.148 820.384 34.028C819.784 33.896 819.214 33.728 818.674 33.524C818.314 33.392 817.984 33.236 817.684 33.056C817.384 32.876 817.12 32.66 816.892 32.408C816.664 32.156 816.484 31.862 816.352 31.526C816.232 31.178 816.172 30.776 816.172 30.32C816.172 29.624 816.304 29.042 816.568 28.574C816.832 28.094 817.174 27.71 817.594 27.422C818.026 27.134 818.512 26.93 819.052 26.81C819.592 26.678 820.144 26.612 820.708 26.612C821.308 26.612 821.878 26.684 822.418 26.828C822.958 26.96 823.438 27.17 823.858 27.458C824.278 27.746 824.614 28.118 824.866 28.574C825.13 29.03 825.286 29.582 825.334 30.23H823.282C823.234 29.906 823.132 29.636 822.976 29.42C822.832 29.204 822.646 29.03 822.418 28.898C822.202 28.754 821.95 28.652 821.662 28.592C821.374 28.52 821.068 28.478 820.744 28.466Z" fill="black"></path> <rect x="880" width="301" height="67" rx="33.5" fill="#F8F8F8"></rect> <circle cx="910" cy="33" r="22" fill="#F8F8F8"></circle> <path fill-rule="evenodd" clip-rule="evenodd" d="M915.742 27.0139C915.196 27.0178 914.74 27.0293 914.729 27.0396C914.712 27.0559 914.5 27.7677 914.258 28.6291C914.188 28.8756 913.016 32.9792 912.8 33.7344C912.754 33.8946 912.654 34.2424 912.578 34.5071C912.398 35.134 912.393 35.1489 912.374 35.1026C912.366 35.0816 912.22 34.5458 912.049 33.9117C911.879 33.2777 911.538 32.0121 911.291 31.0994C911.044 30.1867 910.698 28.9064 910.522 28.2544C910.346 27.6024 910.195 27.058 910.186 27.0446C910.175 27.0295 909.615 27.0203 908.715 27.0203H907.261L907.235 27.0773C907.22 27.1086 907.049 27.7271 906.855 28.4518C906.661 29.1764 906.301 30.5103 906.056 31.4161C905.811 32.3219 905.497 33.4848 905.358 34.0004C905.067 35.0806 905.052 35.1361 905.038 35.1241C905.03 35.1161 904.214 32.2825 904.058 31.7201C903.862 31.0118 902.727 27.0627 902.714 27.0433C902.695 27.0155 899.52 27.0115 899.503 27.0393C899.489 27.0602 899.511 27.1265 900.07 28.7178C900.283 29.324 900.642 30.3501 900.868 30.9981C901.095 31.646 901.416 32.5638 901.582 33.0376C901.748 33.5114 902.076 34.4463 902.31 35.1152C903.329 38.032 903.606 38.8166 903.627 38.8523C903.646 38.8853 903.832 38.8905 905.037 38.8914C905.967 38.892 906.433 38.8836 906.448 38.866C906.461 38.8515 906.525 38.6515 906.591 38.4216C906.745 37.8862 906.843 37.5484 907.547 35.1279C907.639 34.8144 907.783 34.3184 907.868 34.0258C907.953 33.7331 908.11 33.1916 908.218 32.8223C908.325 32.453 908.47 31.9513 908.54 31.7075C908.61 31.4636 908.676 31.2494 908.687 31.2314C908.698 31.2133 908.753 31.36 908.81 31.5608C908.924 31.9594 909.283 33.193 909.487 33.8864C909.558 34.1303 909.673 34.5208 909.741 34.7542C909.809 34.9876 909.921 35.3724 909.991 35.6093C910.275 36.5832 910.374 36.9226 910.575 37.6109C910.691 38.008 910.819 38.4499 910.861 38.5929L910.937 38.8528L912.35 38.8462L913.763 38.8397L913.841 38.6243C913.883 38.5059 914.109 37.8617 914.342 37.1928C914.576 36.5239 914.903 35.589 915.069 35.1152C915.235 34.6414 915.556 33.7236 915.783 33.0756C916.195 31.895 916.685 30.4986 917.35 28.6038C917.754 27.4539 917.895 27.0413 917.895 27.0139C917.895 27.0035 917.634 26.9976 917.315 27.0009C916.995 27.0042 916.288 27.0101 915.742 27.0139ZM922.4 35.091C921.375 35.289 920.693 36.0629 920.694 37.0281C920.695 37.6147 920.909 38.0931 921.34 38.4728C922.104 39.1452 923.456 39.1794 924.263 38.5466C924.86 38.079 925.12 37.3304 924.948 36.5753C924.803 35.9378 924.333 35.4226 923.691 35.1969C923.288 35.0555 922.795 35.0149 922.4 35.091Z" fill="black"></path> <path d="M969.159 28.466C968.883 28.466 968.601 28.49 968.313 28.538C968.025 28.586 967.761 28.676 967.521 28.808C967.281 28.928 967.083 29.102 966.927 29.33C966.771 29.546 966.693 29.822 966.693 30.158C966.693 30.662 966.861 31.046 967.197 31.31C967.533 31.562 967.935 31.754 968.403 31.886C968.739 31.982 969.075 32.072 969.411 32.156C969.759 32.24 970.077 32.312 970.365 32.372C970.869 32.48 971.343 32.612 971.787 32.768C972.243 32.924 972.639 33.134 972.975 33.398C973.311 33.65 973.575 33.974 973.767 34.37C973.971 34.754 974.073 35.234 974.073 35.81C974.073 36.494 973.947 37.076 973.695 37.556C973.455 38.036 973.125 38.432 972.705 38.744C972.285 39.056 971.793 39.284 971.229 39.428C970.665 39.572 970.059 39.644 969.411 39.644C968.751 39.644 968.121 39.578 967.521 39.446C966.933 39.302 966.405 39.08 965.937 38.78C965.469 38.468 965.079 38.072 964.767 37.592C964.455 37.112 964.257 36.536 964.173 35.864H966.333C966.429 36.224 966.585 36.524 966.801 36.764C967.017 37.004 967.263 37.196 967.539 37.34C967.827 37.484 968.133 37.586 968.457 37.646C968.781 37.706 969.099 37.736 969.411 37.736C969.747 37.736 970.071 37.712 970.383 37.664C970.695 37.604 970.965 37.508 971.193 37.376C971.421 37.244 971.607 37.07 971.751 36.854C971.895 36.638 971.967 36.356 971.967 36.008C971.967 35.528 971.841 35.18 971.589 34.964C971.337 34.736 971.001 34.568 970.581 34.46C970.005 34.292 969.411 34.148 968.799 34.028C968.199 33.896 967.629 33.728 967.089 33.524C966.729 33.392 966.399 33.236 966.099 33.056C965.799 32.876 965.535 32.66 965.307 32.408C965.079 32.156 964.899 31.862 964.767 31.526C964.647 31.178 964.587 30.776 964.587 30.32C964.587 29.624 964.719 29.042 964.983 28.574C965.247 28.094 965.589 27.71 966.009 27.422C966.441 27.134 966.927 26.93 967.467 26.81C968.007 26.678 968.559 26.612 969.123 26.612C969.723 26.612 970.293 26.684 970.833 26.828C971.373 26.96 971.853 27.17 972.273 27.458C972.693 27.746 973.029 28.118 973.281 28.574C973.545 29.03 973.701 29.582 973.749 30.23H971.697C971.649 29.906 971.547 29.636 971.391 29.42C971.247 29.204 971.061 29.03 970.833 28.898C970.617 28.754 970.365 28.652 970.077 28.592C969.789 28.52 969.483 28.478 969.159 28.466ZM978.596 39.5H976.508V26.774H978.596V39.5ZM984.271 39.5V28.646H980.239V26.774H990.409V28.646H986.359V39.5H984.271ZM992.047 26.774H1000.89V28.646H994.135V32.264H1000.11V34.154H994.135V37.646H1000.89V39.5H992.047V26.774ZM1013.43 39.626C1012.43 39.626 1011.55 39.464 1010.78 39.14C1010.02 38.804 1009.39 38.348 1008.87 37.772C1008.36 37.196 1007.96 36.512 1007.68 35.72C1007.42 34.928 1007.29 34.064 1007.29 33.128C1007.29 32.18 1007.43 31.31 1007.7 30.518C1007.98 29.714 1008.37 29.024 1008.89 28.448C1009.42 27.872 1010.06 27.422 1010.82 27.098C1011.58 26.774 1012.46 26.612 1013.44 26.612C1014.43 26.612 1015.3 26.774 1016.05 27.098C1016.82 27.41 1017.46 27.854 1017.98 28.43C1018.51 29.006 1018.9 29.696 1019.17 30.5C1019.44 31.292 1019.58 32.162 1019.58 33.11C1019.58 34.046 1019.44 34.916 1019.17 35.72C1018.9 36.512 1018.51 37.196 1017.98 37.772C1017.46 38.348 1016.82 38.804 1016.05 39.14C1015.29 39.464 1014.41 39.626 1013.43 39.626ZM1013.44 28.484C1012.76 28.484 1012.17 28.61 1011.66 28.862C1011.17 29.114 1010.76 29.45 1010.42 29.87C1010.08 30.29 1009.83 30.782 1009.66 31.346C1009.51 31.91 1009.43 32.498 1009.43 33.11C1009.43 33.722 1009.51 34.31 1009.66 34.874C1009.83 35.426 1010.08 35.918 1010.4 36.35C1010.74 36.782 1011.16 37.124 1011.66 37.376C1012.17 37.628 1012.76 37.754 1013.44 37.754C1014.12 37.754 1014.7 37.634 1015.21 37.394C1015.71 37.142 1016.13 36.806 1016.45 36.386C1016.79 35.966 1017.03 35.48 1017.19 34.928C1017.36 34.364 1017.44 33.764 1017.44 33.128C1017.44 32.504 1017.36 31.916 1017.19 31.364C1017.03 30.8 1016.79 30.308 1016.45 29.888C1016.13 29.456 1015.71 29.114 1015.21 28.862C1014.72 28.61 1014.13 28.484 1013.44 28.484ZM1021.82 39.5V26.774H1030.55V28.646H1023.91V32.678H1029.6V34.532H1023.91V39.5H1021.82ZM1040.17 39.5V28.646H1036.14V26.774H1046.31V28.646H1042.26V39.5H1040.17ZM1056.26 32.3V26.774H1058.35V39.5H1056.26V34.172H1050.03V39.5H1047.95V26.774H1050.03V32.3H1056.26ZM1061.31 26.774H1070.14V28.646H1063.39V32.264H1069.37V34.154H1063.39V37.646H1070.14V39.5H1061.31V26.774ZM1077.25 39.5V26.774H1079.88L1083.67 33.29L1087.44 26.774H1089.99V39.5H1087.92V29.582L1084.09 36.188H1083.15L1079.32 29.582V39.5H1077.25ZM1098.38 39.626C1097.39 39.626 1096.5 39.464 1095.74 39.14C1094.98 38.804 1094.34 38.348 1093.83 37.772C1093.31 37.196 1092.92 36.512 1092.64 35.72C1092.38 34.928 1092.24 34.064 1092.24 33.128C1092.24 32.18 1092.38 31.31 1092.66 30.518C1092.93 29.714 1093.33 29.024 1093.85 28.448C1094.37 27.872 1095.02 27.422 1095.77 27.098C1096.54 26.774 1097.42 26.612 1098.4 26.612C1099.38 26.612 1100.25 26.774 1101.01 27.098C1101.78 27.41 1102.42 27.854 1102.94 28.43C1103.46 29.006 1103.86 29.696 1104.12 30.5C1104.4 31.292 1104.54 32.162 1104.54 33.11C1104.54 34.046 1104.4 34.916 1104.12 35.72C1103.86 36.512 1103.46 37.196 1102.94 37.772C1102.42 38.348 1101.78 38.804 1101.01 39.14C1100.24 39.464 1099.37 39.626 1098.38 39.626ZM1098.4 28.484C1097.72 28.484 1097.12 28.61 1096.62 28.862C1096.13 29.114 1095.71 29.45 1095.38 29.87C1095.04 30.29 1094.79 30.782 1094.62 31.346C1094.46 31.91 1094.39 32.498 1094.39 33.11C1094.39 33.722 1094.46 34.31 1094.62 34.874C1094.79 35.426 1095.03 35.918 1095.36 36.35C1095.69 36.782 1096.11 37.124 1096.62 37.376C1097.12 37.628 1097.72 37.754 1098.4 37.754C1099.07 37.754 1099.66 37.634 1100.16 37.394C1100.67 37.142 1101.08 36.806 1101.41 36.386C1101.74 35.966 1101.99 35.48 1102.14 34.928C1102.31 34.364 1102.4 33.764 1102.4 33.128C1102.4 32.504 1102.31 31.916 1102.14 31.364C1101.99 30.8 1101.74 30.308 1101.41 29.888C1101.08 29.456 1100.67 29.114 1100.16 28.862C1099.67 28.61 1099.08 28.484 1098.4 28.484ZM1106.78 39.5V26.774H1109.03L1115.37 36.332V26.774H1117.44V39.5H1115.2L1108.83 29.978V39.5H1106.78ZM1123.1 39.5V28.646H1119.07V26.774H1129.24V28.646H1125.19V39.5H1123.1ZM1139.2 32.3V26.774H1141.28V39.5H1139.2V34.172H1132.97V39.5H1130.88V26.774H1132.97V32.3H1139.2Z" fill="black"></path> <rect x="1196" width="307" height="67" rx="33.5" fill="#F8F8F8"></rect> <circle cx="1226" cy="33" r="22" fill="#F8F8F8"></circle> <path fill-rule="evenodd" clip-rule="evenodd" d="M1219.25 23.4998V26.7496L1219.45 26.7199C1219.56 26.7036 1220.31 26.6751 1221.13 26.6566C1221.94 26.638 1222.91 26.5962 1223.28 26.5636C1223.65 26.531 1224.3 26.4777 1224.73 26.4451C1225.89 26.3583 1226.58 26.2799 1226.85 26.2051C1227.87 25.929 1227.48 25.6534 1225.64 25.3372C1225.07 25.238 1224.38 25.1437 1224.2 25.1386C1224.12 25.1362 1224.17 25.0451 1224.42 24.7631C1224.59 24.5584 1224.78 24.3289 1224.83 24.2533C1224.95 24.0873 1224.97 24.0892 1226.94 24.4788C1227.13 24.5149 1227.35 24.5682 1227.43 24.5972C1227.51 24.6263 1227.79 24.7097 1228.04 24.7826C1228.67 24.9669 1229.29 25.2991 1229.51 25.5712L1229.7 25.7982L1229.58 26.0175C1229.45 26.255 1229 26.5561 1228.52 26.719C1228.37 26.7714 1228.21 26.8353 1228.15 26.8611C1228.1 26.8867 1227.97 26.9268 1227.85 26.95C1227.74 26.9732 1227.56 27.0158 1227.46 27.0447C1227.36 27.0736 1227.07 27.1424 1226.81 27.1977C1226.55 27.253 1226.34 27.317 1226.34 27.3401C1226.34 27.3631 1226.58 27.4558 1226.87 27.546C1229.03 28.2142 1229.65 28.513 1229.76 28.9258C1229.85 29.3009 1229.29 29.7554 1228.25 30.1473C1228.05 30.2223 1227.86 30.3008 1227.82 30.3217C1227.77 30.3526 1227.41 30.4676 1226.78 30.6507C1226.64 30.6921 1226.7 30.7765 1226.93 30.8421C1227.05 30.8782 1227.36 30.9659 1227.61 31.0369C1227.86 31.108 1228.11 31.19 1228.17 31.2192C1228.23 31.2483 1228.31 31.2722 1228.34 31.2722C1228.41 31.2722 1228.83 31.449 1229.24 31.6486C1229.62 31.8376 1229.91 32.127 1229.91 32.3137C1229.91 32.4894 1229.7 32.7162 1229.37 32.8811C1229.04 33.0481 1228.09 33.3494 1227.57 33.4526C1227.31 33.5041 1226.93 33.5801 1226.72 33.6214C1226.51 33.6628 1226.32 33.7119 1226.3 33.7307C1226.24 33.7942 1226.51 33.8938 1227.41 34.1352C1228.47 34.4194 1228.92 34.5647 1229.35 34.7657C1229.67 34.9126 1229.91 35.1475 1229.91 35.2998C1229.91 35.4404 1229.56 35.7763 1229.3 35.8925C1229.15 35.9546 1229.02 36.0211 1229 36.0402C1228.93 36.1217 1227.24 36.6939 1227.07 36.6939C1227 36.6939 1226.94 36.7207 1226.91 36.7535C1226.89 36.7863 1226.81 36.8131 1226.73 36.8131C1226.65 36.8131 1226.58 36.8373 1226.58 36.8668C1226.58 36.9357 1226.92 37.0514 1227.12 37.0514C1227.27 37.0514 1227.61 37.1308 1228.43 37.36C1229.3 37.6022 1229.97 38.019 1229.97 38.3131C1229.97 38.5723 1229.79 38.8182 1229.39 39.0741C1229.05 39.2947 1228.78 39.4232 1227.94 39.7612C1227.88 39.7882 1227.62 39.8799 1227.38 39.9651C1227.13 40.0502 1226.93 40.1466 1226.94 40.1793C1226.94 40.2121 1227.22 40.2692 1227.56 40.3062C1229.06 40.4682 1229.49 40.6398 1229.91 41.2583L1230.1 41.5258V43.6379V45.75H1231.61H1233.13V33V20.25H1226.19H1219.25V23.4998ZM1219.25 28.9276V30.0385L1219.84 29.999C1220.17 29.9773 1220.88 29.9343 1221.43 29.9037C1221.98 29.873 1222.74 29.8195 1223.13 29.7849C1224.78 29.6353 1225.13 29.6022 1225.64 29.5443C1226.7 29.4256 1227.43 29.2059 1227.43 29.0057C1227.43 28.8214 1226.5 28.588 1224.95 28.3816C1223.71 28.2179 1219.86 27.8282 1219.39 27.8192L1219.25 27.8166V28.9276ZM1219.25 32.222C1219.25 32.8137 1219.27 33.2972 1219.3 33.2965C1219.32 33.2956 1219.45 33.2704 1219.58 33.2405C1219.72 33.2105 1220.4 33.1314 1221.1 33.0647C1221.8 32.998 1222.66 32.9152 1223.01 32.8805C1223.36 32.846 1223.97 32.7922 1224.37 32.7612C1225.15 32.7005 1226.46 32.5483 1226.7 32.4889C1227.13 32.385 1227.25 32.3306 1227.25 32.2272C1227.25 32.102 1227.2 32.08 1226.65 31.9548C1225.77 31.7527 1223.32 31.4955 1220.17 31.2761C1219.73 31.2453 1219.34 31.2034 1219.31 31.1831C1219.27 31.1587 1219.25 31.5154 1219.25 32.222ZM1219.25 35.264C1219.25 36.2883 1219.26 36.3426 1219.36 36.3095C1219.42 36.2902 1220.14 36.234 1220.95 36.1845C1224.63 35.9604 1226.58 35.7457 1227.05 35.5135C1227.27 35.4065 1227.29 35.3681 1227.17 35.2791C1226.91 35.0763 1225.95 34.9334 1222.46 34.5778C1221.98 34.5286 1221.36 34.4614 1221.1 34.4285C1220.83 34.3956 1220.35 34.3415 1220.04 34.3084C1219.72 34.2752 1219.41 34.2336 1219.36 34.2158C1219.26 34.1859 1219.25 34.2624 1219.25 35.264ZM1219.25 38.5483V39.5687L1219.75 39.5342C1221.16 39.4371 1224.43 39.0731 1225.64 38.878C1227.01 38.659 1227.44 38.4324 1226.91 38.2142C1226.53 38.0608 1224.56 37.8286 1222.58 37.7064C1222.07 37.6745 1221.29 37.6221 1220.86 37.5899C1220.42 37.5578 1219.88 37.5307 1219.66 37.5298L1219.25 37.528V38.5483Z" fill="black"></path> <path d="M1283.21 39.5V28.646H1279.17V26.774H1289.34V28.646H1285.29V39.5H1283.21ZM1299.3 32.3V26.774H1301.39V39.5H1299.3V34.172H1293.07V39.5H1290.98V26.774H1293.07V32.3H1299.3ZM1304.34 26.774H1313.18V28.646H1306.43V32.264H1312.41V34.154H1306.43V37.646H1313.18V39.5H1304.34V26.774ZM1328.05 26.774L1330.34 37.43L1332.75 26.774H1335L1331.79 39.5H1328.84L1326.52 28.88L1324.2 39.5H1321.21L1317.9 26.774H1320.27L1322.74 37.43L1325.06 26.774H1328.05ZM1336.63 26.774H1345.47V28.646H1338.72V32.264H1344.7V34.154H1338.72V37.646H1345.47V39.5H1336.63V26.774ZM1347.71 26.774H1352.76C1353.24 26.774 1353.73 26.816 1354.22 26.9C1354.71 26.984 1355.16 27.146 1355.55 27.386C1355.95 27.614 1356.27 27.938 1356.51 28.358C1356.76 28.766 1356.89 29.3 1356.89 29.96C1356.89 30.572 1356.76 31.118 1356.51 31.598C1356.26 32.078 1355.84 32.456 1355.27 32.732C1356.08 32.924 1356.66 33.284 1356.99 33.812C1357.34 34.328 1357.52 34.964 1357.52 35.72C1357.52 36.476 1357.35 37.106 1357.03 37.61C1356.72 38.114 1356.32 38.504 1355.82 38.78C1355.33 39.056 1354.78 39.248 1354.17 39.356C1353.57 39.452 1352.97 39.5 1352.39 39.5H1347.71V26.774ZM1349.79 28.646V32.138H1352.17C1352.47 32.138 1352.78 32.12 1353.11 32.084C1353.43 32.036 1353.72 31.952 1353.97 31.832C1354.23 31.7 1354.45 31.514 1354.62 31.274C1354.79 31.034 1354.87 30.71 1354.87 30.302C1354.87 29.93 1354.8 29.636 1354.67 29.42C1354.54 29.192 1354.37 29.024 1354.15 28.916C1353.93 28.796 1353.68 28.724 1353.39 28.7C1353.12 28.664 1352.83 28.646 1352.53 28.646H1349.79ZM1352.35 37.646C1352.69 37.646 1353.03 37.628 1353.39 37.592C1353.75 37.556 1354.08 37.472 1354.38 37.34C1354.68 37.208 1354.93 37.016 1355.12 36.764C1355.33 36.5 1355.43 36.146 1355.43 35.702C1355.43 35.342 1355.35 35.048 1355.19 34.82C1355.05 34.58 1354.86 34.4 1354.62 34.28C1354.38 34.148 1354.11 34.058 1353.81 34.01C1353.52 33.962 1353.23 33.938 1352.93 33.938C1352.66 33.938 1352.4 33.938 1352.13 33.938L1350.59 33.956C1350.32 33.956 1350.06 33.956 1349.79 33.956V37.646H1352.35ZM1359.76 26.774H1364.82C1365.3 26.774 1365.79 26.816 1366.28 26.9C1366.77 26.984 1367.22 27.146 1367.61 27.386C1368.01 27.614 1368.33 27.938 1368.57 28.358C1368.82 28.766 1368.94 29.3 1368.94 29.96C1368.94 30.572 1368.82 31.118 1368.57 31.598C1368.31 32.078 1367.9 32.456 1367.32 32.732C1368.14 32.924 1368.72 33.284 1369.05 33.812C1369.4 34.328 1369.57 34.964 1369.57 35.72C1369.57 36.476 1369.41 37.106 1369.09 37.61C1368.78 38.114 1368.37 38.504 1367.88 38.78C1367.39 39.056 1366.84 39.248 1366.23 39.356C1365.63 39.452 1365.03 39.5 1364.44 39.5H1359.76V26.774ZM1361.85 28.646V32.138H1364.23C1364.53 32.138 1364.84 32.12 1365.16 32.084C1365.49 32.036 1365.78 31.952 1366.03 31.832C1366.29 31.7 1366.51 31.514 1366.68 31.274C1366.84 31.034 1366.93 30.71 1366.93 30.302C1366.93 29.93 1366.86 29.636 1366.73 29.42C1366.6 29.192 1366.42 29.024 1366.21 28.916C1365.99 28.796 1365.74 28.724 1365.45 28.7C1365.18 28.664 1364.89 28.646 1364.59 28.646H1361.85ZM1364.41 37.646C1364.74 37.646 1365.09 37.628 1365.45 37.592C1365.81 37.556 1366.14 37.472 1366.44 37.34C1366.74 37.208 1366.99 37.016 1367.18 36.764C1367.38 36.5 1367.49 36.146 1367.49 35.702C1367.49 35.342 1367.41 35.048 1367.25 34.82C1367.11 34.58 1366.92 34.4 1366.68 34.28C1366.44 34.148 1366.17 34.058 1365.87 34.01C1365.58 33.962 1365.28 33.938 1364.98 33.938C1364.72 33.938 1364.46 33.938 1364.19 33.938L1362.64 33.956C1362.38 33.956 1362.12 33.956 1361.85 33.956V37.646H1364.41ZM1379.32 26.774H1381.67L1377.08 34.73V39.5H1375V34.748L1370.35 26.774H1372.76L1376.06 32.714L1379.32 26.774ZM1396.72 39.5L1395.79 36.926H1390.01L1389.05 39.5H1386.79L1391.61 26.774H1394.2L1399.01 39.5H1396.72ZM1395.14 35.054L1392.91 28.826L1390.66 35.054H1395.14ZM1408.87 26.774L1411.16 37.43L1413.57 26.774H1415.82L1412.62 39.5H1409.67L1407.34 28.88L1405.02 39.5H1402.03L1398.72 26.774H1401.1L1403.56 37.43L1405.89 26.774H1408.87ZM1425.46 39.5L1424.53 36.926H1418.75L1417.79 39.5H1415.53L1420.35 26.774H1422.94L1427.75 39.5H1425.46ZM1423.88 35.054L1421.65 28.826L1419.4 35.054H1423.88ZM1431.41 34.838V39.5H1429.32V26.774H1434.27C1434.93 26.774 1435.55 26.84 1436.13 26.972C1436.7 27.104 1437.2 27.326 1437.62 27.638C1438.05 27.95 1438.39 28.364 1438.63 28.88C1438.88 29.396 1439.01 30.032 1439.01 30.788C1439.01 31.304 1438.93 31.778 1438.77 32.21C1438.63 32.63 1438.43 33.002 1438.18 33.326C1437.93 33.638 1437.63 33.902 1437.3 34.118C1436.96 34.322 1436.6 34.472 1436.22 34.568L1438.97 39.5H1436.65C1436.23 38.72 1435.8 37.946 1435.37 37.178C1434.95 36.398 1434.52 35.618 1434.09 34.838H1431.41ZM1433.98 33.02C1434.39 33.02 1434.78 32.984 1435.14 32.912C1435.5 32.84 1435.81 32.72 1436.07 32.552C1436.34 32.384 1436.54 32.156 1436.68 31.868C1436.84 31.568 1436.92 31.19 1436.92 30.734C1436.92 30.326 1436.85 29.99 1436.72 29.726C1436.6 29.462 1436.42 29.252 1436.18 29.096C1435.94 28.928 1435.65 28.814 1435.32 28.754C1434.98 28.682 1434.61 28.646 1434.2 28.646H1431.41V33.02H1433.98ZM1441.35 26.774H1445.95C1446.96 26.774 1447.85 26.924 1448.62 27.224C1449.4 27.512 1450.05 27.932 1450.56 28.484C1451.09 29.024 1451.49 29.69 1451.75 30.482C1452.01 31.274 1452.15 32.162 1452.15 33.146C1452.15 34.142 1452.01 35.03 1451.75 35.81C1451.49 36.59 1451.1 37.256 1450.58 37.808C1450.08 38.36 1449.44 38.78 1448.67 39.068C1447.92 39.356 1447.03 39.5 1446.03 39.5H1441.35V26.774ZM1443.43 28.646V37.646H1445.97C1446.67 37.646 1447.27 37.538 1447.77 37.322C1448.28 37.106 1448.69 36.806 1449.01 36.422C1449.35 36.026 1449.6 35.552 1449.75 35C1449.92 34.448 1450 33.83 1450 33.146C1450 31.73 1449.66 30.626 1448.96 29.834C1448.28 29.042 1447.27 28.646 1445.95 28.646H1443.43ZM1459.12 28.466C1458.84 28.466 1458.56 28.49 1458.27 28.538C1457.98 28.586 1457.72 28.676 1457.48 28.808C1457.24 28.928 1457.04 29.102 1456.88 29.33C1456.73 29.546 1456.65 29.822 1456.65 30.158C1456.65 30.662 1456.82 31.046 1457.15 31.31C1457.49 31.562 1457.89 31.754 1458.36 31.886C1458.7 31.982 1459.03 32.072 1459.37 32.156C1459.72 32.24 1460.03 32.312 1460.32 32.372C1460.83 32.48 1461.3 32.612 1461.74 32.768C1462.2 32.924 1462.6 33.134 1462.93 33.398C1463.27 33.65 1463.53 33.974 1463.72 34.37C1463.93 34.754 1464.03 35.234 1464.03 35.81C1464.03 36.494 1463.9 37.076 1463.65 37.556C1463.41 38.036 1463.08 38.432 1462.66 38.744C1462.24 39.056 1461.75 39.284 1461.19 39.428C1460.62 39.572 1460.02 39.644 1459.37 39.644C1458.71 39.644 1458.08 39.578 1457.48 39.446C1456.89 39.302 1456.36 39.08 1455.89 38.78C1455.43 38.468 1455.04 38.072 1454.72 37.592C1454.41 37.112 1454.21 36.536 1454.13 35.864H1456.29C1456.39 36.224 1456.54 36.524 1456.76 36.764C1456.97 37.004 1457.22 37.196 1457.5 37.34C1457.78 37.484 1458.09 37.586 1458.41 37.646C1458.74 37.706 1459.06 37.736 1459.37 37.736C1459.7 37.736 1460.03 37.712 1460.34 37.664C1460.65 37.604 1460.92 37.508 1461.15 37.376C1461.38 37.244 1461.56 37.07 1461.71 36.854C1461.85 36.638 1461.92 36.356 1461.92 36.008C1461.92 35.528 1461.8 35.18 1461.55 34.964C1461.29 34.736 1460.96 34.568 1460.54 34.46C1459.96 34.292 1459.37 34.148 1458.76 34.028C1458.16 33.896 1457.59 33.728 1457.05 33.524C1456.69 33.392 1456.36 33.236 1456.06 33.056C1455.76 32.876 1455.49 32.66 1455.26 32.408C1455.04 32.156 1454.86 31.862 1454.72 31.526C1454.6 31.178 1454.54 30.776 1454.54 30.32C1454.54 29.624 1454.68 29.042 1454.94 28.574C1455.2 28.094 1455.55 27.71 1455.97 27.422C1456.4 27.134 1456.88 26.93 1457.42 26.81C1457.96 26.678 1458.52 26.612 1459.08 26.612C1459.68 26.612 1460.25 26.684 1460.79 26.828C1461.33 26.96 1461.81 27.17 1462.23 27.458C1462.65 27.746 1462.99 28.118 1463.24 28.574C1463.5 29.03 1463.66 29.582 1463.71 30.23H1461.65C1461.61 29.906 1461.5 29.636 1461.35 29.42C1461.2 29.204 1461.02 29.03 1460.79 28.898C1460.57 28.754 1460.32 28.652 1460.03 28.592C1459.75 28.52 1459.44 28.478 1459.12 28.466Z" fill="black"></path> <rect x="1518" width="262" height="67" rx="33.5" fill="#F8F8F8"></rect> <circle cx="1548" cy="33" r="22" fill="#F8F8F8"></circle> <g clip-path="url(#clip1_2123_8812)"> <path fill-rule="evenodd" clip-rule="evenodd" d="M1546.67 18.0542C1540.56 18.58 1535.28 22.926 1533.59 28.8371C1532.5 32.5996 1532.93 36.6924 1534.77 40.1101C1535.16 40.8404 1535.93 41.984 1536.46 42.6134C1537.01 43.2772 1538.01 44.2566 1538.65 44.7662C1539.79 45.6769 1541.46 46.6203 1542.83 47.1254C1543.58 47.4031 1544.98 47.7552 1545.86 47.8891C1546.73 48.0216 1549.05 48.0395 1549.9 47.9203C1552.68 47.5289 1555.27 46.4172 1557.39 44.7074C1560.22 42.4285 1562.17 39.094 1562.77 35.5402C1563.08 33.6436 1563.08 32.2462 1562.74 30.359C1561.8 25.0688 1558 20.6062 1552.92 18.8353C1550.94 18.1459 1548.77 17.8739 1546.67 18.0542ZM1546.73 19.038C1544.27 19.2874 1542.09 20.073 1540.1 21.4262C1536.78 23.6911 1534.62 27.2327 1534.08 31.3195C1533.97 32.138 1533.98 34.1124 1534.11 34.9289C1534.57 37.9888 1535.84 40.6023 1537.92 42.7516C1540.22 45.1306 1543.15 46.572 1546.45 46.9576C1547.9 47.1277 1549.82 47.0089 1551.29 46.6572C1552.65 46.3331 1554.53 45.5099 1555.71 44.7192C1559.25 42.3495 1561.51 38.5741 1561.93 34.325C1562.02 33.4211 1561.98 31.7948 1561.84 30.912C1561.22 26.9165 1558.89 23.3422 1555.47 21.159C1553.89 20.1456 1551.91 19.4175 1549.95 19.1252C1549.21 19.0137 1547.44 18.9659 1546.73 19.038ZM1543.82 26.3212C1542.53 26.4394 1541.53 27.3694 1541.15 28.7872C1541.09 28.9793 1541.04 29.432 1541.02 29.7931L1540.99 30.4497L1541.79 30.4334L1542.6 30.4172L1542.66 29.9192C1542.76 29.1827 1542.89 28.8462 1543.2 28.5233C1543.51 28.2091 1543.75 28.1185 1544.29 28.118C1544.83 28.1175 1545.41 28.309 1546.61 28.8839C1549 30.0213 1549.86 30.3444 1550.83 30.4586C1552.33 30.6341 1553.48 30.0818 1554.05 28.9195C1554.34 28.3221 1554.44 27.9029 1554.47 27.0844L1554.5 26.3712H1553.69H1552.88L1552.84 26.8224C1552.78 27.6296 1552.54 28.1836 1552.12 28.4694C1551.93 28.5998 1551.86 28.6123 1551.3 28.61C1550.52 28.6068 1550.15 28.4856 1548.31 27.6265C1546.77 26.9067 1546.19 26.6618 1545.62 26.4916C1545.13 26.3423 1544.37 26.2707 1543.82 26.3212ZM1546.82 36.2097V41.7984H1547.83H1548.85L1548.84 36.5521L1548.82 31.3057L1547.86 30.965C1547.33 30.7775 1546.88 30.6234 1546.86 30.6225C1546.84 30.6217 1546.82 33.1359 1546.82 36.2097ZM1533 33.0078C1533 33.44 1533.01 33.6168 1533.02 33.4008C1533.04 33.1847 1533.04 32.831 1533.02 32.6148C1533.01 32.3987 1533 32.5755 1533 33.0078Z" fill="black"></path> </g> <path d="M1602.55 39.5V26.774H1605.18L1608.98 33.29L1612.74 26.774H1615.29V39.5H1613.22V29.582L1609.39 36.188H1608.45L1604.62 29.582V39.5H1602.55ZM1626.8 39.5L1625.86 36.926H1620.08L1619.13 39.5H1616.86L1621.68 26.774H1624.28L1629.08 39.5H1626.8ZM1625.21 35.054L1622.98 28.826L1620.73 35.054H1625.21ZM1630.66 26.774H1635.26C1636.27 26.774 1637.16 26.924 1637.93 27.224C1638.71 27.512 1639.36 27.932 1639.87 28.484C1640.4 29.024 1640.8 29.69 1641.06 30.482C1641.32 31.274 1641.46 32.162 1641.46 33.146C1641.46 34.142 1641.32 35.03 1641.06 35.81C1640.8 36.59 1640.41 37.256 1639.89 37.808C1639.39 38.36 1638.75 38.78 1637.98 39.068C1637.23 39.356 1636.34 39.5 1635.34 39.5H1630.66V26.774ZM1632.74 28.646V37.646H1635.28C1635.98 37.646 1636.58 37.538 1637.08 37.322C1637.59 37.106 1638 36.806 1638.32 36.422C1638.66 36.026 1638.91 35.552 1639.06 35C1639.23 34.448 1639.31 33.83 1639.31 33.146C1639.31 31.73 1638.97 30.626 1638.27 29.834C1637.59 29.042 1636.58 28.646 1635.26 28.646H1632.74ZM1643.72 26.774H1652.56V28.646H1645.81V32.264H1651.78V34.154H1645.81V37.646H1652.56V39.5H1643.72V26.774ZM1665.1 39.626C1664.1 39.626 1663.22 39.464 1662.45 39.14C1661.69 38.804 1661.06 38.348 1660.54 37.772C1660.03 37.196 1659.63 36.512 1659.35 35.72C1659.09 34.928 1658.96 34.064 1658.96 33.128C1658.96 32.18 1659.1 31.31 1659.37 30.518C1659.65 29.714 1660.04 29.024 1660.56 28.448C1661.09 27.872 1661.73 27.422 1662.49 27.098C1663.25 26.774 1664.13 26.612 1665.11 26.612C1666.1 26.612 1666.97 26.774 1667.72 27.098C1668.49 27.41 1669.13 27.854 1669.65 28.43C1670.18 29.006 1670.57 29.696 1670.84 30.5C1671.11 31.292 1671.25 32.162 1671.25 33.11C1671.25 34.046 1671.11 34.916 1670.84 35.72C1670.57 36.512 1670.18 37.196 1669.65 37.772C1669.13 38.348 1668.49 38.804 1667.72 39.14C1666.96 39.464 1666.08 39.626 1665.1 39.626ZM1665.11 28.484C1664.43 28.484 1663.84 28.61 1663.33 28.862C1662.84 29.114 1662.43 29.45 1662.09 29.87C1661.75 30.29 1661.5 30.782 1661.33 31.346C1661.18 31.91 1661.1 32.498 1661.1 33.11C1661.1 33.722 1661.18 34.31 1661.33 34.874C1661.5 35.426 1661.75 35.918 1662.07 36.35C1662.41 36.782 1662.83 37.124 1663.33 37.376C1663.84 37.628 1664.43 37.754 1665.11 37.754C1665.79 37.754 1666.37 37.634 1666.88 37.394C1667.38 37.142 1667.8 36.806 1668.12 36.386C1668.46 35.966 1668.7 35.48 1668.86 34.928C1669.03 34.364 1669.11 33.764 1669.11 33.128C1669.11 32.504 1669.03 31.916 1668.86 31.364C1668.7 30.8 1668.46 30.308 1668.12 29.888C1667.8 29.456 1667.38 29.114 1666.88 28.862C1666.39 28.61 1665.8 28.484 1665.11 28.484ZM1673.49 39.5V26.774H1675.74L1682.08 36.332V26.774H1684.15V39.5H1681.92L1675.55 29.978V39.5H1673.49ZM1694.67 39.5V28.646H1690.64V26.774H1700.81V28.646H1696.76V39.5H1694.67ZM1704.53 39.5H1702.45V26.774H1704.53V39.5ZM1707.49 26.774H1709.56V37.646H1716.18V39.5H1707.49V26.774ZM1718.28 26.774H1722.89C1723.9 26.774 1724.79 26.924 1725.56 27.224C1726.34 27.512 1726.98 27.932 1727.5 28.484C1728.03 29.024 1728.42 29.69 1728.69 30.482C1728.95 31.274 1729.08 32.162 1729.08 33.146C1729.08 34.142 1728.95 35.03 1728.69 35.81C1728.42 36.59 1728.03 37.256 1727.52 37.808C1727.01 38.36 1726.38 38.78 1725.61 39.068C1724.85 39.356 1723.97 39.5 1722.96 39.5H1718.28V26.774ZM1720.37 28.646V37.646H1722.91C1723.61 37.646 1724.21 37.538 1724.71 37.322C1725.21 37.106 1725.63 36.806 1725.95 36.422C1726.29 36.026 1726.53 35.552 1726.69 35C1726.86 34.448 1726.94 33.83 1726.94 33.146C1726.94 31.73 1726.59 30.626 1725.9 29.834C1725.21 29.042 1724.21 28.646 1722.89 28.646H1720.37ZM1739.54 39.5L1738.61 36.926H1732.83L1731.87 39.5H1729.61L1734.43 26.774H1737.02L1741.83 39.5H1739.54ZM1737.96 35.054L1735.73 28.826L1733.48 35.054H1737.96Z" fill="black"></path> <defs> <clipPath id="clip0_2123_8812"> <rect width="30" height="30" fill="white" transform="translate(566 18)"></rect> </clipPath> <clipPath id="clip1_2123_8812"> <rect width="30" height="30" fill="white" transform="translate(1533 18)"></rect> </clipPath> </defs> </svg> 