<?xml version="1.0" encoding="UTF-8"?> <svg xmlns="http://www.w3.org/2000/svg" width="1780" height="67" viewBox="0 0 1780 67" fill="none"> <rect width="262" height="67" rx="33.5" fill="#F8F8F8"></rect> <circle cx="30" cy="33" r="22" fill="#F8F8F8"></circle> <g clip-path="url(#clip0_2123_8804)"> <path fill-rule="evenodd" clip-rule="evenodd" d="M28.6702 18.0542C22.5582 18.58 17.2845 22.926 15.5857 28.8371C14.5043 32.5996 14.9331 36.6924 16.7666 40.1101C17.1584 40.8404 17.9308 41.984 18.4573 42.6134C19.0127 43.2772 20.0096 44.2566 20.6487 44.7662C21.7908 45.6769 23.4629 46.6203 24.8301 47.1254C25.5816 47.4031 26.9771 47.7552 27.8565 47.8891C28.7275 48.0216 31.0487 48.0395 31.8963 47.9203C34.6786 47.5289 37.2718 46.4172 39.3908 44.7074C42.215 42.4285 44.1705 39.094 44.7666 35.5402C45.0847 33.6436 45.0784 32.2462 44.7433 30.359C43.8038 25.0688 39.9995 20.6062 34.9194 18.8353C32.942 18.1459 30.7656 17.8739 28.6702 18.0542ZM28.7284 19.038C26.269 19.2874 24.0893 20.073 22.1019 21.4262C18.7754 23.6911 16.6179 27.2327 16.0753 31.3195C15.9666 32.138 15.9835 34.1124 16.1062 34.9289C16.566 37.9888 17.8406 40.6023 19.9214 42.7516C22.2246 45.1306 25.1457 46.572 28.4454 46.9576C29.9011 47.1277 31.8181 47.0089 33.2913 46.6572C34.6495 46.3331 36.5258 45.5099 37.709 44.7192C41.2548 42.3495 43.5146 38.5741 43.9304 34.325C44.0189 33.4211 43.9755 31.7948 43.8394 30.912C43.2235 26.9165 40.8902 23.3422 37.4727 21.159C35.8864 20.1456 33.9108 19.4175 31.9544 19.1252C31.2081 19.0137 29.439 18.9659 28.7284 19.038ZM25.822 26.3212C24.5349 26.4394 23.5254 27.3694 23.1454 28.7872C23.0939 28.9793 23.0371 29.432 23.0191 29.7931L22.9865 30.4497L23.7923 30.4334L24.5982 30.4172L24.664 29.9192C24.7613 29.1827 24.8916 28.8462 25.2044 28.5233C25.5088 28.2091 25.7509 28.1185 26.2882 28.118C26.8259 28.1175 27.4069 28.309 28.6121 28.8839C30.9962 30.0213 31.8627 30.3444 32.8348 30.4586C34.3282 30.6341 35.4811 30.0818 36.0477 28.9195C36.3389 28.3221 36.4359 27.9029 36.4723 27.0844L36.504 26.3712H35.691H34.878L34.8424 26.8224C34.7788 27.6296 34.5353 28.1836 34.1187 28.4694C33.9286 28.5998 33.8551 28.6123 33.2955 28.61C32.5183 28.6068 32.1503 28.4856 30.3084 27.6265C28.7654 26.9067 28.186 26.6618 27.6233 26.4916C27.1296 26.3423 26.3728 26.2707 25.822 26.3212ZM28.8156 36.2097V41.7984H29.8331H30.8507L30.8358 36.5521L30.8209 31.3057L29.8619 30.965C29.3343 30.7775 28.8831 30.6234 28.8592 30.6225C28.8352 30.6217 28.8156 33.1359 28.8156 36.2097ZM15.0041 33.0078C15.0041 33.44 15.0132 33.6168 15.0244 33.4008C15.0356 33.1847 15.0356 32.831 15.0244 32.6148C15.0132 32.3987 15.0041 32.5755 15.0041 33.0078Z" fill="black"></path> </g> <path d="M84.5492 39.5V26.774H87.1772L90.9752 33.29L94.7372 26.774H97.2932V39.5H95.2232V29.582L91.3892 36.188H90.4532L86.6192 29.582V39.5H84.5492ZM108.797 39.5L107.861 36.926H102.083L101.129 39.5H98.8605L103.685 26.774H106.277L111.083 39.5H108.797ZM107.213 35.054L104.981 28.826L102.731 35.054H107.213ZM112.657 26.774H117.265C118.273 26.774 119.161 26.924 119.929 27.224C120.709 27.512 121.357 27.932 121.873 28.484C122.401 29.024 122.797 29.69 123.061 30.482C123.325 31.274 123.457 32.162 123.457 33.146C123.457 34.142 123.325 35.03 123.061 35.81C122.797 36.59 122.407 37.256 121.891 37.808C121.387 38.36 120.751 38.78 119.983 39.068C119.227 39.356 118.345 39.5 117.337 39.5H112.657V26.774ZM114.745 28.646V37.646H117.283C117.979 37.646 118.579 37.538 119.083 37.322C119.587 37.106 120.001 36.806 120.325 36.422C120.661 36.026 120.907 35.552 121.063 35C121.231 34.448 121.315 33.83 121.315 33.146C121.315 31.73 120.967 30.626 120.271 29.834C119.587 29.042 118.585 28.646 117.265 28.646H114.745ZM125.717 26.774H134.555V28.646H127.805V32.264H133.781V34.154H127.805V37.646H134.555V39.5H125.717V26.774ZM147.097 39.626C146.101 39.626 145.219 39.464 144.451 39.14C143.695 38.804 143.059 38.348 142.543 37.772C142.027 37.196 141.631 36.512 141.355 35.72C141.091 34.928 140.959 34.064 140.959 33.128C140.959 32.18 141.097 31.31 141.373 30.518C141.649 29.714 142.045 29.024 142.561 28.448C143.089 27.872 143.731 27.422 144.487 27.098C145.255 26.774 146.131 26.612 147.115 26.612C148.099 26.612 148.969 26.774 149.725 27.098C150.493 27.41 151.135 27.854 151.651 28.43C152.179 29.006 152.575 29.696 152.839 30.5C153.115 31.292 153.253 32.162 153.253 33.11C153.253 34.046 153.115 34.916 152.839 35.72C152.575 36.512 152.179 37.196 151.651 37.772C151.135 38.348 150.493 38.804 149.725 39.14C148.957 39.464 148.081 39.626 147.097 39.626ZM147.115 28.484C146.431 28.484 145.837 28.61 145.333 28.862C144.841 29.114 144.427 29.45 144.091 29.87C143.755 30.29 143.503 30.782 143.335 31.346C143.179 31.91 143.101 32.498 143.101 33.11C143.101 33.722 143.179 34.31 143.335 34.874C143.503 35.426 143.749 35.918 144.073 36.35C144.409 36.782 144.829 37.124 145.333 37.376C145.837 37.628 146.431 37.754 147.115 37.754C147.787 37.754 148.375 37.634 148.879 37.394C149.383 37.142 149.797 36.806 150.121 36.386C150.457 35.966 150.703 35.48 150.859 34.928C151.027 34.364 151.111 33.764 151.111 33.128C151.111 32.504 151.027 31.916 150.859 31.364C150.703 30.8 150.457 30.308 150.121 29.888C149.797 29.456 149.383 29.114 148.879 28.862C148.387 28.61 147.799 28.484 147.115 28.484ZM155.495 39.5V26.774H157.745L164.081 36.332V26.774H166.151V39.5H163.919L157.547 29.978V39.5H155.495ZM176.67 39.5V28.646H172.638V26.774H182.808V28.646H178.758V39.5H176.67ZM186.534 39.5H184.446V26.774H186.534V39.5ZM189.491 26.774H191.561V37.646H198.185V39.5H189.491V26.774ZM200.284 26.774H204.892C205.9 26.774 206.788 26.924 207.556 27.224C208.336 27.512 208.984 27.932 209.5 28.484C210.028 29.024 210.424 29.69 210.688 30.482C210.952 31.274 211.084 32.162 211.084 33.146C211.084 34.142 210.952 35.03 210.688 35.81C210.424 36.59 210.034 37.256 209.518 37.808C209.014 38.36 208.378 38.78 207.61 39.068C206.854 39.356 205.972 39.5 204.964 39.5H200.284V26.774ZM202.372 28.646V37.646H204.91C205.606 37.646 206.206 37.538 206.71 37.322C207.214 37.106 207.628 36.806 207.952 36.422C208.288 36.026 208.534 35.552 208.69 35C208.858 34.448 208.942 33.83 208.942 33.146C208.942 31.73 208.594 30.626 207.898 29.834C207.214 29.042 206.212 28.646 204.892 28.646H202.372ZM221.543 39.5L220.607 36.926H214.829L213.875 39.5H211.607L216.431 26.774H219.023L223.829 39.5H221.543ZM219.959 35.054L217.727 28.826L215.477 35.054H219.959Z" fill="black"></path> <rect x="277" width="307" height="67" rx="33.5" fill="#F8F8F8"></rect> <circle cx="307" cy="33" r="22" fill="#F8F8F8"></circle> <path fill-rule="evenodd" clip-rule="evenodd" d="M300.25 23.4998V26.7496L300.447 26.7199C300.555 26.7036 301.312 26.6751 302.128 26.6566C302.945 26.638 303.913 26.5962 304.279 26.5636C304.646 26.531 305.3 26.4777 305.733 26.4451C306.887 26.3583 307.58 26.2799 307.854 26.2051C308.866 25.929 308.481 25.6534 306.642 25.3372C306.066 25.238 305.381 25.1437 305.202 25.1386C305.12 25.1362 305.172 25.0451 305.415 24.7631C305.592 24.5584 305.78 24.3289 305.834 24.2533C305.952 24.0873 305.969 24.0892 307.945 24.4788C308.128 24.5149 308.346 24.5682 308.43 24.5972C308.513 24.6263 308.786 24.7097 309.035 24.7826C309.667 24.9669 310.289 25.2991 310.512 25.5712L310.699 25.7982L310.579 26.0175C310.449 26.255 309.997 26.5561 309.524 26.719C309.372 26.7714 309.206 26.8353 309.155 26.8611C309.104 26.8867 308.967 26.9268 308.852 26.95C308.736 26.9732 308.56 27.0158 308.46 27.0447C308.36 27.0736 308.067 27.1424 307.809 27.1977C307.55 27.253 307.339 27.317 307.339 27.3401C307.339 27.3631 307.578 27.4558 307.869 27.546C310.028 28.2142 310.653 28.513 310.759 28.9258C310.854 29.3009 310.292 29.7554 309.248 30.1473C309.048 30.2223 308.857 30.3008 308.823 30.3217C308.774 30.3526 308.409 30.4676 307.778 30.6507C307.636 30.6921 307.702 30.7765 307.93 30.8421C308.055 30.8782 308.361 30.9659 308.611 31.0369C308.861 31.108 309.113 31.19 309.171 31.2192C309.229 31.2483 309.305 31.2722 309.341 31.2722C309.413 31.2722 309.834 31.449 310.237 31.6486C310.619 31.8376 310.914 32.127 310.914 32.3137C310.914 32.4894 310.695 32.7162 310.367 32.8811C310.035 33.0481 309.086 33.3494 308.567 33.4526C308.308 33.5041 307.926 33.5801 307.717 33.6214C307.508 33.6628 307.322 33.7119 307.303 33.7307C307.238 33.7942 307.511 33.8938 308.411 34.1352C309.471 34.4194 309.918 34.5647 310.35 34.7657C310.666 34.9126 310.914 35.1475 310.914 35.2998C310.914 35.4404 310.564 35.7763 310.296 35.8925C310.152 35.9546 310.022 36.0211 310.005 36.0402C309.934 36.1217 308.239 36.6939 308.069 36.6939C308.005 36.6939 307.935 36.7207 307.915 36.7535C307.894 36.7863 307.811 36.8131 307.729 36.8131C307.648 36.8131 307.581 36.8373 307.581 36.8668C307.581 36.9357 307.917 37.0514 308.117 37.0514C308.269 37.0514 308.606 37.1308 309.429 37.36C310.299 37.6022 310.974 38.019 310.974 38.3131C310.974 38.5723 310.785 38.8182 310.39 39.0741C310.048 39.2947 309.778 39.4232 308.945 39.7612C308.878 39.7882 308.623 39.8799 308.378 39.9651C308.133 40.0502 307.935 40.1466 307.937 40.1793C307.94 40.2121 308.222 40.2692 308.564 40.3062C310.064 40.4682 310.487 40.6398 310.912 41.2583L311.096 41.5258V43.6379V45.75H312.61H314.125V33V20.25H307.188H300.25V23.4998ZM300.25 28.9276V30.0385L300.841 29.999C301.166 29.9773 301.881 29.9343 302.431 29.9037C302.981 29.873 303.745 29.8195 304.128 29.7849C305.78 29.6353 306.126 29.6022 306.642 29.5443C307.701 29.4256 308.43 29.2059 308.43 29.0057C308.43 28.8214 307.501 28.588 305.945 28.3816C304.711 28.2179 300.86 27.8282 300.386 27.8192L300.25 27.8166V28.9276ZM300.25 32.222C300.25 32.8137 300.27 33.2972 300.295 33.2965C300.32 33.2956 300.45 33.2704 300.583 33.2405C300.717 33.2105 301.398 33.1314 302.098 33.0647C302.798 32.998 303.657 32.9152 304.007 32.8805C304.356 32.846 304.97 32.7922 305.37 32.7612C306.152 32.7005 307.456 32.5483 307.703 32.4889C308.134 32.385 308.248 32.3306 308.248 32.2272C308.248 32.102 308.2 32.08 307.653 31.9548C306.771 31.7527 304.316 31.4955 301.174 31.2761C300.733 31.2453 300.345 31.2034 300.311 31.1831C300.271 31.1587 300.25 31.5154 300.25 32.222ZM300.25 35.264C300.25 36.2883 300.256 36.3426 300.362 36.3095C300.424 36.2902 301.14 36.234 301.953 36.1845C305.632 35.9604 307.584 35.7457 308.051 35.5135C308.266 35.4065 308.286 35.3681 308.172 35.2791C307.912 35.0763 306.952 34.9334 303.461 34.5778C302.978 34.5286 302.365 34.4614 302.098 34.4285C301.831 34.3956 301.354 34.3415 301.038 34.3084C300.721 34.2752 300.414 34.2336 300.356 34.2158C300.258 34.1859 300.25 34.2624 300.25 35.264ZM300.25 38.5483V39.5687L300.75 39.5342C302.158 39.4371 305.427 39.0731 306.642 38.878C308.007 38.659 308.439 38.4324 307.908 38.2142C307.534 38.0608 305.556 37.8286 303.582 37.7064C303.066 37.6745 302.289 37.6221 301.856 37.5899C301.422 37.5578 300.884 37.5307 300.659 37.5298L300.25 37.528V38.5483Z" fill="black"></path> <path d="M364.206 39.5V28.646H360.174V26.774H370.344V28.646H366.294V39.5H364.206ZM380.298 32.3V26.774H382.386V39.5H380.298V34.172H374.07V39.5H371.982V26.774H374.07V32.3H380.298ZM385.341 26.774H394.179V28.646H387.429V32.264H393.405V34.154H387.429V37.646H394.179V39.5H385.341V26.774ZM409.05 26.774L411.336 37.43L413.748 26.774H415.998L412.794 39.5H409.842L407.52 28.88L405.198 39.5H402.21L398.898 26.774H401.274L403.74 37.43L406.062 26.774H409.05ZM417.632 26.774H426.47V28.646H419.72V32.264H425.696V34.154H419.72V37.646H426.47V39.5H417.632V26.774ZM428.706 26.774H433.764C434.244 26.774 434.73 26.816 435.222 26.9C435.714 26.984 436.158 27.146 436.554 27.386C436.95 27.614 437.268 27.938 437.508 28.358C437.76 28.766 437.886 29.3 437.886 29.96C437.886 30.572 437.76 31.118 437.508 31.598C437.256 32.078 436.842 32.456 436.266 32.732C437.082 32.924 437.658 33.284 437.994 33.812C438.342 34.328 438.516 34.964 438.516 35.72C438.516 36.476 438.354 37.106 438.03 37.61C437.718 38.114 437.316 38.504 436.824 38.78C436.332 39.056 435.78 39.248 435.168 39.356C434.568 39.452 433.974 39.5 433.386 39.5H428.706V26.774ZM430.794 28.646V32.138H433.17C433.47 32.138 433.782 32.12 434.106 32.084C434.43 32.036 434.718 31.952 434.97 31.832C435.234 31.7 435.45 31.514 435.618 31.274C435.786 31.034 435.87 30.71 435.87 30.302C435.87 29.93 435.804 29.636 435.672 29.42C435.54 29.192 435.366 29.024 435.15 28.916C434.934 28.796 434.682 28.724 434.394 28.7C434.118 28.664 433.83 28.646 433.53 28.646H430.794ZM433.35 37.646C433.686 37.646 434.034 37.628 434.394 37.592C434.754 37.556 435.084 37.472 435.384 37.34C435.684 37.208 435.93 37.016 436.122 36.764C436.326 36.5 436.428 36.146 436.428 35.702C436.428 35.342 436.35 35.048 436.194 34.82C436.05 34.58 435.858 34.4 435.618 34.28C435.378 34.148 435.108 34.058 434.808 34.01C434.52 33.962 434.226 33.938 433.926 33.938C433.662 33.938 433.398 33.938 433.134 33.938L431.586 33.956C431.322 33.956 431.058 33.956 430.794 33.956V37.646H433.35ZM440.765 26.774H445.823C446.303 26.774 446.789 26.816 447.281 26.9C447.773 26.984 448.217 27.146 448.613 27.386C449.009 27.614 449.327 27.938 449.567 28.358C449.819 28.766 449.945 29.3 449.945 29.96C449.945 30.572 449.819 31.118 449.567 31.598C449.315 32.078 448.901 32.456 448.325 32.732C449.141 32.924 449.717 33.284 450.053 33.812C450.401 34.328 450.575 34.964 450.575 35.72C450.575 36.476 450.413 37.106 450.089 37.61C449.777 38.114 449.375 38.504 448.883 38.78C448.391 39.056 447.839 39.248 447.227 39.356C446.627 39.452 446.033 39.5 445.445 39.5H440.765V26.774ZM442.853 28.646V32.138H445.229C445.529 32.138 445.841 32.12 446.165 32.084C446.489 32.036 446.777 31.952 447.029 31.832C447.293 31.7 447.509 31.514 447.677 31.274C447.845 31.034 447.929 30.71 447.929 30.302C447.929 29.93 447.863 29.636 447.731 29.42C447.599 29.192 447.425 29.024 447.209 28.916C446.993 28.796 446.741 28.724 446.453 28.7C446.177 28.664 445.889 28.646 445.589 28.646H442.853ZM445.409 37.646C445.745 37.646 446.093 37.628 446.453 37.592C446.813 37.556 447.143 37.472 447.443 37.34C447.743 37.208 447.989 37.016 448.181 36.764C448.385 36.5 448.487 36.146 448.487 35.702C448.487 35.342 448.409 35.048 448.253 34.82C448.109 34.58 447.917 34.4 447.677 34.28C447.437 34.148 447.167 34.058 446.867 34.01C446.579 33.962 446.285 33.938 445.985 33.938C445.721 33.938 445.457 33.938 445.193 33.938L443.645 33.956C443.381 33.956 443.117 33.956 442.853 33.956V37.646H445.409ZM460.315 26.774H462.673L458.083 34.73V39.5H455.995V34.748L451.351 26.774H453.763L457.057 32.714L460.315 26.774ZM477.721 39.5L476.785 36.926H471.007L470.053 39.5H467.785L472.609 26.774H475.201L480.007 39.5H477.721ZM476.137 35.054L473.905 28.826L471.655 35.054H476.137ZM489.875 26.774L492.161 37.43L494.573 26.774H496.823L493.619 39.5H490.667L488.345 28.88L486.023 39.5H483.035L479.723 26.774H482.099L484.565 37.43L486.887 26.774H489.875ZM506.462 39.5L505.526 36.926H499.748L498.794 39.5H496.526L501.35 26.774H503.942L508.748 39.5H506.462ZM504.878 35.054L502.646 28.826L500.396 35.054H504.878ZM512.41 34.838V39.5H510.322V26.774H515.272C515.932 26.774 516.55 26.84 517.126 26.972C517.702 27.104 518.2 27.326 518.62 27.638C519.052 27.95 519.388 28.364 519.628 28.88C519.88 29.396 520.006 30.032 520.006 30.788C520.006 31.304 519.928 31.778 519.772 32.21C519.628 32.63 519.43 33.002 519.178 33.326C518.926 33.638 518.632 33.902 518.296 34.118C517.96 34.322 517.6 34.472 517.216 34.568L519.97 39.5H517.648C517.228 38.72 516.802 37.946 516.37 37.178C515.95 36.398 515.524 35.618 515.092 34.838H512.41ZM514.984 33.02C515.392 33.02 515.776 32.984 516.136 32.912C516.496 32.84 516.808 32.72 517.072 32.552C517.336 32.384 517.54 32.156 517.684 31.868C517.84 31.568 517.918 31.19 517.918 30.734C517.918 30.326 517.852 29.99 517.72 29.726C517.6 29.462 517.42 29.252 517.18 29.096C516.94 28.928 516.652 28.814 516.316 28.754C515.98 28.682 515.608 28.646 515.2 28.646H512.41V33.02H514.984ZM522.345 26.774H526.953C527.961 26.774 528.849 26.924 529.617 27.224C530.397 27.512 531.045 27.932 531.561 28.484C532.089 29.024 532.485 29.69 532.749 30.482C533.013 31.274 533.145 32.162 533.145 33.146C533.145 34.142 533.013 35.03 532.749 35.81C532.485 36.59 532.095 37.256 531.579 37.808C531.075 38.36 530.439 38.78 529.671 39.068C528.915 39.356 528.033 39.5 527.025 39.5H522.345V26.774ZM524.433 28.646V37.646H526.971C527.667 37.646 528.267 37.538 528.771 37.322C529.275 37.106 529.689 36.806 530.013 36.422C530.349 36.026 530.595 35.552 530.751 35C530.919 34.448 531.003 33.83 531.003 33.146C531.003 31.73 530.655 30.626 529.959 29.834C529.275 29.042 528.273 28.646 526.953 28.646H524.433ZM540.115 28.466C539.839 28.466 539.557 28.49 539.269 28.538C538.981 28.586 538.717 28.676 538.477 28.808C538.237 28.928 538.039 29.102 537.883 29.33C537.727 29.546 537.649 29.822 537.649 30.158C537.649 30.662 537.817 31.046 538.153 31.31C538.489 31.562 538.891 31.754 539.359 31.886C539.695 31.982 540.031 32.072 540.367 32.156C540.715 32.24 541.033 32.312 541.321 32.372C541.825 32.48 542.299 32.612 542.743 32.768C543.199 32.924 543.595 33.134 543.931 33.398C544.267 33.65 544.531 33.974 544.723 34.37C544.927 34.754 545.029 35.234 545.029 35.81C545.029 36.494 544.903 37.076 544.651 37.556C544.411 38.036 544.081 38.432 543.661 38.744C543.241 39.056 542.749 39.284 542.185 39.428C541.621 39.572 541.015 39.644 540.367 39.644C539.707 39.644 539.077 39.578 538.477 39.446C537.889 39.302 537.361 39.08 536.893 38.78C536.425 38.468 536.035 38.072 535.723 37.592C535.411 37.112 535.213 36.536 535.129 35.864H537.289C537.385 36.224 537.541 36.524 537.757 36.764C537.973 37.004 538.219 37.196 538.495 37.34C538.783 37.484 539.089 37.586 539.413 37.646C539.737 37.706 540.055 37.736 540.367 37.736C540.703 37.736 541.027 37.712 541.339 37.664C541.651 37.604 541.921 37.508 542.149 37.376C542.377 37.244 542.563 37.07 542.707 36.854C542.851 36.638 542.923 36.356 542.923 36.008C542.923 35.528 542.797 35.18 542.545 34.964C542.293 34.736 541.957 34.568 541.537 34.46C540.961 34.292 540.367 34.148 539.755 34.028C539.155 33.896 538.585 33.728 538.045 33.524C537.685 33.392 537.355 33.236 537.055 33.056C536.755 32.876 536.491 32.66 536.263 32.408C536.035 32.156 535.855 31.862 535.723 31.526C535.603 31.178 535.543 30.776 535.543 30.32C535.543 29.624 535.675 29.042 535.939 28.574C536.203 28.094 536.545 27.71 536.965 27.422C537.397 27.134 537.883 26.93 538.423 26.81C538.963 26.678 539.515 26.612 540.079 26.612C540.679 26.612 541.249 26.684 541.789 26.828C542.329 26.96 542.809 27.17 543.229 27.458C543.649 27.746 543.985 28.118 544.237 28.574C544.501 29.03 544.657 29.582 544.705 30.23H542.653C542.605 29.906 542.503 29.636 542.347 29.42C542.203 29.204 542.017 29.03 541.789 28.898C541.573 28.754 541.321 28.652 541.033 28.592C540.745 28.52 540.439 28.478 540.115 28.466Z" fill="black"></path> <rect x="599" width="286" height="67" rx="33.5" fill="#F8F8F8"></rect> <circle cx="629" cy="33" r="22" fill="#F8F8F8"></circle> <path fill-rule="evenodd" clip-rule="evenodd" d="M618.894 26.9191C618.913 27.0812 618.952 27.3291 618.981 27.47C619.009 27.6109 619.104 28.1643 619.192 28.6997C619.28 29.2352 619.375 29.7886 619.403 29.9295C619.431 30.0704 619.469 30.2894 619.487 30.4162C619.505 30.5431 619.542 30.7621 619.569 30.903C619.595 31.0439 619.655 31.3898 619.701 31.6716C619.824 32.417 619.935 33.0663 619.996 33.3881C620.025 33.5431 620.121 34.108 620.21 34.6435C620.298 35.1789 620.395 35.7438 620.425 35.8988C620.454 36.0538 620.503 36.3305 620.534 36.5137C620.588 36.8437 620.708 37.5589 620.8 38.1021C620.826 38.2571 620.872 38.5338 620.903 38.717C620.933 38.9002 620.982 39.1769 621.011 39.3319C621.041 39.4869 621.14 40.0516 621.231 40.5869C621.323 41.1222 621.411 41.5801 621.426 41.6043C621.46 41.6568 622.119 41.604 622.646 41.5067C623.759 41.3014 624.716 40.8119 625.543 40.0259C626.394 39.2181 626.937 38.349 627.548 36.8212C628.779 33.7415 629.096 32.9576 629.212 32.6964C629.238 32.64 629.284 32.5273 629.314 32.4459C629.345 32.3645 629.382 32.3089 629.396 32.3224C629.41 32.336 629.446 32.5179 629.475 32.7267C629.504 32.9355 629.563 33.3599 629.606 33.6699C629.649 33.9799 629.71 34.4065 629.741 34.6179C629.772 34.8292 629.831 35.2443 629.873 35.5402C629.915 35.8361 629.989 36.3433 630.037 36.6674C630.155 37.4582 630.199 37.7608 630.304 38.4864C630.353 38.8246 630.427 39.3319 630.469 39.6137C630.511 39.8955 630.582 40.3941 630.628 40.7216C630.761 41.6668 630.729 41.6146 631.167 41.5979C632.665 41.5407 634.283 40.8151 635.35 39.7212C635.922 39.136 636.455 38.3117 636.68 37.6666C636.729 37.5257 636.801 37.3412 636.84 37.2567C636.879 37.1721 637.118 36.6188 637.373 36.0269C637.627 35.4351 637.857 34.9048 637.883 34.8484C637.909 34.7921 638.102 34.3424 638.311 33.8493C638.52 33.3561 638.713 32.9065 638.739 32.8501C638.765 32.7937 638.994 32.2634 639.248 31.6716C639.502 31.0798 639.731 30.5495 639.757 30.4931C639.784 30.4367 639.976 29.9871 640.186 29.4939C640.395 29.0007 640.587 28.5511 640.613 28.4948C640.905 27.8629 641.396 26.6728 641.374 26.6517C641.322 26.6019 640.886 26.6237 640.382 26.7013C639.244 26.8766 638.3 27.3214 637.473 28.073C636.471 28.9842 635.839 30.0416 635.31 31.6972C635.069 32.4505 634.835 33.1602 634.643 33.7212C634.576 33.9184 634.46 34.2643 634.386 34.4898C634.25 34.9064 633.801 36.2709 633.679 36.6387L633.611 36.8406L633.578 36.69C633.56 36.6071 633.509 36.2281 633.464 35.8476C633.419 35.4672 633.359 34.9829 633.33 34.7716C633.214 33.8999 633.117 33.1742 633.042 32.5939C632.997 32.2557 632.922 31.7023 632.875 31.3642C632.827 31.026 632.767 30.5879 632.741 30.3906C632.716 30.1933 632.655 29.7437 632.608 29.3914C632.56 29.0392 632.5 28.5896 632.474 28.3923C632.317 27.1958 632.253 26.7453 632.232 26.6886C632.201 26.6017 631.804 26.6067 631.243 26.7011C630.089 26.8954 629.207 27.3359 628.375 28.1335C627.6 28.8761 627.085 29.6826 626.558 30.9799C626.392 31.3885 626.236 31.769 626.212 31.8253C626.187 31.8817 626.13 32.02 626.085 32.1328C626.04 32.2455 625.941 32.4876 625.865 32.6708C625.684 33.1095 624.946 34.9416 624.53 35.9876C624.348 36.4451 624.186 36.8197 624.17 36.8202C624.153 36.8207 624.11 36.2389 624.074 35.5274C623.854 31.1756 623.798 30.5891 623.526 29.8653C623.158 28.8878 622.397 27.9718 621.489 27.4151C620.874 27.038 620.277 26.8215 619.514 26.6992C618.816 26.5876 618.853 26.5747 618.894 26.9191Z" fill="black"></path> <path d="M692.417 26.774L694.703 37.43L697.115 26.774H699.365L696.161 39.5H693.209L690.887 28.88L688.565 39.5H685.577L682.265 26.774H684.641L687.107 37.43L689.429 26.774H692.417ZM700.998 26.774H709.836V28.646H703.086V32.264H709.062V34.154H703.086V37.646H709.836V39.5H700.998V26.774ZM712.072 26.774H717.13C717.61 26.774 718.096 26.816 718.588 26.9C719.08 26.984 719.524 27.146 719.92 27.386C720.316 27.614 720.634 27.938 720.874 28.358C721.126 28.766 721.252 29.3 721.252 29.96C721.252 30.572 721.126 31.118 720.874 31.598C720.622 32.078 720.208 32.456 719.632 32.732C720.448 32.924 721.024 33.284 721.36 33.812C721.708 34.328 721.882 34.964 721.882 35.72C721.882 36.476 721.72 37.106 721.396 37.61C721.084 38.114 720.682 38.504 720.19 38.78C719.698 39.056 719.146 39.248 718.534 39.356C717.934 39.452 717.34 39.5 716.752 39.5H712.072V26.774ZM714.16 28.646V32.138H716.536C716.836 32.138 717.148 32.12 717.472 32.084C717.796 32.036 718.084 31.952 718.336 31.832C718.6 31.7 718.816 31.514 718.984 31.274C719.152 31.034 719.236 30.71 719.236 30.302C719.236 29.93 719.17 29.636 719.038 29.42C718.906 29.192 718.732 29.024 718.516 28.916C718.3 28.796 718.048 28.724 717.76 28.7C717.484 28.664 717.196 28.646 716.896 28.646H714.16ZM716.716 37.646C717.052 37.646 717.4 37.628 717.76 37.592C718.12 37.556 718.45 37.472 718.75 37.34C719.05 37.208 719.296 37.016 719.488 36.764C719.692 36.5 719.794 36.146 719.794 35.702C719.794 35.342 719.716 35.048 719.56 34.82C719.416 34.58 719.224 34.4 718.984 34.28C718.744 34.148 718.474 34.058 718.174 34.01C717.886 33.962 717.592 33.938 717.292 33.938C717.028 33.938 716.764 33.938 716.5 33.938L714.952 33.956C714.688 33.956 714.424 33.956 714.16 33.956V37.646H716.716ZM724.149 39.5V26.774H732.879V28.646H726.237V32.678H731.925V34.532H726.237V39.5H724.149ZM734.924 26.774H736.994V37.646H743.618V39.5H734.924V26.774ZM751.153 39.626C750.157 39.626 749.275 39.464 748.507 39.14C747.751 38.804 747.115 38.348 746.599 37.772C746.083 37.196 745.687 36.512 745.411 35.72C745.147 34.928 745.015 34.064 745.015 33.128C745.015 32.18 745.153 31.31 745.429 30.518C745.705 29.714 746.101 29.024 746.617 28.448C747.145 27.872 747.787 27.422 748.543 27.098C749.311 26.774 750.187 26.612 751.171 26.612C752.155 26.612 753.025 26.774 753.781 27.098C754.549 27.41 755.191 27.854 755.707 28.43C756.235 29.006 756.631 29.696 756.895 30.5C757.171 31.292 757.309 32.162 757.309 33.11C757.309 34.046 757.171 34.916 756.895 35.72C756.631 36.512 756.235 37.196 755.707 37.772C755.191 38.348 754.549 38.804 753.781 39.14C753.013 39.464 752.137 39.626 751.153 39.626ZM751.171 28.484C750.487 28.484 749.893 28.61 749.389 28.862C748.897 29.114 748.483 29.45 748.147 29.87C747.811 30.29 747.559 30.782 747.391 31.346C747.235 31.91 747.157 32.498 747.157 33.11C747.157 33.722 747.235 34.31 747.391 34.874C747.559 35.426 747.805 35.918 748.129 36.35C748.465 36.782 748.885 37.124 749.389 37.376C749.893 37.628 750.487 37.754 751.171 37.754C751.843 37.754 752.431 37.634 752.935 37.394C753.439 37.142 753.853 36.806 754.177 36.386C754.513 35.966 754.759 35.48 754.915 34.928C755.083 34.364 755.167 33.764 755.167 33.128C755.167 32.504 755.083 31.916 754.915 31.364C754.759 30.8 754.513 30.308 754.177 29.888C753.853 29.456 753.439 29.114 752.935 28.862C752.443 28.61 751.855 28.484 751.171 28.484ZM768.301 26.774L770.587 37.43L772.999 26.774H775.249L772.045 39.5H769.093L766.771 28.88L764.449 39.5H761.461L758.149 26.774H760.525L762.991 37.43L765.313 26.774H768.301ZM780.663 26.774H789.501V28.646H782.751V32.264H788.727V34.154H782.751V37.646H789.501V39.5H780.663V26.774ZM798.864 26.774H801.312L797.226 33.11L801.438 39.5H798.972L795.93 34.766L792.816 39.5H790.44L794.67 33.128L790.566 26.774H793.05L795.966 31.508L798.864 26.774ZM803.075 26.774H807.737C808.469 26.774 809.123 26.858 809.699 27.026C810.287 27.182 810.785 27.434 811.193 27.782C811.613 28.13 811.931 28.58 812.147 29.132C812.375 29.672 812.489 30.326 812.489 31.094C812.489 31.802 812.369 32.432 812.129 32.984C811.901 33.536 811.571 33.998 811.139 34.37C810.719 34.742 810.215 35.024 809.627 35.216C809.039 35.408 808.385 35.504 807.665 35.504H805.163V39.5H803.075V26.774ZM807.557 33.668C808.361 33.668 809.027 33.47 809.555 33.074C810.095 32.666 810.377 32.036 810.401 31.184C810.401 30.284 810.167 29.636 809.699 29.24C809.243 28.844 808.571 28.646 807.683 28.646H805.163V33.668H807.557ZM814.764 26.774H823.602V28.646H816.852V32.264H822.828V34.154H816.852V37.646H823.602V39.5H814.764V26.774ZM827.944 34.838V39.5H825.856V26.774H830.806C831.466 26.774 832.084 26.84 832.66 26.972C833.236 27.104 833.734 27.326 834.154 27.638C834.586 27.95 834.922 28.364 835.162 28.88C835.414 29.396 835.54 30.032 835.54 30.788C835.54 31.304 835.462 31.778 835.306 32.21C835.162 32.63 834.964 33.002 834.712 33.326C834.46 33.638 834.166 33.902 833.83 34.118C833.494 34.322 833.134 34.472 832.75 34.568L835.504 39.5H833.182C832.762 38.72 832.336 37.946 831.904 37.178C831.484 36.398 831.058 35.618 830.626 34.838H827.944ZM830.518 33.02C830.926 33.02 831.31 32.984 831.67 32.912C832.03 32.84 832.342 32.72 832.606 32.552C832.87 32.384 833.074 32.156 833.218 31.868C833.374 31.568 833.452 31.19 833.452 30.734C833.452 30.326 833.386 29.99 833.254 29.726C833.134 29.462 832.954 29.252 832.714 29.096C832.474 28.928 832.186 28.814 831.85 28.754C831.514 28.682 831.142 28.646 830.734 28.646H827.944V33.02H830.518ZM840.597 39.5V28.646H836.565V26.774H846.735V28.646H842.685V39.5H840.597Z" fill="black"></path> <rect x="900" width="314" height="67" rx="33.5" fill="#F8F8F8"></rect> <circle cx="930" cy="33" r="22" fill="#F8F8F8"></circle> <g clip-path="url(#clip1_2123_8804)"> <path d="M930 47.25C937.87 47.25 944.25 40.8701 944.25 33C944.25 25.1299 937.87 18.75 930 18.75C922.13 18.75 915.75 25.1299 915.75 33C915.75 40.8701 922.13 47.25 930 47.25Z" stroke="black" stroke-miterlimit="10"></path> <path d="M925.814 32.5547C925.883 32.5547 925.929 32.5547 925.974 32.5781C926.02 32.6016 926.089 32.625 926.135 32.6484L926.25 32.3438C926.112 32.2734 925.974 32.25 925.814 32.25C925.676 32.25 925.561 32.2734 925.446 32.3438C925.332 32.4141 925.263 32.4844 925.217 32.6016C925.171 32.7187 925.125 32.8359 925.125 33C925.125 33.2344 925.171 33.4219 925.286 33.5625C925.401 33.6797 925.561 33.75 925.768 33.75C925.929 33.75 926.043 33.7266 926.158 33.6797V33.3516C926.089 33.375 926.043 33.3984 925.974 33.4219C925.906 33.4453 925.86 33.4453 925.791 33.4453C925.584 33.4453 925.469 33.3047 925.469 33.0234C925.469 32.8828 925.492 32.7891 925.538 32.7187C925.653 32.6016 925.722 32.5547 925.814 32.5547Z" fill="black"></path> <path d="M927.872 33.4113C927.794 33.4113 927.715 33.4113 927.637 33.3871C927.558 33.3629 927.453 33.3387 927.375 33.2903V33.6532C927.453 33.6774 927.532 33.7016 927.61 33.7258C927.689 33.75 927.767 33.75 927.872 33.75C928.003 33.75 928.108 33.7258 928.212 33.7016C928.317 33.6532 928.369 33.6048 928.422 33.5323C928.474 33.4597 928.5 33.3871 928.5 33.2903C928.5 33.1935 928.474 33.0968 928.422 33.0484C928.369 32.9758 928.265 32.9274 928.134 32.8548C927.977 32.7823 927.898 32.7581 927.872 32.7339C927.846 32.7097 927.82 32.6855 927.82 32.6613C927.82 32.6371 927.82 32.6129 927.846 32.5887C927.872 32.5645 927.924 32.5645 927.977 32.5645C928.081 32.5645 928.212 32.5887 928.369 32.6613L928.5 32.3468C928.317 32.2742 928.16 32.25 927.977 32.25C927.794 32.25 927.637 32.2984 927.532 32.371C927.427 32.4435 927.375 32.5645 927.375 32.6855C927.375 32.7581 927.375 32.8306 927.401 32.879C927.427 32.9274 927.453 32.9758 927.506 33.0242C927.558 33.0726 927.637 33.121 927.741 33.1452C927.846 33.1935 927.924 33.2177 927.951 33.2419C927.977 33.2661 928.003 33.2661 928.003 33.2903C928.003 33.3145 928.029 33.3145 928.029 33.3387C928.029 33.3629 928.003 33.3871 927.977 33.4113C927.977 33.4113 927.924 33.4113 927.872 33.4113Z" fill="black"></path> <path d="M929.747 33.4113C929.669 33.4113 929.59 33.4113 929.512 33.3871C929.433 33.3629 929.328 33.3387 929.25 33.2903V33.6532C929.328 33.6774 929.407 33.7016 929.485 33.7258C929.564 33.75 929.642 33.75 929.747 33.75C929.878 33.75 929.983 33.7258 930.087 33.7016C930.192 33.6532 930.244 33.6048 930.297 33.5323C930.349 33.4597 930.375 33.3871 930.375 33.2903C930.375 33.1935 930.349 33.0968 930.297 33.0484C930.244 32.9758 930.14 32.9274 930.009 32.8548C929.852 32.7823 929.773 32.7581 929.747 32.7339C929.721 32.7097 929.695 32.6855 929.695 32.6613C929.695 32.6371 929.695 32.6129 929.721 32.5887C929.747 32.5645 929.799 32.5645 929.852 32.5645C929.956 32.5645 930.087 32.5887 930.244 32.6613L930.375 32.3468C930.192 32.2742 930.035 32.25 929.852 32.25C929.669 32.25 929.512 32.2984 929.407 32.371C929.302 32.4435 929.25 32.5645 929.25 32.6855C929.25 32.7581 929.25 32.8306 929.276 32.879C929.302 32.9274 929.328 32.9758 929.381 33.0242C929.433 33.0726 929.512 33.121 929.616 33.1452C929.721 33.1935 929.799 33.2177 929.826 33.2419C929.852 33.2661 929.878 33.2661 929.878 33.2903C929.878 33.3145 929.904 33.3145 929.904 33.3387C929.904 33.3629 929.878 33.3871 929.852 33.4113C929.878 33.4113 929.826 33.4113 929.747 33.4113Z" fill="black"></path> <path d="M932.25 32.9758C932.25 32.7339 932.185 32.5645 932.077 32.4435C931.969 32.3226 931.796 32.25 931.579 32.25H931.125V33.75H931.558C931.774 33.75 931.947 33.6774 932.077 33.5565C932.185 33.4113 932.25 33.2177 932.25 32.9758ZM931.796 33.3145C931.752 33.3871 931.666 33.4113 931.558 33.4113H931.471V32.5645H931.579C931.687 32.5645 931.752 32.5887 931.796 32.6613C931.839 32.7339 931.861 32.8306 931.861 32.9758C931.882 33.121 931.861 33.2419 931.796 33.3145Z" fill="black"></path> <path d="M934.367 33.4597L934.44 33.75H934.875L934.391 32.25H933.859L933.375 33.75H933.81L933.883 33.4597H934.367ZM934.077 32.6613C934.101 32.5887 934.101 32.5161 934.101 32.4919C934.101 32.5403 934.125 32.5887 934.149 32.6855C934.173 32.7823 934.198 32.8548 934.198 32.9032L934.27 33.1452H933.956C934.028 32.9032 934.077 32.7339 934.077 32.6613Z" fill="black"></path> <path d="M931.978 30.9111L930.396 29.4137L928.838 30.9111H927.948L931.236 27.75H927.799L924.486 30.9111H923.25V31.125H936.75V30.9111H931.978Z" fill="black"></path> <path d="M923.25 34.7394H927.997L929.53 36.2234L931.088 34.7394H931.929L928.665 37.875H932.126L933.832 36.2234L935.39 34.7394H936.75V34.5H923.25V34.7394Z" fill="black"></path> <path d="M920.25 31.8668V32.2826L919.273 32.5027C919.246 32.5027 919.167 32.5272 919.062 32.5516C918.956 32.5761 918.877 32.5761 918.85 32.5761C918.903 32.5761 918.956 32.6005 919.062 32.625C919.167 32.6495 919.22 32.6495 919.273 32.6739L920.224 32.9185V33.3342L918.375 33.75V33.4076L919.379 33.212C919.563 33.1875 919.722 33.163 919.854 33.1386C919.801 33.1386 919.722 33.1141 919.643 33.1141C919.537 33.0897 919.458 33.0897 919.405 33.0652L918.375 32.7962V32.4538L919.405 32.2337C919.458 32.2337 919.511 32.2092 919.616 32.1848C919.722 32.1603 919.801 32.1603 919.854 32.1603C919.801 32.1603 919.695 32.1359 919.616 32.1114C919.511 32.087 919.431 32.087 919.379 32.0625L918.375 31.8424V31.5L920.25 31.8668Z" fill="black"></path> <path d="M920.625 30.0804L920.381 31.125L918.75 30.6696L918.994 29.625L919.286 29.7054L919.14 30.3482L919.505 30.4554L919.651 29.8393L919.943 29.9196L919.797 30.5357L920.211 30.6429L920.357 30L920.625 30.0804Z" fill="black"></path> <path d="M919.125 28.2596L919.342 27.8201C919.438 27.6223 919.535 27.4904 919.655 27.4245C919.752 27.3585 919.872 27.3585 920.017 27.4245C920.113 27.4684 920.161 27.5124 920.209 27.5783C920.258 27.6442 920.258 27.7102 920.234 27.7761C920.306 27.6882 920.378 27.6442 920.45 27.6442C920.523 27.6223 920.619 27.6442 920.716 27.6882C920.86 27.7541 920.932 27.842 920.981 27.9519C921.029 28.0618 920.981 28.2157 920.908 28.3695L920.643 28.875L919.125 28.2596ZM919.872 28.2157L919.968 28.0398C920.017 27.9519 920.017 27.908 920.017 27.842C920.017 27.7981 919.968 27.7541 919.92 27.7321C919.872 27.7102 919.8 27.7102 919.776 27.7321C919.727 27.7541 919.679 27.8201 919.655 27.908L919.583 28.0618L919.872 28.2157ZM920.113 28.3255L920.499 28.5014L920.595 28.3036C920.643 28.2157 920.643 28.1497 920.643 28.1058C920.619 28.0618 920.595 28.0179 920.523 27.9739C920.402 27.9299 920.282 27.9739 920.209 28.1277L920.113 28.3255Z" fill="black"></path> <path d="M921.943 26.25C922.057 26.35 922.125 26.45 922.125 26.6C922.125 26.75 922.08 26.9 921.966 27.05C921.875 27.2 921.761 27.3 921.625 27.375L921.375 27.175C921.466 27.1 921.557 27.05 921.625 27C921.693 26.95 921.739 26.9 921.761 26.85C921.807 26.775 921.83 26.725 921.83 26.675C921.83 26.625 921.807 26.575 921.761 26.55C921.739 26.525 921.716 26.5 921.693 26.5C921.67 26.5 921.625 26.5 921.602 26.525C921.58 26.55 921.489 26.575 921.398 26.625C921.307 26.675 921.216 26.725 921.17 26.725C921.102 26.75 921.057 26.75 920.989 26.725C920.92 26.725 920.875 26.675 920.807 26.625C920.693 26.525 920.625 26.425 920.625 26.275C920.625 26.15 920.67 26 920.761 25.85C920.807 25.775 920.875 25.725 920.92 25.65C920.966 25.575 921.057 25.55 921.125 25.5L921.261 25.775C921.193 25.825 921.125 25.875 921.08 25.925C921.034 25.975 920.989 26 920.966 26.05C920.92 26.1 920.92 26.15 920.92 26.2C920.92 26.25 920.943 26.3 920.989 26.325C921.011 26.35 921.034 26.35 921.057 26.35C921.08 26.35 921.102 26.35 921.148 26.325C921.193 26.3 921.261 26.275 921.352 26.2C921.489 26.125 921.602 26.075 921.693 26.075C921.784 26.15 921.852 26.175 921.943 26.25Z" fill="black"></path> <path d="M922.996 25.875L921.75 24.6292L922.004 24.375L923.25 25.6208L922.996 25.875Z" fill="black"></path> <path d="M924.375 24.903L924.044 25.125L923.107 23.9901L922.693 24.2615L922.5 24.0148L923.658 23.25L923.851 23.4967L923.437 23.7681L924.375 24.903Z" fill="black"></path> <path d="M925.875 23.6016L925.057 24L924.375 22.5234L925.193 22.125L925.307 22.3828L924.784 22.6406L924.943 22.9688L925.42 22.7344L925.534 22.9922L925.057 23.2266L925.239 23.6016L925.761 23.3438L925.875 23.6016Z" fill="black"></path> <path d="M929.619 22.2349C929.642 22.5194 929.596 22.7781 929.482 22.9333C929.367 23.0885 929.184 23.2178 928.955 23.2436C928.703 23.2695 928.52 23.2178 928.383 23.0626C928.245 22.9074 928.154 22.7005 928.131 22.3901C928.108 22.0797 928.154 21.8469 928.268 21.6917C928.383 21.5365 928.566 21.4331 928.795 21.3814C929.047 21.3555 929.23 21.4072 929.367 21.5624C929.505 21.7176 929.596 21.9245 929.619 22.2349ZM928.474 22.3642C928.497 22.5712 928.543 22.7005 928.612 22.8039C928.68 22.9074 928.795 22.9333 928.932 22.9333C929.207 22.9074 929.322 22.6746 929.276 22.2866C929.23 21.8728 929.093 21.6917 928.818 21.7176C928.68 21.7435 928.589 21.7952 928.52 21.8987C928.451 22.0021 928.451 22.1573 928.474 22.3642Z" fill="black"></path> <path d="M930.717 23.25L930.375 23.2232L930.546 21.375L931.5 21.4821L931.476 21.8036L930.864 21.7232L930.815 22.2054L931.378 22.2589L931.353 22.5804L930.791 22.5268L930.717 23.25Z" fill="black"></path> <path d="M934.075 24L933.75 23.8539L934.35 22.5877L933.925 22.3929L934.05 22.125L935.25 22.6607L935.125 22.9286L934.7 22.7338L934.075 24Z" fill="black"></path> <path d="M936.065 25.5L935.754 25.275L936.22 24.675L935.651 24.275L935.185 24.875L934.875 24.65L935.935 23.25L936.246 23.475L935.832 24.025L936.401 24.425L936.815 23.875L937.125 24.1L936.065 25.5Z" fill="black"></path> <path d="M937.391 26.625L936.75 25.8849L937.984 24.75L938.625 25.4901L938.411 25.6875L938.008 25.2187L937.747 25.4655L938.127 25.8849L937.913 26.0822L937.533 25.6628L937.225 25.9589L937.628 26.4276L937.391 26.625Z" fill="black"></path> <path d="M939.986 29.5294C939.714 29.6372 939.491 29.6642 939.293 29.5563C939.095 29.4485 938.922 29.2598 938.823 28.9632L938.625 28.4779L940.209 27.75L940.407 28.2892C940.506 28.5588 940.531 28.8284 940.457 29.0441C940.383 29.2598 940.234 29.4215 939.986 29.5294ZM939.813 29.1519C940.16 28.9902 940.259 28.7475 940.135 28.424L940.061 28.2353L939.021 28.6936L939.071 28.8554C939.244 29.2059 939.467 29.3137 939.813 29.1519Z" fill="black"></path> <path d="M939.597 31.1591L939.967 30.9773L939.868 30.4091L939.449 30.3636L939.375 30L941.176 30.2727L941.25 30.6818L939.671 31.5L939.597 31.1591ZM940.263 30.8409C940.609 30.6818 940.806 30.5909 940.855 30.5682C940.905 30.5455 940.929 30.5227 940.954 30.5227C940.855 30.5227 940.584 30.5 940.189 30.4318L940.263 30.8409Z" fill="black"></path> <path d="M940.473 32.9877L941.223 33.3566V33.75L940.098 33.1598L939.375 33.1352V32.7664L940.098 32.791L941.25 32.25V32.6434L940.473 32.9877Z" fill="black"></path> <path d="M922.848 42.0872L923.062 41.6424L922.527 41.1715L922.098 41.4331L921.75 41.1453L923.625 40.125L924 40.4651L923.196 42.375L922.848 42.0872ZM923.223 41.3023C923.411 40.9099 923.518 40.6744 923.545 40.6221C923.571 40.5698 923.598 40.5174 923.598 40.4913C923.491 40.5698 923.25 40.7006 922.821 40.9622L923.223 41.3023Z" fill="black"></path> <path d="M925.412 43.875L925.015 43.675L925.213 42.675C925.213 42.65 925.238 42.575 925.263 42.45C925.288 42.35 925.313 42.275 925.337 42.225C925.313 42.275 925.263 42.325 925.213 42.4C925.139 42.475 925.114 42.55 925.065 42.575L924.396 43.35L924 43.15L924.396 41.25L924.743 41.425L924.495 42.45C924.446 42.65 924.396 42.8 924.347 42.925C924.371 42.875 924.421 42.825 924.471 42.75C924.52 42.675 924.594 42.6 924.619 42.55L925.337 41.725L925.659 41.9L925.436 42.975C925.436 43.025 925.412 43.1 925.387 43.2C925.362 43.3 925.337 43.375 925.313 43.45C925.337 43.4 925.387 43.325 925.461 43.25C925.511 43.175 925.56 43.1 925.61 43.05L926.278 42.25L926.625 42.425L925.412 43.875Z" fill="black"></path> <path d="M928.452 44.5166L928.4 44.0015L927.687 43.866L927.449 44.3268L927 44.2455L928.056 42.375L928.558 42.4834L928.875 44.625L928.452 44.5166ZM928.373 43.6491C928.32 43.1883 928.294 42.9443 928.294 42.863C928.294 42.7816 928.294 42.7545 928.294 42.7274C928.241 42.8358 928.109 43.1069 927.871 43.5407L928.373 43.6491Z" fill="black"></path> <path d="M930.054 43.9095L930.077 44.625H929.696L929.625 42.7747L930.149 42.75C930.387 42.75 930.577 42.7747 930.696 42.8734C930.815 42.972 930.887 43.0954 930.887 43.2928C930.887 43.3914 930.863 43.4901 930.815 43.5888C930.768 43.6875 930.673 43.7368 930.577 43.7862C930.863 44.1809 931.054 44.4523 931.125 44.5757L930.696 44.6003L930.244 43.9095H930.054ZM930.03 43.5888H930.149C930.268 43.5888 930.363 43.5641 930.411 43.5148C930.458 43.4655 930.482 43.4161 930.482 43.3174C930.482 43.2187 930.458 43.1694 930.387 43.1447C930.315 43.1201 930.244 43.0954 930.125 43.0954H930.006L930.03 43.5888Z" fill="black"></path> <path d="M933.704 42.9851C933.783 43.2662 933.757 43.5004 933.651 43.6878C933.545 43.8752 933.28 44.0158 932.935 44.1095L932.405 44.25L931.875 42.5635L932.485 42.423C932.803 42.3527 933.068 42.3527 933.28 42.4698C933.465 42.5401 933.624 42.704 933.704 42.9851ZM933.28 43.0788C933.174 42.704 932.935 42.5869 932.564 42.6572L932.352 42.704L932.697 43.805L932.882 43.7581C933.28 43.6878 933.412 43.4536 933.28 43.0788Z" fill="black"></path> <path d="M935.625 42.9569L934.662 43.5L933.75 41.7931L934.713 41.25L934.865 41.5345L934.257 41.8707L934.459 42.2586L935.017 41.9483L935.169 42.2328L934.611 42.5431L934.84 42.9828L935.448 42.6466L935.625 42.9569Z" fill="black"></path> <path d="M937.198 40.4809C937.415 40.7244 937.523 40.995 937.496 41.2385C937.469 41.5091 937.334 41.7526 937.063 41.9691L936.603 42.375L935.25 40.8326L935.737 40.4267C935.981 40.2103 936.224 40.102 936.495 40.1291C936.738 40.1291 936.982 40.2373 937.198 40.4809ZM936.846 40.7785C936.549 40.4538 936.278 40.3997 935.981 40.6703L935.818 40.8326L936.684 41.8338L936.819 41.7256C937.144 41.4279 937.144 41.1303 936.846 40.7785Z" fill="black"></path> </g> <path d="M990.151 28.484C989.479 28.484 988.897 28.61 988.405 28.862C987.925 29.114 987.529 29.45 987.217 29.87C986.905 30.29 986.671 30.782 986.515 31.346C986.371 31.898 986.299 32.48 986.299 33.092C986.299 33.716 986.377 34.31 986.533 34.874C986.689 35.438 986.923 35.936 987.235 36.368C987.559 36.788 987.967 37.124 988.459 37.376C988.951 37.628 989.533 37.754 990.205 37.754C991.033 37.754 991.723 37.574 992.275 37.214C992.839 36.854 993.193 36.368 993.337 35.756H995.425C995.329 36.368 995.125 36.914 994.813 37.394C994.513 37.874 994.135 38.282 993.679 38.618C993.223 38.942 992.695 39.194 992.095 39.374C991.495 39.542 990.853 39.626 990.169 39.626C989.173 39.626 988.297 39.464 987.541 39.14C986.797 38.816 986.173 38.366 985.669 37.79C985.165 37.214 984.787 36.53 984.535 35.738C984.283 34.946 984.157 34.076 984.157 33.128C984.157 32.204 984.283 31.346 984.535 30.554C984.799 29.75 985.183 29.06 985.687 28.484C986.191 27.896 986.815 27.44 987.559 27.116C988.315 26.78 989.191 26.612 990.187 26.612C991.591 26.612 992.749 26.942 993.661 27.602C994.573 28.262 995.125 29.234 995.317 30.518H993.265C993.109 29.894 992.761 29.402 992.221 29.042C991.681 28.67 990.991 28.484 990.151 28.484ZM1002.15 28.466C1001.88 28.466 1001.6 28.49 1001.31 28.538C1001.02 28.586 1000.76 28.676 1000.52 28.808C1000.28 28.928 1000.08 29.102 999.922 29.33C999.766 29.546 999.688 29.822 999.688 30.158C999.688 30.662 999.856 31.046 1000.19 31.31C1000.53 31.562 1000.93 31.754 1001.4 31.886C1001.73 31.982 1002.07 32.072 1002.41 32.156C1002.75 32.24 1003.07 32.312 1003.36 32.372C1003.86 32.48 1004.34 32.612 1004.78 32.768C1005.24 32.924 1005.63 33.134 1005.97 33.398C1006.31 33.65 1006.57 33.974 1006.76 34.37C1006.97 34.754 1007.07 35.234 1007.07 35.81C1007.07 36.494 1006.94 37.076 1006.69 37.556C1006.45 38.036 1006.12 38.432 1005.7 38.744C1005.28 39.056 1004.79 39.284 1004.22 39.428C1003.66 39.572 1003.05 39.644 1002.41 39.644C1001.75 39.644 1001.12 39.578 1000.52 39.446C999.928 39.302 999.4 39.08 998.932 38.78C998.464 38.468 998.074 38.072 997.762 37.592C997.45 37.112 997.252 36.536 997.168 35.864H999.328C999.424 36.224 999.58 36.524 999.796 36.764C1000.01 37.004 1000.26 37.196 1000.53 37.34C1000.82 37.484 1001.13 37.586 1001.45 37.646C1001.78 37.706 1002.09 37.736 1002.41 37.736C1002.74 37.736 1003.07 37.712 1003.38 37.664C1003.69 37.604 1003.96 37.508 1004.19 37.376C1004.42 37.244 1004.6 37.07 1004.75 36.854C1004.89 36.638 1004.96 36.356 1004.96 36.008C1004.96 35.528 1004.84 35.18 1004.58 34.964C1004.33 34.736 1004 34.568 1003.58 34.46C1003 34.292 1002.41 34.148 1001.79 34.028C1001.19 33.896 1000.62 33.728 1000.08 33.524C999.724 33.392 999.394 33.236 999.094 33.056C998.794 32.876 998.53 32.66 998.302 32.408C998.074 32.156 997.894 31.862 997.762 31.526C997.642 31.178 997.582 30.776 997.582 30.32C997.582 29.624 997.714 29.042 997.978 28.574C998.242 28.094 998.584 27.71 999.004 27.422C999.436 27.134 999.922 26.93 1000.46 26.81C1001 26.678 1001.55 26.612 1002.12 26.612C1002.72 26.612 1003.29 26.684 1003.83 26.828C1004.37 26.96 1004.85 27.17 1005.27 27.458C1005.69 27.746 1006.02 28.118 1006.28 28.574C1006.54 29.03 1006.7 29.582 1006.74 30.23H1004.69C1004.64 29.906 1004.54 29.636 1004.39 29.42C1004.24 29.204 1004.06 29.03 1003.83 28.898C1003.61 28.754 1003.36 28.652 1003.07 28.592C1002.78 28.52 1002.48 28.478 1002.15 28.466ZM1014.09 28.466C1013.81 28.466 1013.53 28.49 1013.24 28.538C1012.96 28.586 1012.69 28.676 1012.45 28.808C1012.21 28.928 1012.01 29.102 1011.86 29.33C1011.7 29.546 1011.62 29.822 1011.62 30.158C1011.62 30.662 1011.79 31.046 1012.13 31.31C1012.46 31.562 1012.87 31.754 1013.33 31.886C1013.67 31.982 1014.01 32.072 1014.34 32.156C1014.69 32.24 1015.01 32.312 1015.3 32.372C1015.8 32.48 1016.27 32.612 1016.72 32.768C1017.17 32.924 1017.57 33.134 1017.91 33.398C1018.24 33.65 1018.51 33.974 1018.7 34.37C1018.9 34.754 1019 35.234 1019 35.81C1019 36.494 1018.88 37.076 1018.63 37.556C1018.39 38.036 1018.06 38.432 1017.64 38.744C1017.22 39.056 1016.72 39.284 1016.16 39.428C1015.6 39.572 1014.99 39.644 1014.34 39.644C1013.68 39.644 1013.05 39.578 1012.45 39.446C1011.86 39.302 1011.34 39.08 1010.87 38.78C1010.4 38.468 1010.01 38.072 1009.7 37.592C1009.39 37.112 1009.19 36.536 1009.1 35.864H1011.26C1011.36 36.224 1011.52 36.524 1011.73 36.764C1011.95 37.004 1012.19 37.196 1012.47 37.34C1012.76 37.484 1013.06 37.586 1013.39 37.646C1013.71 37.706 1014.03 37.736 1014.34 37.736C1014.68 37.736 1015 37.712 1015.31 37.664C1015.63 37.604 1015.9 37.508 1016.12 37.376C1016.35 37.244 1016.54 37.07 1016.68 36.854C1016.83 36.638 1016.9 36.356 1016.9 36.008C1016.9 35.528 1016.77 35.18 1016.52 34.964C1016.27 34.736 1015.93 34.568 1015.51 34.46C1014.94 34.292 1014.34 34.148 1013.73 34.028C1013.13 33.896 1012.56 33.728 1012.02 33.524C1011.66 33.392 1011.33 33.236 1011.03 33.056C1010.73 32.876 1010.47 32.66 1010.24 32.408C1010.01 32.156 1009.83 31.862 1009.7 31.526C1009.58 31.178 1009.52 30.776 1009.52 30.32C1009.52 29.624 1009.65 29.042 1009.91 28.574C1010.18 28.094 1010.52 27.71 1010.94 27.422C1011.37 27.134 1011.86 26.93 1012.4 26.81C1012.94 26.678 1013.49 26.612 1014.05 26.612C1014.65 26.612 1015.22 26.684 1015.76 26.828C1016.3 26.96 1016.78 27.17 1017.2 27.458C1017.62 27.746 1017.96 28.118 1018.21 28.574C1018.48 29.03 1018.63 29.582 1018.68 30.23H1016.63C1016.58 29.906 1016.48 29.636 1016.32 29.42C1016.18 29.204 1015.99 29.03 1015.76 28.898C1015.55 28.754 1015.3 28.652 1015.01 28.592C1014.72 28.52 1014.41 28.478 1014.09 28.466ZM1026.29 26.774H1030.9C1031.91 26.774 1032.79 26.924 1033.56 27.224C1034.34 27.512 1034.99 27.932 1035.51 28.484C1036.03 29.024 1036.43 29.69 1036.69 30.482C1036.96 31.274 1037.09 32.162 1037.09 33.146C1037.09 34.142 1036.96 35.03 1036.69 35.81C1036.43 36.59 1036.04 37.256 1035.52 37.808C1035.02 38.36 1034.38 38.78 1033.62 39.068C1032.86 39.356 1031.98 39.5 1030.97 39.5H1026.29V26.774ZM1028.38 28.646V37.646H1030.92C1031.61 37.646 1032.21 37.538 1032.72 37.322C1033.22 37.106 1033.63 36.806 1033.96 36.422C1034.29 36.026 1034.54 35.552 1034.7 35C1034.86 34.448 1034.95 33.83 1034.95 33.146C1034.95 31.73 1034.6 30.626 1033.9 29.834C1033.22 29.042 1032.22 28.646 1030.9 28.646H1028.38ZM1039.35 26.774H1048.19V28.646H1041.44V32.264H1047.42V34.154H1041.44V37.646H1048.19V39.5H1039.35V26.774ZM1054.89 28.466C1054.61 28.466 1054.33 28.49 1054.04 28.538C1053.75 28.586 1053.49 28.676 1053.25 28.808C1053.01 28.928 1052.81 29.102 1052.66 29.33C1052.5 29.546 1052.42 29.822 1052.42 30.158C1052.42 30.662 1052.59 31.046 1052.93 31.31C1053.26 31.562 1053.66 31.754 1054.13 31.886C1054.47 31.982 1054.8 32.072 1055.14 32.156C1055.49 32.24 1055.81 32.312 1056.09 32.372C1056.6 32.48 1057.07 32.612 1057.52 32.768C1057.97 32.924 1058.37 33.134 1058.7 33.398C1059.04 33.65 1059.3 33.974 1059.5 34.37C1059.7 34.754 1059.8 35.234 1059.8 35.81C1059.8 36.494 1059.68 37.076 1059.42 37.556C1059.18 38.036 1058.85 38.432 1058.43 38.744C1058.01 39.056 1057.52 39.284 1056.96 39.428C1056.39 39.572 1055.79 39.644 1055.14 39.644C1054.48 39.644 1053.85 39.578 1053.25 39.446C1052.66 39.302 1052.13 39.08 1051.67 38.78C1051.2 38.468 1050.81 38.072 1050.5 37.592C1050.18 37.112 1049.99 36.536 1049.9 35.864H1052.06C1052.16 36.224 1052.31 36.524 1052.53 36.764C1052.75 37.004 1052.99 37.196 1053.27 37.34C1053.56 37.484 1053.86 37.586 1054.19 37.646C1054.51 37.706 1054.83 37.736 1055.14 37.736C1055.48 37.736 1055.8 37.712 1056.11 37.664C1056.42 37.604 1056.69 37.508 1056.92 37.376C1057.15 37.244 1057.34 37.07 1057.48 36.854C1057.62 36.638 1057.7 36.356 1057.7 36.008C1057.7 35.528 1057.57 35.18 1057.32 34.964C1057.07 34.736 1056.73 34.568 1056.31 34.46C1055.73 34.292 1055.14 34.148 1054.53 34.028C1053.93 33.896 1053.36 33.728 1052.82 33.524C1052.46 33.392 1052.13 33.236 1051.83 33.056C1051.53 32.876 1051.26 32.66 1051.04 32.408C1050.81 32.156 1050.63 31.862 1050.5 31.526C1050.38 31.178 1050.32 30.776 1050.32 30.32C1050.32 29.624 1050.45 29.042 1050.71 28.574C1050.98 28.094 1051.32 27.71 1051.74 27.422C1052.17 27.134 1052.66 26.93 1053.2 26.81C1053.74 26.678 1054.29 26.612 1054.85 26.612C1055.45 26.612 1056.02 26.684 1056.56 26.828C1057.1 26.96 1057.58 27.17 1058 27.458C1058.42 27.746 1058.76 28.118 1059.01 28.574C1059.27 29.03 1059.43 29.582 1059.48 30.23H1057.43C1057.38 29.906 1057.28 29.636 1057.12 29.42C1056.98 29.204 1056.79 29.03 1056.56 28.898C1056.35 28.754 1056.09 28.652 1055.81 28.592C1055.52 28.52 1055.21 28.478 1054.89 28.466ZM1064.33 39.5H1062.24V26.774H1064.33V39.5ZM1072.52 28.484C1071.85 28.496 1071.27 28.628 1070.79 28.88C1070.31 29.132 1069.92 29.468 1069.6 29.888C1069.3 30.308 1069.08 30.8 1068.94 31.364C1068.79 31.916 1068.72 32.504 1068.72 33.128C1068.72 33.752 1068.79 34.346 1068.94 34.91C1069.09 35.462 1069.33 35.954 1069.64 36.386C1069.96 36.806 1070.37 37.142 1070.86 37.394C1071.36 37.634 1071.94 37.754 1072.61 37.754C1073.7 37.754 1074.55 37.472 1075.15 36.908C1075.76 36.332 1076.08 35.588 1076.1 34.676H1072.38V32.912H1078.1C1078.1 33.368 1078.09 33.83 1078.06 34.298C1078.05 34.754 1077.99 35.234 1077.87 35.738C1077.72 36.278 1077.51 36.788 1077.24 37.268C1076.96 37.736 1076.61 38.144 1076.17 38.492C1075.74 38.84 1075.23 39.116 1074.63 39.32C1074.04 39.524 1073.36 39.626 1072.59 39.626C1071.6 39.626 1070.72 39.47 1069.96 39.158C1069.22 38.834 1068.6 38.384 1068.09 37.808C1067.59 37.232 1067.21 36.548 1066.96 35.756C1066.71 34.964 1066.58 34.1 1066.58 33.164C1066.58 32.216 1066.71 31.34 1066.96 30.536C1067.21 29.732 1067.58 29.042 1068.07 28.466C1068.58 27.878 1069.2 27.422 1069.95 27.098C1070.7 26.774 1071.58 26.612 1072.57 26.612C1073.27 26.612 1073.91 26.702 1074.5 26.882C1075.1 27.05 1075.63 27.302 1076.08 27.638C1076.54 27.962 1076.92 28.37 1077.22 28.862C1077.52 29.342 1077.72 29.894 1077.81 30.518H1075.71C1075.55 29.882 1075.18 29.384 1074.61 29.024C1074.04 28.664 1073.35 28.484 1072.52 28.484ZM1080.34 39.5V26.774H1082.59L1088.93 36.332V26.774H1091V39.5H1088.77L1082.4 29.978V39.5H1080.34ZM1107.35 39.5L1106.41 36.926H1100.64L1099.68 39.5H1097.41L1102.24 26.774H1104.83L1109.64 39.5H1107.35ZM1105.77 35.054L1103.53 28.826L1101.28 35.054H1105.77ZM1119.5 26.774L1121.79 37.43L1124.2 26.774H1126.45L1123.25 39.5H1120.3L1117.97 28.88L1115.65 39.5H1112.66L1109.35 26.774H1111.73L1114.19 37.43L1116.52 26.774H1119.5ZM1136.09 39.5L1135.15 36.926H1129.38L1128.42 39.5H1126.15L1130.98 26.774H1133.57L1138.38 39.5H1136.09ZM1134.51 35.054L1132.27 28.826L1130.02 35.054H1134.51ZM1142.04 34.838V39.5H1139.95V26.774H1144.9C1145.56 26.774 1146.18 26.84 1146.75 26.972C1147.33 27.104 1147.83 27.326 1148.25 27.638C1148.68 27.95 1149.02 28.364 1149.26 28.88C1149.51 29.396 1149.63 30.032 1149.63 30.788C1149.63 31.304 1149.56 31.778 1149.4 32.21C1149.26 32.63 1149.06 33.002 1148.81 33.326C1148.55 33.638 1148.26 33.902 1147.92 34.118C1147.59 34.322 1147.23 34.472 1146.84 34.568L1149.6 39.5H1147.28C1146.86 38.72 1146.43 37.946 1146 37.178C1145.58 36.398 1145.15 35.618 1144.72 34.838H1142.04ZM1144.61 33.02C1145.02 33.02 1145.4 32.984 1145.76 32.912C1146.12 32.84 1146.44 32.72 1146.7 32.552C1146.96 32.384 1147.17 32.156 1147.31 31.868C1147.47 31.568 1147.55 31.19 1147.55 30.734C1147.55 30.326 1147.48 29.99 1147.35 29.726C1147.23 29.462 1147.05 29.252 1146.81 29.096C1146.57 28.928 1146.28 28.814 1145.94 28.754C1145.61 28.682 1145.24 28.646 1144.83 28.646H1142.04V33.02H1144.61ZM1151.97 26.774H1156.58C1157.59 26.774 1158.48 26.924 1159.25 27.224C1160.03 27.512 1160.67 27.932 1161.19 28.484C1161.72 29.024 1162.11 29.69 1162.38 30.482C1162.64 31.274 1162.77 32.162 1162.77 33.146C1162.77 34.142 1162.64 35.03 1162.38 35.81C1162.11 36.59 1161.72 37.256 1161.21 37.808C1160.7 38.36 1160.07 38.78 1159.3 39.068C1158.54 39.356 1157.66 39.5 1156.65 39.5H1151.97V26.774ZM1154.06 28.646V37.646H1156.6C1157.3 37.646 1157.9 37.538 1158.4 37.322C1158.9 37.106 1159.32 36.806 1159.64 36.422C1159.98 36.026 1160.22 35.552 1160.38 35C1160.55 34.448 1160.63 33.83 1160.63 33.146C1160.63 31.73 1160.28 30.626 1159.59 29.834C1158.9 29.042 1157.9 28.646 1156.58 28.646H1154.06ZM1169.74 28.466C1169.47 28.466 1169.19 28.49 1168.9 28.538C1168.61 28.586 1168.35 28.676 1168.11 28.808C1167.87 28.928 1167.67 29.102 1167.51 29.33C1167.36 29.546 1167.28 29.822 1167.28 30.158C1167.28 30.662 1167.45 31.046 1167.78 31.31C1168.12 31.562 1168.52 31.754 1168.99 31.886C1169.32 31.982 1169.66 32.072 1170 32.156C1170.34 32.24 1170.66 32.312 1170.95 32.372C1171.45 32.48 1171.93 32.612 1172.37 32.768C1172.83 32.924 1173.22 33.134 1173.56 33.398C1173.9 33.65 1174.16 33.974 1174.35 34.37C1174.56 34.754 1174.66 35.234 1174.66 35.81C1174.66 36.494 1174.53 37.076 1174.28 37.556C1174.04 38.036 1173.71 38.432 1173.29 38.744C1172.87 39.056 1172.38 39.284 1171.81 39.428C1171.25 39.572 1170.64 39.644 1170 39.644C1169.34 39.644 1168.71 39.578 1168.11 39.446C1167.52 39.302 1166.99 39.08 1166.52 38.78C1166.05 38.468 1165.66 38.072 1165.35 37.592C1165.04 37.112 1164.84 36.536 1164.76 35.864H1166.92C1167.01 36.224 1167.17 36.524 1167.39 36.764C1167.6 37.004 1167.85 37.196 1168.12 37.34C1168.41 37.484 1168.72 37.586 1169.04 37.646C1169.37 37.706 1169.68 37.736 1170 37.736C1170.33 37.736 1170.66 37.712 1170.97 37.664C1171.28 37.604 1171.55 37.508 1171.78 37.376C1172.01 37.244 1172.19 37.07 1172.34 36.854C1172.48 36.638 1172.55 36.356 1172.55 36.008C1172.55 35.528 1172.43 35.18 1172.17 34.964C1171.92 34.736 1171.59 34.568 1171.17 34.46C1170.59 34.292 1170 34.148 1169.38 34.028C1168.78 33.896 1168.21 33.728 1167.67 33.524C1167.31 33.392 1166.98 33.236 1166.68 33.056C1166.38 32.876 1166.12 32.66 1165.89 32.408C1165.66 32.156 1165.48 31.862 1165.35 31.526C1165.23 31.178 1165.17 30.776 1165.17 30.32C1165.17 29.624 1165.3 29.042 1165.57 28.574C1165.83 28.094 1166.17 27.71 1166.59 27.422C1167.03 27.134 1167.51 26.93 1168.05 26.81C1168.59 26.678 1169.14 26.612 1169.71 26.612C1170.31 26.612 1170.88 26.684 1171.42 26.828C1171.96 26.96 1172.44 27.17 1172.86 27.458C1173.28 27.746 1173.61 28.118 1173.87 28.574C1174.13 29.03 1174.29 29.582 1174.33 30.23H1172.28C1172.23 29.906 1172.13 29.636 1171.98 29.42C1171.83 29.204 1171.65 29.03 1171.42 28.898C1171.2 28.754 1170.95 28.652 1170.66 28.592C1170.37 28.52 1170.07 28.478 1169.74 28.466Z" fill="black"></path> <rect x="1229" width="301" height="67" rx="33.5" fill="#F8F8F8"></rect> <circle cx="1259" cy="33" r="22" fill="#F8F8F8"></circle> <path fill-rule="evenodd" clip-rule="evenodd" d="M1264.74 27.0139C1264.2 27.0178 1263.74 27.0293 1263.73 27.0396C1263.71 27.0559 1263.5 27.7677 1263.26 28.6291C1263.19 28.8756 1262.02 32.9792 1261.8 33.7344C1261.75 33.8946 1261.65 34.2424 1261.58 34.5071C1261.4 35.134 1261.39 35.1489 1261.37 35.1026C1261.37 35.0816 1261.22 34.5458 1261.05 33.9117C1260.88 33.2777 1260.54 32.0121 1260.29 31.0994C1260.04 30.1867 1259.7 28.9064 1259.52 28.2544C1259.35 27.6024 1259.19 27.058 1259.19 27.0446C1259.18 27.0295 1258.62 27.0203 1257.72 27.0203H1256.26L1256.23 27.0773C1256.22 27.1086 1256.05 27.7271 1255.85 28.4518C1255.66 29.1764 1255.3 30.5103 1255.06 31.4161C1254.81 32.3219 1254.5 33.4848 1254.36 34.0004C1254.07 35.0806 1254.05 35.1361 1254.04 35.1241C1254.03 35.1161 1253.21 32.2825 1253.06 31.7201C1252.86 31.0118 1251.73 27.0627 1251.71 27.0433C1251.69 27.0155 1248.52 27.0115 1248.5 27.0393C1248.49 27.0602 1248.51 27.1265 1249.07 28.7178C1249.28 29.324 1249.64 30.3501 1249.87 30.9981C1250.09 31.646 1250.42 32.5638 1250.58 33.0376C1250.75 33.5114 1251.08 34.4463 1251.31 35.1152C1252.33 38.032 1252.61 38.8166 1252.63 38.8523C1252.65 38.8853 1252.83 38.8905 1254.04 38.8914C1254.97 38.892 1255.43 38.8836 1255.45 38.866C1255.46 38.8515 1255.53 38.6515 1255.59 38.4216C1255.74 37.8862 1255.84 37.5484 1256.55 35.1279C1256.64 34.8144 1256.78 34.3184 1256.87 34.0258C1256.95 33.7331 1257.11 33.1916 1257.22 32.8223C1257.32 32.453 1257.47 31.9513 1257.54 31.7075C1257.61 31.4636 1257.68 31.2494 1257.69 31.2314C1257.7 31.2133 1257.75 31.36 1257.81 31.5608C1257.92 31.9594 1258.28 33.193 1258.49 33.8864C1258.56 34.1303 1258.67 34.5208 1258.74 34.7542C1258.81 34.9876 1258.92 35.3724 1258.99 35.6093C1259.28 36.5832 1259.37 36.9226 1259.57 37.6109C1259.69 38.008 1259.82 38.4499 1259.86 38.5929L1259.94 38.8528L1261.35 38.8462L1262.76 38.8397L1262.84 38.6243C1262.88 38.5059 1263.11 37.8617 1263.34 37.1928C1263.58 36.5239 1263.9 35.589 1264.07 35.1152C1264.24 34.6414 1264.56 33.7236 1264.78 33.0756C1265.2 31.895 1265.68 30.4986 1266.35 28.6038C1266.75 27.4539 1266.9 27.0413 1266.9 27.0139C1266.9 27.0035 1266.63 26.9976 1266.31 27.0009C1266 27.0042 1265.29 27.0101 1264.74 27.0139ZM1271.4 35.091C1270.37 35.289 1269.69 36.0629 1269.69 37.0281C1269.69 37.6147 1269.91 38.0931 1270.34 38.4728C1271.1 39.1452 1272.46 39.1794 1273.26 38.5466C1273.86 38.079 1274.12 37.3304 1273.95 36.5753C1273.8 35.9378 1273.33 35.4226 1272.69 35.1969C1272.29 35.0555 1271.79 35.0149 1271.4 35.091Z" fill="black"></path> <path d="M1318.16 28.466C1317.88 28.466 1317.6 28.49 1317.31 28.538C1317.03 28.586 1316.76 28.676 1316.52 28.808C1316.28 28.928 1316.08 29.102 1315.93 29.33C1315.77 29.546 1315.69 29.822 1315.69 30.158C1315.69 30.662 1315.86 31.046 1316.2 31.31C1316.53 31.562 1316.94 31.754 1317.4 31.886C1317.74 31.982 1318.08 32.072 1318.41 32.156C1318.76 32.24 1319.08 32.312 1319.37 32.372C1319.87 32.48 1320.34 32.612 1320.79 32.768C1321.24 32.924 1321.64 33.134 1321.98 33.398C1322.31 33.65 1322.58 33.974 1322.77 34.37C1322.97 34.754 1323.07 35.234 1323.07 35.81C1323.07 36.494 1322.95 37.076 1322.7 37.556C1322.46 38.036 1322.13 38.432 1321.71 38.744C1321.29 39.056 1320.79 39.284 1320.23 39.428C1319.67 39.572 1319.06 39.644 1318.41 39.644C1317.75 39.644 1317.12 39.578 1316.52 39.446C1315.93 39.302 1315.41 39.08 1314.94 38.78C1314.47 38.468 1314.08 38.072 1313.77 37.592C1313.46 37.112 1313.26 36.536 1313.17 35.864H1315.33C1315.43 36.224 1315.59 36.524 1315.8 36.764C1316.02 37.004 1316.26 37.196 1316.54 37.34C1316.83 37.484 1317.13 37.586 1317.46 37.646C1317.78 37.706 1318.1 37.736 1318.41 37.736C1318.75 37.736 1319.07 37.712 1319.38 37.664C1319.7 37.604 1319.97 37.508 1320.19 37.376C1320.42 37.244 1320.61 37.07 1320.75 36.854C1320.9 36.638 1320.97 36.356 1320.97 36.008C1320.97 35.528 1320.84 35.18 1320.59 34.964C1320.34 34.736 1320 34.568 1319.58 34.46C1319.01 34.292 1318.41 34.148 1317.8 34.028C1317.2 33.896 1316.63 33.728 1316.09 33.524C1315.73 33.392 1315.4 33.236 1315.1 33.056C1314.8 32.876 1314.54 32.66 1314.31 32.408C1314.08 32.156 1313.9 31.862 1313.77 31.526C1313.65 31.178 1313.59 30.776 1313.59 30.32C1313.59 29.624 1313.72 29.042 1313.98 28.574C1314.25 28.094 1314.59 27.71 1315.01 27.422C1315.44 27.134 1315.93 26.93 1316.47 26.81C1317.01 26.678 1317.56 26.612 1318.12 26.612C1318.72 26.612 1319.29 26.684 1319.83 26.828C1320.37 26.96 1320.85 27.17 1321.27 27.458C1321.69 27.746 1322.03 28.118 1322.28 28.574C1322.55 29.03 1322.7 29.582 1322.75 30.23H1320.7C1320.65 29.906 1320.55 29.636 1320.39 29.42C1320.25 29.204 1320.06 29.03 1319.83 28.898C1319.62 28.754 1319.37 28.652 1319.08 28.592C1318.79 28.52 1318.48 28.478 1318.16 28.466ZM1327.6 39.5H1325.51V26.774H1327.6V39.5ZM1333.27 39.5V28.646H1329.24V26.774H1339.41V28.646H1335.36V39.5H1333.27ZM1341.05 26.774H1349.89V28.646H1343.14V32.264H1349.11V34.154H1343.14V37.646H1349.89V39.5H1341.05V26.774ZM1362.43 39.626C1361.43 39.626 1360.55 39.464 1359.78 39.14C1359.02 38.804 1358.39 38.348 1357.87 37.772C1357.36 37.196 1356.96 36.512 1356.68 35.72C1356.42 34.928 1356.29 34.064 1356.29 33.128C1356.29 32.18 1356.43 31.31 1356.7 30.518C1356.98 29.714 1357.37 29.024 1357.89 28.448C1358.42 27.872 1359.06 27.422 1359.82 27.098C1360.58 26.774 1361.46 26.612 1362.44 26.612C1363.43 26.612 1364.3 26.774 1365.05 27.098C1365.82 27.41 1366.46 27.854 1366.98 28.43C1367.51 29.006 1367.9 29.696 1368.17 30.5C1368.44 31.292 1368.58 32.162 1368.58 33.11C1368.58 34.046 1368.44 34.916 1368.17 35.72C1367.9 36.512 1367.51 37.196 1366.98 37.772C1366.46 38.348 1365.82 38.804 1365.05 39.14C1364.29 39.464 1363.41 39.626 1362.43 39.626ZM1362.44 28.484C1361.76 28.484 1361.17 28.61 1360.66 28.862C1360.17 29.114 1359.76 29.45 1359.42 29.87C1359.08 30.29 1358.83 30.782 1358.66 31.346C1358.51 31.91 1358.43 32.498 1358.43 33.11C1358.43 33.722 1358.51 34.31 1358.66 34.874C1358.83 35.426 1359.08 35.918 1359.4 36.35C1359.74 36.782 1360.16 37.124 1360.66 37.376C1361.17 37.628 1361.76 37.754 1362.44 37.754C1363.12 37.754 1363.7 37.634 1364.21 37.394C1364.71 37.142 1365.13 36.806 1365.45 36.386C1365.79 35.966 1366.03 35.48 1366.19 34.928C1366.36 34.364 1366.44 33.764 1366.44 33.128C1366.44 32.504 1366.36 31.916 1366.19 31.364C1366.03 30.8 1365.79 30.308 1365.45 29.888C1365.13 29.456 1364.71 29.114 1364.21 28.862C1363.72 28.61 1363.13 28.484 1362.44 28.484ZM1370.82 39.5V26.774H1379.55V28.646H1372.91V32.678H1378.6V34.532H1372.91V39.5H1370.82ZM1389.17 39.5V28.646H1385.14V26.774H1395.31V28.646H1391.26V39.5H1389.17ZM1405.26 32.3V26.774H1407.35V39.5H1405.26V34.172H1399.03V39.5H1396.95V26.774H1399.03V32.3H1405.26ZM1410.31 26.774H1419.14V28.646H1412.39V32.264H1418.37V34.154H1412.39V37.646H1419.14V39.5H1410.31V26.774ZM1426.25 39.5V26.774H1428.88L1432.67 33.29L1436.44 26.774H1438.99V39.5H1436.92V29.582L1433.09 36.188H1432.15L1428.32 29.582V39.5H1426.25ZM1447.38 39.626C1446.39 39.626 1445.5 39.464 1444.74 39.14C1443.98 38.804 1443.34 38.348 1442.83 37.772C1442.31 37.196 1441.92 36.512 1441.64 35.72C1441.38 34.928 1441.24 34.064 1441.24 33.128C1441.24 32.18 1441.38 31.31 1441.66 30.518C1441.93 29.714 1442.33 29.024 1442.85 28.448C1443.37 27.872 1444.02 27.422 1444.77 27.098C1445.54 26.774 1446.42 26.612 1447.4 26.612C1448.38 26.612 1449.25 26.774 1450.01 27.098C1450.78 27.41 1451.42 27.854 1451.94 28.43C1452.46 29.006 1452.86 29.696 1453.12 30.5C1453.4 31.292 1453.54 32.162 1453.54 33.11C1453.54 34.046 1453.4 34.916 1453.12 35.72C1452.86 36.512 1452.46 37.196 1451.94 37.772C1451.42 38.348 1450.78 38.804 1450.01 39.14C1449.24 39.464 1448.37 39.626 1447.38 39.626ZM1447.4 28.484C1446.72 28.484 1446.12 28.61 1445.62 28.862C1445.13 29.114 1444.71 29.45 1444.38 29.87C1444.04 30.29 1443.79 30.782 1443.62 31.346C1443.46 31.91 1443.39 32.498 1443.39 33.11C1443.39 33.722 1443.46 34.31 1443.62 34.874C1443.79 35.426 1444.03 35.918 1444.36 36.35C1444.69 36.782 1445.11 37.124 1445.62 37.376C1446.12 37.628 1446.72 37.754 1447.4 37.754C1448.07 37.754 1448.66 37.634 1449.16 37.394C1449.67 37.142 1450.08 36.806 1450.41 36.386C1450.74 35.966 1450.99 35.48 1451.14 34.928C1451.31 34.364 1451.4 33.764 1451.4 33.128C1451.4 32.504 1451.31 31.916 1451.14 31.364C1450.99 30.8 1450.74 30.308 1450.41 29.888C1450.08 29.456 1449.67 29.114 1449.16 28.862C1448.67 28.61 1448.08 28.484 1447.4 28.484ZM1455.78 39.5V26.774H1458.03L1464.37 36.332V26.774H1466.44V39.5H1464.2L1457.83 29.978V39.5H1455.78ZM1472.1 39.5V28.646H1468.07V26.774H1478.24V28.646H1474.19V39.5H1472.1ZM1488.2 32.3V26.774H1490.28V39.5H1488.2V34.172H1481.97V39.5H1479.88V26.774H1481.97V32.3H1488.2Z" fill="black"></path> <rect x="1545" width="235" height="67" rx="33.5" fill="#F8F8F8"></rect> <circle cx="1575" cy="33" r="22" fill="#F8F8F8"></circle> <path fill-rule="evenodd" clip-rule="evenodd" d="M1574.04 18.0257C1571.87 18.169 1569.66 18.8077 1567.8 19.8301C1565.15 21.2906 1562.93 23.5965 1561.58 26.2883C1559.41 30.6026 1559.48 35.8377 1561.76 40.0862C1564.17 44.5573 1568.64 47.5136 1573.69 47.9597C1574.63 48.0426 1576.33 47.9926 1577.23 47.8562C1579.45 47.5167 1581.36 46.7864 1583.25 45.5507C1586.56 43.3829 1588.91 39.9396 1589.69 36.1186C1589.94 34.9457 1590 34.2842 1590 33.0154C1590 30.5486 1589.51 28.4344 1588.44 26.3098C1586.38 22.1856 1582.55 19.237 1578.06 18.3057C1576.87 18.0574 1575.26 17.9454 1574.04 18.0257ZM1566.99 28.2585V28.4642H1567.2H1567.4V28.2585V28.0527H1567.2H1566.99V28.2585ZM1568.69 28.8213V29.3328L1568.45 29.3484C1568.22 29.3627 1568.2 29.3758 1568.2 29.4927C1568.2 29.6094 1568.22 29.6227 1568.44 29.6368L1568.69 29.6524L1568.7 30.9317C1568.72 32.1305 1568.72 32.22 1568.82 32.3529C1569.02 32.6127 1569.18 32.7008 1569.53 32.7218C1569.94 32.7472 1570.13 32.6774 1570.13 32.499C1570.13 32.3826 1570.12 32.371 1570.01 32.4077C1569.95 32.4308 1569.76 32.4497 1569.6 32.4497C1569.33 32.4497 1569.29 32.4351 1569.15 32.2818L1569 32.1138V30.8804V29.647H1569.56H1570.13V29.4927V29.3384H1569.56H1569V28.8241V28.3099H1568.84H1568.69V28.8213ZM1564.45 29.3587C1564 29.4988 1563.75 29.8076 1563.75 30.2286C1563.75 30.6377 1564.05 30.8768 1564.83 31.1126C1565.32 31.2582 1565.64 31.4153 1565.71 31.5466C1565.74 31.6012 1565.76 31.743 1565.76 31.8617C1565.76 32.0419 1565.73 32.1057 1565.58 32.2477C1565.26 32.5525 1564.7 32.5517 1564.09 32.2456C1563.76 32.0778 1563.73 32.0716 1563.67 32.1548C1563.63 32.2039 1563.6 32.2601 1563.6 32.2798C1563.6 32.2995 1563.77 32.402 1563.99 32.5077C1564.32 32.6722 1564.44 32.7032 1564.81 32.7227C1565.2 32.7432 1565.27 32.7321 1565.53 32.6066C1566.21 32.2741 1566.26 31.4606 1565.63 31.101C1565.52 31.0372 1565.23 30.9244 1564.99 30.8504C1564.22 30.6129 1564.06 30.4956 1564.06 30.1459C1564.06 29.9353 1564.2 29.7369 1564.42 29.6472C1564.67 29.5435 1565.27 29.6037 1565.59 29.7647C1565.85 29.8942 1565.86 29.8956 1565.91 29.8022C1565.94 29.7489 1565.96 29.6833 1565.96 29.6567C1565.96 29.5442 1565.13 29.2822 1564.79 29.2904C1564.72 29.2923 1564.56 29.323 1564.45 29.3587ZM1571.76 29.3707C1571.4 29.4816 1570.95 29.9337 1570.8 30.3399C1570.66 30.7214 1570.65 31.2793 1570.77 31.651C1571.14 32.7642 1572.55 33.1181 1573.47 32.3289C1573.64 32.1835 1573.65 32.1696 1573.57 32.0854C1573.48 32.0008 1573.47 32.0034 1573.3 32.1353C1572.99 32.3713 1572.7 32.4731 1572.35 32.4743C1571.66 32.4767 1571.11 32.0229 1571.02 31.3785L1570.99 31.1384H1572.39H1573.8L1573.76 30.8223C1573.63 29.6878 1572.77 29.0609 1571.76 29.3707ZM1567.04 31.0098V32.6812H1567.2H1567.35V31.0098V29.3384H1567.2H1567.04V31.0098ZM1571.92 29.5923C1571.44 29.7465 1571 30.303 1571 30.7603V30.8812H1572.21H1573.42V30.7334C1573.42 30.5419 1573.3 30.1948 1573.16 30.0038C1572.93 29.6732 1572.31 29.4676 1571.92 29.5923ZM1579.75 32.4755C1579.75 32.6763 1579.75 32.6812 1579.93 32.6812C1580.1 32.6812 1580.11 32.6763 1580.11 32.4755C1580.11 32.2746 1580.1 32.2697 1579.93 32.2697C1579.75 32.2697 1579.75 32.2746 1579.75 32.4755ZM1569.55 33.5882C1569.37 33.6422 1569.22 33.7425 1569.04 33.9223L1568.79 34.1794V33.8931C1568.79 33.6093 1568.79 33.6068 1568.64 33.6068H1568.48V35.2525V36.8982H1568.64H1568.79L1568.8 35.7497L1568.82 34.6012L1568.97 34.3497C1569.07 34.1953 1569.23 34.0389 1569.38 33.9448C1569.59 33.8148 1569.68 33.7914 1569.97 33.7914C1570.41 33.7915 1570.7 33.9432 1570.89 34.2748C1571.03 34.5052 1571.03 34.5149 1571.05 35.7025L1571.06 36.8982H1571.22H1571.37L1571.36 35.7025C1571.34 34.5162 1571.34 34.5046 1571.2 34.2163C1570.9 33.6217 1570.25 33.3722 1569.55 33.5882ZM1573 33.5762C1572.58 33.6896 1572.29 34.0403 1572.29 34.4297C1572.29 34.8864 1572.53 35.0846 1573.41 35.3533C1574.08 35.5589 1574.3 35.7261 1574.3 36.048C1574.3 36.7278 1573.31 36.9205 1572.48 36.4009C1572.29 36.2794 1572.28 36.278 1572.21 36.3675C1572.11 36.5044 1572.12 36.5217 1572.36 36.6598C1572.94 36.9944 1573.62 37.0623 1574.07 36.8307C1574.4 36.6648 1574.56 36.4164 1574.59 36.0542C1574.63 35.5598 1574.4 35.3575 1573.51 35.0754C1573.2 34.9791 1572.87 34.8395 1572.78 34.7652C1572.62 34.6481 1572.6 34.6007 1572.6 34.4083C1572.6 33.982 1572.91 33.7784 1573.5 33.8255C1573.69 33.8404 1573.94 33.9066 1574.11 33.9832L1574.4 34.1152L1574.46 34.0065C1574.53 33.8736 1574.45 33.8072 1574.07 33.6649C1573.7 33.5297 1573.29 33.4956 1573 33.5762ZM1576.75 33.5848C1576.57 33.6417 1576.4 33.7576 1576.17 33.9852L1575.84 34.3055V33.9562V33.6068H1575.69H1575.53V35.7959V37.985L1575.67 37.9687L1575.81 37.9524L1575.84 37.0885L1575.87 36.2245L1576.06 36.4542C1576.34 36.7919 1576.74 36.9757 1577.2 36.9739C1577.65 36.9722 1577.98 36.8332 1578.32 36.5019C1578.64 36.1851 1578.78 35.8478 1578.81 35.3296C1578.85 34.6145 1578.55 34.044 1577.97 33.7254C1577.58 33.5131 1577.13 33.4616 1576.75 33.5848ZM1584.45 33.596C1583.73 33.8529 1583.31 34.5443 1583.36 35.3798C1583.42 36.3132 1584.09 36.975 1584.97 36.9733C1585.43 36.9724 1585.8 36.8457 1586.1 36.5804C1586.33 36.376 1586.33 36.3693 1586.23 36.2967C1586.13 36.2291 1586.11 36.2352 1585.96 36.3624C1585.68 36.595 1585.41 36.6901 1585.03 36.6913C1584.47 36.6931 1584.09 36.4827 1583.85 36.04C1583.77 35.9006 1583.7 35.6896 1583.68 35.571L1583.64 35.3554H1585.05H1586.45L1586.42 35.0197C1586.36 34.4058 1586.05 33.91 1585.59 33.6821C1585.22 33.5017 1584.8 33.47 1584.45 33.596ZM1582.39 33.6802C1582.09 33.8167 1581.76 34.1304 1581.63 34.3903C1581.55 34.5573 1581.55 34.5554 1581.55 34.0825L1581.55 33.6068H1581.39H1581.24V35.2525V36.8982H1581.39H1581.55V36.0333C1581.55 35.0658 1581.6 34.7904 1581.86 34.4391C1582.07 34.1483 1582.35 33.9709 1582.73 33.9C1583.02 33.8442 1583.04 33.8316 1583.04 33.6979C1583.04 33.5675 1583.02 33.5555 1582.85 33.5559C1582.74 33.5562 1582.53 33.6121 1582.39 33.6802ZM1567.04 35.2525V36.8982H1567.2H1567.35V35.2525V33.6068H1567.2H1567.04V35.2525ZM1579.8 35.2525V36.8982H1579.93H1580.06V35.2525V33.6068H1579.93H1579.8V35.2525ZM1584.59 33.8207C1584.26 33.8962 1583.85 34.3185 1583.74 34.6886C1583.69 34.8393 1583.66 34.9931 1583.66 35.0304C1583.66 35.0846 1583.9 35.0982 1584.89 35.0982H1586.13L1586.1 34.9054C1585.95 34.0874 1585.34 33.6473 1584.59 33.8207ZM1576.63 33.9177C1576.35 34.0561 1576.07 34.3381 1575.93 34.6275C1575.85 34.8056 1575.82 34.9545 1575.82 35.2525C1575.82 35.7079 1575.94 35.9999 1576.23 36.2956C1576.48 36.548 1576.73 36.6571 1577.11 36.6829C1577.68 36.7208 1578.09 36.4904 1578.35 36.0044C1578.46 35.7778 1578.48 35.6765 1578.49 35.2782C1578.49 34.914 1578.47 34.766 1578.38 34.5834C1578.25 34.2949 1577.99 34.0318 1577.72 33.9088C1577.43 33.7766 1576.91 33.7809 1576.63 33.9177Z" fill="black"></path> <path d="M1634.14 28.466C1633.86 28.466 1633.58 28.49 1633.29 28.538C1633 28.586 1632.74 28.676 1632.5 28.808C1632.26 28.928 1632.06 29.102 1631.9 29.33C1631.75 29.546 1631.67 29.822 1631.67 30.158C1631.67 30.662 1631.84 31.046 1632.17 31.31C1632.51 31.562 1632.91 31.754 1633.38 31.886C1633.72 31.982 1634.05 32.072 1634.39 32.156C1634.74 32.24 1635.05 32.312 1635.34 32.372C1635.85 32.48 1636.32 32.612 1636.76 32.768C1637.22 32.924 1637.62 33.134 1637.95 33.398C1638.29 33.65 1638.55 33.974 1638.74 34.37C1638.95 34.754 1639.05 35.234 1639.05 35.81C1639.05 36.494 1638.92 37.076 1638.67 37.556C1638.43 38.036 1638.1 38.432 1637.68 38.744C1637.26 39.056 1636.77 39.284 1636.21 39.428C1635.64 39.572 1635.04 39.644 1634.39 39.644C1633.73 39.644 1633.1 39.578 1632.5 39.446C1631.91 39.302 1631.38 39.08 1630.91 38.78C1630.45 38.468 1630.06 38.072 1629.74 37.592C1629.43 37.112 1629.23 36.536 1629.15 35.864H1631.31C1631.41 36.224 1631.56 36.524 1631.78 36.764C1631.99 37.004 1632.24 37.196 1632.52 37.34C1632.8 37.484 1633.11 37.586 1633.43 37.646C1633.76 37.706 1634.08 37.736 1634.39 37.736C1634.72 37.736 1635.05 37.712 1635.36 37.664C1635.67 37.604 1635.94 37.508 1636.17 37.376C1636.4 37.244 1636.58 37.07 1636.73 36.854C1636.87 36.638 1636.94 36.356 1636.94 36.008C1636.94 35.528 1636.82 35.18 1636.57 34.964C1636.31 34.736 1635.98 34.568 1635.56 34.46C1634.98 34.292 1634.39 34.148 1633.78 34.028C1633.18 33.896 1632.61 33.728 1632.07 33.524C1631.71 33.392 1631.38 33.236 1631.08 33.056C1630.78 32.876 1630.51 32.66 1630.28 32.408C1630.06 32.156 1629.88 31.862 1629.74 31.526C1629.62 31.178 1629.56 30.776 1629.56 30.32C1629.56 29.624 1629.7 29.042 1629.96 28.574C1630.22 28.094 1630.57 27.71 1630.99 27.422C1631.42 27.134 1631.9 26.93 1632.44 26.81C1632.98 26.678 1633.54 26.612 1634.1 26.612C1634.7 26.612 1635.27 26.684 1635.81 26.828C1636.35 26.96 1636.83 27.17 1637.25 27.458C1637.67 27.746 1638.01 28.118 1638.26 28.574C1638.52 29.03 1638.68 29.582 1638.73 30.23H1636.67C1636.63 29.906 1636.52 29.636 1636.37 29.42C1636.22 29.204 1636.04 29.03 1635.81 28.898C1635.59 28.754 1635.34 28.652 1635.05 28.592C1634.77 28.52 1634.46 28.478 1634.14 28.466ZM1643.57 39.5H1641.48V26.774H1643.57V39.5ZM1649.25 39.5V28.646H1645.22V26.774H1655.39V28.646H1651.34V39.5H1649.25ZM1657.02 26.774H1665.86V28.646H1659.11V32.264H1665.09V34.154H1659.11V37.646H1665.86V39.5H1657.02V26.774ZM1675.06 39.5H1672.97V26.774H1675.06V39.5ZM1678.01 39.5V26.774H1680.26L1686.6 36.332V26.774H1688.67V39.5H1686.44L1680.06 29.978V39.5H1678.01ZM1696.06 28.466C1695.79 28.466 1695.51 28.49 1695.22 28.538C1694.93 28.586 1694.67 28.676 1694.43 28.808C1694.19 28.928 1693.99 29.102 1693.83 29.33C1693.68 29.546 1693.6 29.822 1693.6 30.158C1693.6 30.662 1693.77 31.046 1694.1 31.31C1694.44 31.562 1694.84 31.754 1695.31 31.886C1695.64 31.982 1695.98 32.072 1696.32 32.156C1696.66 32.24 1696.98 32.312 1697.27 32.372C1697.77 32.48 1698.25 32.612 1698.69 32.768C1699.15 32.924 1699.54 33.134 1699.88 33.398C1700.22 33.65 1700.48 33.974 1700.67 34.37C1700.88 34.754 1700.98 35.234 1700.98 35.81C1700.98 36.494 1700.85 37.076 1700.6 37.556C1700.36 38.036 1700.03 38.432 1699.61 38.744C1699.19 39.056 1698.7 39.284 1698.13 39.428C1697.57 39.572 1696.96 39.644 1696.32 39.644C1695.66 39.644 1695.03 39.578 1694.43 39.446C1693.84 39.302 1693.31 39.08 1692.84 38.78C1692.37 38.468 1691.98 38.072 1691.67 37.592C1691.36 37.112 1691.16 36.536 1691.08 35.864H1693.24C1693.33 36.224 1693.49 36.524 1693.71 36.764C1693.92 37.004 1694.17 37.196 1694.44 37.34C1694.73 37.484 1695.04 37.586 1695.36 37.646C1695.69 37.706 1696 37.736 1696.32 37.736C1696.65 37.736 1696.98 37.712 1697.29 37.664C1697.6 37.604 1697.87 37.508 1698.1 37.376C1698.33 37.244 1698.51 37.07 1698.66 36.854C1698.8 36.638 1698.87 36.356 1698.87 36.008C1698.87 35.528 1698.75 35.18 1698.49 34.964C1698.24 34.736 1697.91 34.568 1697.49 34.46C1696.91 34.292 1696.32 34.148 1695.7 34.028C1695.1 33.896 1694.53 33.728 1693.99 33.524C1693.63 33.392 1693.3 33.236 1693 33.056C1692.7 32.876 1692.44 32.66 1692.21 32.408C1691.98 32.156 1691.8 31.862 1691.67 31.526C1691.55 31.178 1691.49 30.776 1691.49 30.32C1691.49 29.624 1691.62 29.042 1691.89 28.574C1692.15 28.094 1692.49 27.71 1692.91 27.422C1693.35 27.134 1693.83 26.93 1694.37 26.81C1694.91 26.678 1695.46 26.612 1696.03 26.612C1696.63 26.612 1697.2 26.684 1697.74 26.828C1698.28 26.96 1698.76 27.17 1699.18 27.458C1699.6 27.746 1699.93 28.118 1700.19 28.574C1700.45 29.03 1700.61 29.582 1700.65 30.23H1698.6C1698.55 29.906 1698.45 29.636 1698.3 29.42C1698.15 29.204 1697.97 29.03 1697.74 28.898C1697.52 28.754 1697.27 28.652 1696.98 28.592C1696.69 28.52 1696.39 28.478 1696.06 28.466ZM1703.41 26.774H1708.07C1708.81 26.774 1709.46 26.858 1710.04 27.026C1710.62 27.182 1711.12 27.434 1711.53 27.782C1711.95 28.13 1712.27 28.58 1712.48 29.132C1712.71 29.672 1712.83 30.326 1712.83 31.094C1712.83 31.802 1712.71 32.432 1712.47 32.984C1712.24 33.536 1711.91 33.998 1711.48 34.37C1711.06 34.742 1710.55 35.024 1709.96 35.216C1709.38 35.408 1708.72 35.504 1708 35.504H1705.5V39.5H1703.41V26.774ZM1707.89 33.668C1708.7 33.668 1709.36 33.47 1709.89 33.074C1710.43 32.666 1710.71 32.036 1710.74 31.184C1710.74 30.284 1710.5 29.636 1710.04 29.24C1709.58 28.844 1708.91 28.646 1708.02 28.646H1705.5V33.668H1707.89ZM1717.19 39.5H1715.1V26.774H1717.19V39.5ZM1722.23 34.838V39.5H1720.15V26.774H1725.1C1725.76 26.774 1726.37 26.84 1726.95 26.972C1727.53 27.104 1728.02 27.326 1728.44 27.638C1728.88 27.95 1729.21 28.364 1729.45 28.88C1729.7 29.396 1729.83 30.032 1729.83 30.788C1729.83 31.304 1729.75 31.778 1729.6 32.21C1729.45 32.63 1729.25 33.002 1729 33.326C1728.75 33.638 1728.46 33.902 1728.12 34.118C1727.78 34.322 1727.42 34.472 1727.04 34.568L1729.79 39.5H1727.47C1727.05 38.72 1726.63 37.946 1726.19 37.178C1725.77 36.398 1725.35 35.618 1724.92 34.838H1722.23ZM1724.81 33.02C1725.22 33.02 1725.6 32.984 1725.96 32.912C1726.32 32.84 1726.63 32.72 1726.9 32.552C1727.16 32.384 1727.36 32.156 1727.51 31.868C1727.66 31.568 1727.74 31.19 1727.74 30.734C1727.74 30.326 1727.68 29.99 1727.54 29.726C1727.42 29.462 1727.24 29.252 1727 29.096C1726.76 28.928 1726.48 28.814 1726.14 28.754C1725.8 28.682 1725.43 28.646 1725.02 28.646H1722.23V33.02H1724.81ZM1732.17 26.774H1741.01V28.646H1734.26V32.264H1740.23V34.154H1734.26V37.646H1741.01V39.5H1732.17V26.774Z" fill="black"></path> <defs> <clipPath id="clip0_2123_8804"> <rect width="30" height="30" fill="white" transform="translate(15 18)"></rect> </clipPath> <clipPath id="clip1_2123_8804"> <rect width="30" height="30" fill="white" transform="translate(915 18)"></rect> </clipPath> </defs> </svg> 